<svg xmlns="http://www.w3.org/2000/svg" viewBox="0 0 220.79 167.18"><defs><style>.cls-1{fill:#fff;}.cls-2{fill:none;stroke:#fff;stroke-miterlimit:10;stroke-width:0.1px;}</style></defs><g id="Layer_2" data-name="Layer 2"><g id="Layer_1-2" data-name="Layer 1"><path d="M.05,144.27c3.63,0,7.26-.09,10.88.06,4.12.17,7.75,1.53,9.79,5.44,2.66,5.09,1.33,14.52-7.74,16.42a18,18,0,0,1-3.59.38c-3.11,0-6.23,0-9.34,0v-.36c1.22-.71,1.27-1.92,1.28-3.1,0-3.44,0-6.89,0-10.33,0-1.76,0-3.51,0-5.26,0-1.11-.1-2.27-1.28-2.9Zm4.73,11.12c0,2.63,0,5.26,0,7.89,0,.68.17,1,.92,1,1.27-.06,2.54,0,3.81,0,2.32-.11,4.57-.54,6.35-2.21,2.09-1.94,2.47-4.48,2.38-7.15-.16-4.43-2.48-7.27-6.55-8a41.11,41.11,0,0,0-5.87-.23c-.79,0-1.06.19-1,1C4.81,150.2,4.78,152.79,4.78,155.39Z"/><path d="M133.43,167.13a13.66,13.66,0,0,0-2.29-.46,11,11,0,0,1-8.42-10.52c-.23-6,3.36-10.9,9-12.1,6.31-1.33,12.73,1.63,14.25,8.45,1.59,7.14-3,13.73-9.91,14.45a2.22,2.22,0,0,0-.49.18Zm9.16-11.33a10.24,10.24,0,0,0-2.22-6.66c-3.7-4.61-10.94-3.82-13.14,1.51a10.61,10.61,0,0,0,1,10.45,7.85,7.85,0,0,0,11.79,1.62C142,160.91,142.6,158.54,142.59,155.8Z"/><path d="M159.38,167.13c-.51-.34-1.11-.21-1.67-.34a7.74,7.74,0,0,1-6.46-7.92c0-3.45,0-6.89,0-10.34,0-1.38.15-2.81-1.11-3.84-.23-.19-.11-.41.18-.41h5.26c.36,0,.46.26.2.46-1,.78-1,2-1.06,3,0,3.83-.21,7.67.11,11.5a5.22,5.22,0,0,0,5.09,5,10.46,10.46,0,0,0,2.44-.06,5.29,5.29,0,0,0,4.66-5.4c.09-3.84,0-7.68,0-11.52a2.87,2.87,0,0,0-1.1-2.47c-.12-.09-.24-.2-.18-.37s.24-.16.38-.16h4.63c.14,0,.33,0,.35.2a.39.39,0,0,1-.18.28c-1.12.83-1.2,2.05-1.2,3.26,0,3.48,0,7,0,10.43-.06,3.1-1.09,5.75-3.93,7.39a8.6,8.6,0,0,1-3.6,1.11.89.89,0,0,0-.59.19Z"/><path d="M118,16.1a42.3,42.3,0,0,0,.2-4.79,3.73,3.73,0,0,0-.8-2.27c-.43-.52-.86-.47-1.27,0a3.46,3.46,0,0,0-.74,2,31.92,31.92,0,0,0,.17,4.79c-.32.16-.45-.11-.62-.24a52,52,0,0,1-3.88-3.54c-.65-.64-.89-.56-1.09.33-.06.23-.09.47-.16.71-.55,1.94-.16,3.43,1.78,4.46a24.91,24.91,0,0,1,3.23,2.33,2.1,2.1,0,0,1,.41,2.2c-.31.49-.59.06-.82-.08-2.41-1.56-4.77-3.19-7-5-1.52-1.17-1.58-1.15-1.83.75-.08.69,0,1.39-.13,2.08A2.89,2.89,0,0,0,107.18,23l7.26,3.92a2.43,2.43,0,0,1,.55,2.46c-.24.34-.49.1-.71,0-1.29-.66-2.58-1.32-3.85-2-2.72-1.46-5.42-2.93-8.13-4.4-.87-.47-1-.41-1.14.56a21.06,21.06,0,0,0,0,3.89A2.56,2.56,0,0,0,103,29.64c3.68,1.5,7.36,3,11,4.55a2,2,0,0,1,.63,2.51c-.31.35-.64,0-.91-.08-3.46-1.33-6.93-2.66-10.37-4-2-.79-3.88-1.68-5.81-2.53-.78-.34-.95-.25-1,.61a29.6,29.6,0,0,0,.19,4.71A2.8,2.8,0,0,0,99,37.82c2.34.68,4.7,1.34,7,2,2.62.73,5.24,1.43,7.86,2.14.3.08.65.12.61.53-.06.65.22,1.36-.23,1.92-.19.24-.57,0-.86,0q-10.08-2.57-20.08-5.46l-.7-.2c-.46-.14-.69,0-.68.52a32.86,32.86,0,0,0,.61,6,2.21,2.21,0,0,0,1.9,1.83c3,.48,6,1,8.94,1.43q5,.78,9.93,1.49c.76.11.89.48.84,1.16-.1,1.65-.06,1.62-1.7,1.41-4.79-.6-9.59-1.15-14.38-1.76C95.05,50.41,92,50,89,49.48c-.87-.14-1,.18-.93.9a49.4,49.4,0,0,0,1.19,6.4c.53,1.84,1.17,2.34,3,2.3,4.68-.1,9.36-.24,14-.37,2.27-.06,4.53-.12,6.8-.22.65,0,.83.2.77.84-.18,1.92-.16,1.92-2.12,2l-24,1.45h-.27c-1.41.13-1.48.25-.85,1.53.86,1.73,1.67,3.48,2.57,5.19,1.16,2.2,1.86,2.49,4.32,2.06Q103,70,112.39,68.34c1-.18,1.1-.1,1.08.92,0,1.87,0,1.86-1.82,2.22q-10.92,2.17-21.83,4.38c-.91.19-1,.44-.46,1.22a38.9,38.9,0,0,0,4.58,5.26,3.94,3.94,0,0,0,4.53.74c4.47-1.83,9-3.62,13.43-5.42.22-.09.44-.2.67-.27s.59,0,.56.43c0,.64-.06,1.27,0,1.91s-.38.62-.73.78L99.41,86.16c-.17.07-.34.13-.5.21s-.55.2-.58.52.28.51.54.65a32.48,32.48,0,0,0,4.27,1.76c1.33.48,2.69.88,4,1.36a2.26,2.26,0,0,0,2.29-.37,22.59,22.59,0,0,0,2.6-2.39c.16-.16.28-.48.56-.35s.12.37.12.57c-.14,5.35-.45,10.68-.89,16-.13,1.6-.32,3.19-.37,4.79,0,.75-.31.87-1,.87-5.29,0-10.58,0-15.87,0q-15.06,0-30.13,0c-.36,0-1,.27-1-.33s-.43-1.42.37-1.89c3.3-1.92,4.66-5,5.19-8.59a52.84,52.84,0,0,0,.54-7.85q0-36.37,0-72.75a37.56,37.56,0,0,0-1-9.79,9.94,9.94,0,0,0-4.47-6.14A2.14,2.14,0,0,1,63.44.31a.33.33,0,0,1,.34-.22h.82c16.15,0,32.3-.11,48.45,0,10.76.1,21.23,2,30.94,6.87,14.23,7.18,22.88,18.68,25.68,34.35,2.38,13.27,1,26.2-5,38.41-5.75,11.77-15,19.79-27.06,24.76a70.66,70.66,0,0,1-14.69,4.13c-.55.1-.85,0-.9-.63-.46-6.56-1-13.13-1.13-19.71a1.48,1.48,0,0,1,.26-1,15.51,15.51,0,0,0,1.08,1.3c.6.6,1.23,1.16,1.88,1.7a2.33,2.33,0,0,0,2.37.41c2.42-.77,4.8-1.62,7.15-2.58.33-.14.67-.28,1-.45s.65-.3.64-.69-.4-.49-.69-.62L126,82.59c-1.58-.69-3.15-1.4-4.74-2a1.05,1.05,0,0,1-.76-1.16,6.58,6.58,0,0,0-.06-1.08c-.09-.94.11-1.1,1-.75L132,81.79c1.23.5,2.47,1,3.71,1.45a3.53,3.53,0,0,0,3.86-.78A34.9,34.9,0,0,0,144.3,77c.52-.71.39-1-.48-1.14q-11.31-2.28-22.62-4.55c-.71-.13-1.11-.36-1-1.14a5.62,5.62,0,0,0,0-.82c-.08-1.15,0-1.2,1.09-1l19.17,3.35c1.89.32,2.65,0,3.63-1.62,1.2-2,2.1-4.15,3.13-6.23.3-.59.08-.91-.59-1-1.23-.08-2.47-.19-3.7-.26q-11.13-.68-22.26-1.31c-.55,0-.8-.17-.84-.78-.18-2.5-.23-2.06,1.86-2q9.75.26,19.48.54c2.05,0,2.78-.47,3.31-2.46a61.37,61.37,0,0,0,1.15-6.31c.11-.72-.11-1-.9-.84-7.12,1.16-14.29,2-21.46,2.81l-3.06.36c-.5.06-.7-.1-.71-.63,0-2.18-.37-1.79,1.46-2.08l17.35-2.69c2.15-.33,2.76-1,3-3.18.16-1.5.35-3,.37-4.51,0-1,0-1-.95-.75-6.76,1.93-13.54,3.8-20.35,5.52-1.18.29-1.13.27-1.24-1-.09-1,.25-1.38,1.23-1.63,4.47-1.15,8.91-2.39,13.37-3.61a11.58,11.58,0,0,0,1.36-.48,2.69,2.69,0,0,0,1.8-2.4,34.11,34.11,0,0,0,.19-4.52c-.05-1-.2-1-1.09-.63-5.27,2.43-10.69,4.48-16.11,6.54-.91.35-.91.26-1.06-.74S119,34.37,120,34c3.35-1.3,6.62-2.78,10-4a3.43,3.43,0,0,0,2.58-3.82,23,23,0,0,0-.12-2.62c-.18-1-.24-1-1.11-.58l-7.88,4.28c-1.36.73-2.73,1.43-4.09,2.15-.48.25-.75.27-.8-.42-.1-1.63-.13-1.63,1.35-2.42,2.07-1.11,4.13-2.26,6.22-3.34,1.46-.76,2.31-1.8,2.07-3.54-.12-.84-.11-1.69-.21-2.53s-.46-1-1.19-.46c-2.43,1.9-5,3.65-7.55,5.34-.83.54-.87.49-1-.48a1.67,1.67,0,0,1,.81-1.83c1.37-.93,2.68-2,4-2.92a1.93,1.93,0,0,0,.92-2c-.12-.77-.23-1.55-.37-2.32-.06-.28-.09-.66-.42-.75s-.47.23-.66.41A52.25,52.25,0,0,1,118,16.1Z"/><path d="M91.51,166.36c1.89-1.33,1.72-3.43,2-5.32.81-5.4,1.55-10.81,2.33-16.21.05-.35-.07-.85.56-.83s1.1-.12,1.43.6c1.47,3.11,3,6.2,4.49,9.29q1.65,3.42,3.32,6.84a3.86,3.86,0,0,0,.29.41c.6-1.23,1.17-2.37,1.73-3.51,2.09-4.32,4.2-8.62,6.25-13,.35-.76.88-.7,1.47-.66s.53.61.59,1l2.28,16.68c.11.84.26,1.67.41,2.5a2.89,2.89,0,0,0,.94,1.8c.21.17.51.51,0,.53-1.88.05-3.76,0-5.72-.07,1.56-1.18,1.11-2.72.93-4.2l-1.14-9.71c0-.29-.12-.58-.23-1.11-.82,1.62-1.55,3.06-2.26,4.5-1.59,3.22-3.19,6.44-4.76,9.66-.22.44-.43.73-1,.73s-.77-.27-1-.72q-3.2-6.56-6.41-13.08c-.14-.28-.18-.65-.63-.83-.21,1.51-.41,3-.61,4.47-.29,2.12-.6,4.24-.83,6.37-.13,1.26-.47,2.61.84,3.57.29.21.18.43-.18.44h-5Z"/><path d="M199.69,155.43c0-2.56,0-5.13,0-7.7a3.43,3.43,0,0,0-1-3c-.33-.26-.25-.48.17-.48H204c.33,0,.51.23.23.44-1.24,1-1,2.41-1.07,3.69-.11,1.59,0,3.2,0,4.8,0,.6.22.78.8.77q5.72,0,11.43,0c.56,0,.71-.19.71-.73,0-2,0-4,0-6a2.87,2.87,0,0,0-.95-2.44c-.12-.1-.23-.21-.18-.38s.29-.17.46-.17h4.9c.17,0,.39-.05.46.18s-.08.27-.2.37a2.75,2.75,0,0,0-.93,2.26q-.12,8.34,0,16.68a2.75,2.75,0,0,0,.93,2.26c.13.1.25.21.21.37s-.3.17-.46.17h-4.9c-.17,0-.39.07-.47-.15s.11-.32.24-.44a2.55,2.55,0,0,0,.87-2c0-2.32,0-4.65,0-7,0-.5-.23-.59-.66-.59-3.87,0-7.74,0-11.61,0-.53,0-.67.22-.66.7,0,2.3-.09,4.59.12,6.89a2.75,2.75,0,0,0,.86,2c.13.11.31.23.21.44s-.32.13-.48.13h-4.9c-.17,0-.39.06-.45-.17a.41.41,0,0,1,.15-.3c1-.75,1-1.86,1.05-3C199.71,160.57,199.69,158,199.69,155.43Z"/><path d="M61.16,156.7c3.47,2.79,5.19,7,8.71,9.76a22.22,22.22,0,0,1-4.54,0c-.56-.08-.89-.59-1.22-1l-4.72-6.32c-.67-.9-1.4-1.68-2.69-1.46-.48.09-.59-.3-.76-.62-.86-1.66-.86-1.67,1-1.66a8.7,8.7,0,0,0,2.16-.2,4.17,4.17,0,0,0,3.24-4.6,3.93,3.93,0,0,0-3.86-3.93c-1.29-.13-2.6-.06-3.9-.09-.59,0-.6.35-.6.77,0,1.6,0,3.21,0,4.81,0,3.29,0,6.59,0,9.88,0,1.46-.15,3,1.11,4.14.2.19.11.4-.2.4H49.61c-.38,0-.44-.22-.18-.44,1-.89,1.07-2.14,1.08-3.33q0-7.35,0-14.69c0-1.23,0-2.5-1.11-3.41-.17-.14-.15-.32.1-.39a.55.55,0,0,1,.18,0c3.71.12,7.45-.38,11.12.37,3.17.65,4.92,2.54,5.09,5.21.22,3.36-1.07,5.4-4.25,6.66Z"/><path d="M45.48,166.56H39.53c-.14,0-.33.05-.39-.14s.06-.27.19-.36a1.62,1.62,0,0,0,.52-2.09c-.37-1.22-1-2.34-1.44-3.52a.71.71,0,0,0-.76-.48H29.49a.71.71,0,0,0-.76.49c-.45,1.09-.94,2.16-1.34,3.26-.33.89-.44,1.79.6,2.36.14.08.26.2.17.36a.44.44,0,0,1-.31.12H23c-.11,0-.26,0-.31-.12s.05-.28.18-.36a6,6,0,0,0,2-2.87Q29,154,33.12,144.83c.19-.44.33-.85,1-.86s.85.42,1.06.89q4,8.91,8,17.82c.61,1.33,1.11,2.75,2.4,3.66Zm-11.91-17.1-3.38,7.7c-.21.48,0,.57.45.57H35c2.21,0,2.22,0,1.35-2S34.57,151.72,33.57,149.46Z"/><path d="M186.38,155.43c0,2.57,0,5.14,0,7.71a3.28,3.28,0,0,0,1.14,2.91c.13.1.24.22.15.38a.43.43,0,0,1-.3.12h-5.44c-.15,0-.33,0-.37-.17s.08-.27.21-.37a2.84,2.84,0,0,0,1.05-2.48q0-8.11,0-16.23c0-.49-.13-.73-.67-.71-1.38.06-2.77-.06-4.16.12a4,4,0,0,0-2.73,1.24c-.14.16-.3.36-.53.21s-.06-.33,0-.5c.15-1,.31-2,.46-3,.06-.46.21-.61.76-.58a142.65,142.65,0,0,0,17.3,0c.49,0,.69,0,.75.55.11,1,.32,2,.47,2.95,0,.21.18.51-.1.64s-.38-.13-.51-.28a4.46,4.46,0,0,0-3.39-1.25c-1.14-.07-2.3,0-3.44-.05-.6,0-.7.25-.69.76q0,4,0,8.07Z"/><path d="M81.85,155.54c0,2.63,0,5.26,0,7.89A3,3,0,0,0,82.9,166c.13.1.25.21.21.37s-.28.18-.45.18H77.4c-.14,0-.32.05-.4-.12s.08-.33.22-.43a2.89,2.89,0,0,0,1.06-2.49c0-5.41,0-10.82,0-16.23,0-.41,0-.71-.57-.69-1.42.06-2.84-.06-4.26.12A4.06,4.06,0,0,0,70.75,148c-.11.14-.23.32-.44.24s-.16-.36-.13-.55c.16-1,.35-2.08.49-3.13.06-.43.24-.51.67-.49a135.79,135.79,0,0,0,17.47,0c.45,0,.6.12.66.51.16,1.08.33,2.15.5,3.22,0,.15.07.32-.07.42s-.35,0-.47-.14c-1-1.26-2.45-1.32-3.87-1.4-1-.06-2,0-3,0-.59,0-.78.19-.77.78,0,2.72,0,5.44,0,8.16Z"/><path class="cls-1" d="M.05,144.27c3.63,0,7.26-.09,10.88.06,4.12.17,7.75,1.53,9.79,5.44,2.66,5.09,1.33,14.52-7.74,16.42a18,18,0,0,1-3.59.38c-3.11,0-6.23,0-9.34,0v-.36c1.22-.71,1.27-1.92,1.28-3.1,0-3.44,0-6.89,0-10.33,0-1.76,0-3.51,0-5.26,0-1.11-.1-2.27-1.28-2.9Zm4.73,11.12c0,2.63,0,5.26,0,7.89,0,.68.17,1,.92,1,1.27-.06,2.54,0,3.81,0,2.32-.11,4.57-.54,6.35-2.21,2.09-1.94,2.47-4.48,2.38-7.15-.16-4.43-2.48-7.27-6.55-8a41.11,41.11,0,0,0-5.87-.23c-.79,0-1.06.19-1,1C4.81,150.2,4.78,152.79,4.78,155.39Z"/><path class="cls-1" d="M133.43,167.13a13.66,13.66,0,0,0-2.29-.46,11,11,0,0,1-8.42-10.52c-.23-6,3.36-10.9,9-12.1,6.31-1.33,12.73,1.63,14.25,8.45,1.59,7.14-3,13.73-9.91,14.45a2.22,2.22,0,0,0-.49.18Zm9.16-11.33a10.24,10.24,0,0,0-2.22-6.66c-3.7-4.61-10.94-3.82-13.14,1.51a10.61,10.61,0,0,0,1,10.45,7.85,7.85,0,0,0,11.79,1.62C142,160.91,142.6,158.54,142.59,155.8Z"/><path class="cls-1" d="M159.38,167.13c-.51-.34-1.11-.21-1.67-.34a7.74,7.74,0,0,1-6.46-7.92c0-3.45,0-6.89,0-10.34,0-1.38.15-2.81-1.11-3.84-.23-.19-.11-.41.18-.41h5.26c.36,0,.46.26.2.46-1,.78-1,2-1.06,3,0,3.83-.21,7.67.11,11.5a5.22,5.22,0,0,0,5.09,5,10.46,10.46,0,0,0,2.44-.06,5.29,5.29,0,0,0,4.66-5.4c.09-3.84,0-7.68,0-11.52a2.87,2.87,0,0,0-1.1-2.47c-.12-.09-.24-.2-.18-.37s.24-.16.38-.16h4.63c.14,0,.33,0,.35.2a.39.39,0,0,1-.18.28c-1.12.83-1.2,2.05-1.2,3.26,0,3.48,0,7,0,10.43-.06,3.1-1.09,5.75-3.93,7.39a8.6,8.6,0,0,1-3.6,1.11.89.89,0,0,0-.59.19Z"/><path class="cls-1" d="M118,16.1a42.3,42.3,0,0,0,.2-4.79,3.73,3.73,0,0,0-.8-2.27c-.43-.52-.86-.47-1.27,0a3.46,3.46,0,0,0-.74,2,31.92,31.92,0,0,0,.17,4.79c-.32.16-.45-.11-.62-.24a52,52,0,0,1-3.88-3.54c-.65-.64-.89-.56-1.09.33-.06.23-.09.47-.16.71-.55,1.94-.16,3.43,1.78,4.46a24.91,24.91,0,0,1,3.23,2.33,2.1,2.1,0,0,1,.41,2.2c-.31.49-.59.06-.82-.08-2.41-1.56-4.77-3.19-7-5-1.52-1.17-1.58-1.15-1.83.75-.08.69,0,1.39-.13,2.08A2.89,2.89,0,0,0,107.18,23l7.26,3.92a2.43,2.43,0,0,1,.55,2.46c-.24.34-.49.1-.71,0-1.29-.66-2.58-1.32-3.85-2-2.72-1.46-5.42-2.93-8.13-4.4-.87-.47-1-.41-1.14.56a21.06,21.06,0,0,0,0,3.89A2.56,2.56,0,0,0,103,29.64c3.68,1.5,7.36,3,11,4.55a2,2,0,0,1,.63,2.51c-.31.35-.64,0-.91-.08-3.46-1.33-6.93-2.66-10.37-4-2-.79-3.88-1.68-5.81-2.53-.78-.34-.95-.25-1,.61a29.6,29.6,0,0,0,.19,4.71A2.8,2.8,0,0,0,99,37.82c2.34.68,4.7,1.34,7,2,2.62.73,5.24,1.43,7.86,2.14.3.08.65.12.61.53-.06.65.22,1.36-.23,1.92-.19.24-.57,0-.86,0q-10.08-2.57-20.08-5.46l-.7-.2c-.46-.14-.69,0-.68.52a32.86,32.86,0,0,0,.61,6,2.21,2.21,0,0,0,1.9,1.83c3,.48,6,1,8.94,1.43q5,.78,9.93,1.49c.76.11.89.48.84,1.16-.1,1.65-.06,1.62-1.7,1.41-4.79-.6-9.59-1.15-14.38-1.76C95.05,50.41,92,50,89,49.48c-.87-.14-1,.18-.93.9a49.4,49.4,0,0,0,1.19,6.4c.53,1.84,1.17,2.34,3,2.3,4.68-.1,9.36-.24,14-.37,2.27-.06,4.53-.12,6.8-.22.65,0,.83.2.77.84-.18,1.92-.16,1.92-2.12,2l-24,1.45h-.27c-1.41.13-1.48.25-.85,1.53.86,1.73,1.67,3.48,2.57,5.19,1.16,2.2,1.86,2.49,4.32,2.06Q103,70,112.39,68.34c1-.18,1.1-.1,1.08.92,0,1.87,0,1.86-1.82,2.22q-10.92,2.17-21.83,4.38c-.91.19-1,.44-.46,1.22a38.9,38.9,0,0,0,4.58,5.26,3.94,3.94,0,0,0,4.53.74c4.47-1.83,9-3.62,13.43-5.42.22-.09.44-.2.67-.27s.59,0,.56.43c0,.64-.06,1.27,0,1.91s-.38.62-.73.78L99.41,86.16c-.17.07-.34.13-.5.21s-.55.2-.58.52.28.51.54.65a32.48,32.48,0,0,0,4.27,1.76c1.33.48,2.69.88,4,1.36a2.26,2.26,0,0,0,2.29-.37,22.59,22.59,0,0,0,2.6-2.39c.16-.16.28-.48.56-.35s.12.37.12.57c-.14,5.35-.45,10.68-.89,16-.13,1.6-.32,3.19-.37,4.79,0,.75-.31.87-1,.87-5.29,0-10.58,0-15.87,0q-15.06,0-30.13,0c-.36,0-1,.27-1-.33s-.43-1.42.37-1.89c3.3-1.92,4.66-5,5.19-8.59a52.84,52.84,0,0,0,.54-7.85q0-36.37,0-72.75a37.56,37.56,0,0,0-1-9.79,9.94,9.94,0,0,0-4.47-6.14A2.14,2.14,0,0,1,63.44.31a.33.33,0,0,1,.34-.22h.82c16.15,0,32.3-.11,48.45,0,10.76.1,21.23,2,30.94,6.87,14.23,7.18,22.88,18.68,25.68,34.35,2.38,13.27,1,26.2-5,38.41-5.75,11.77-15,19.79-27.06,24.76a70.66,70.66,0,0,1-14.69,4.13c-.55.1-.85,0-.9-.63-.46-6.56-1-13.13-1.13-19.71a1.48,1.48,0,0,1,.26-1,15.51,15.51,0,0,0,1.08,1.3c.6.6,1.23,1.16,1.88,1.7a2.33,2.33,0,0,0,2.37.41c2.42-.77,4.8-1.62,7.15-2.58.33-.14.67-.28,1-.45s.65-.3.64-.69-.4-.49-.69-.62L126,82.59c-1.58-.69-3.15-1.4-4.74-2a1.05,1.05,0,0,1-.76-1.16,6.58,6.58,0,0,0-.06-1.08c-.09-.94.11-1.1,1-.75L132,81.79c1.23.5,2.47,1,3.71,1.45a3.53,3.53,0,0,0,3.86-.78A34.9,34.9,0,0,0,144.3,77c.52-.71.39-1-.48-1.14q-11.31-2.28-22.62-4.55c-.71-.13-1.11-.36-1-1.14a5.62,5.62,0,0,0,0-.82c-.08-1.15,0-1.2,1.09-1l19.17,3.35c1.89.32,2.65,0,3.63-1.62,1.2-2,2.1-4.15,3.13-6.23.3-.59.08-.91-.59-1-1.23-.08-2.47-.19-3.7-.26q-11.13-.68-22.26-1.31c-.55,0-.8-.17-.84-.78-.18-2.5-.23-2.06,1.86-2q9.75.26,19.48.54c2.05,0,2.78-.47,3.31-2.46a61.37,61.37,0,0,0,1.15-6.31c.11-.72-.11-1-.9-.84-7.12,1.16-14.29,2-21.46,2.81l-3.06.36c-.5.06-.7-.1-.71-.63,0-2.18-.37-1.79,1.46-2.08l17.35-2.69c2.15-.33,2.76-1,3-3.18.16-1.5.35-3,.37-4.51,0-1,0-1-.95-.75-6.76,1.93-13.54,3.8-20.35,5.52-1.18.29-1.13.27-1.24-1-.09-1,.25-1.38,1.23-1.63,4.47-1.15,8.91-2.39,13.37-3.61a11.58,11.58,0,0,0,1.36-.48,2.69,2.69,0,0,0,1.8-2.4,34.11,34.11,0,0,0,.19-4.52c-.05-1-.2-1-1.09-.63-5.27,2.43-10.69,4.48-16.11,6.54-.91.35-.91.26-1.06-.74S119,34.37,120,34c3.35-1.3,6.62-2.78,10-4a3.43,3.43,0,0,0,2.58-3.82,23,23,0,0,0-.12-2.62c-.18-1-.24-1-1.11-.58l-7.88,4.28c-1.36.73-2.73,1.43-4.09,2.15-.48.25-.75.27-.8-.42-.1-1.63-.13-1.63,1.35-2.42,2.07-1.11,4.13-2.26,6.22-3.34,1.46-.76,2.31-1.8,2.07-3.54-.12-.84-.11-1.69-.21-2.53s-.46-1-1.19-.46c-2.43,1.9-5,3.65-7.55,5.34-.83.54-.87.49-1-.48a1.67,1.67,0,0,1,.81-1.83c1.37-.93,2.68-2,4-2.92a1.93,1.93,0,0,0,.92-2c-.12-.77-.23-1.55-.37-2.32-.06-.28-.09-.66-.42-.75s-.47.23-.66.41A52.25,52.25,0,0,1,118,16.1Z"/><path class="cls-1" d="M91.51,166.36c1.89-1.33,1.72-3.43,2-5.32.81-5.4,1.55-10.81,2.33-16.21.05-.35-.07-.85.56-.83s1.1-.12,1.43.6c1.47,3.11,3,6.2,4.49,9.29q1.65,3.42,3.32,6.84a3.86,3.86,0,0,0,.29.41c.6-1.23,1.17-2.37,1.73-3.51,2.09-4.32,4.2-8.62,6.25-13,.35-.76.88-.7,1.47-.66s.53.61.59,1l2.28,16.68c.11.84.26,1.67.41,2.5a2.89,2.89,0,0,0,.94,1.8c.21.17.51.51,0,.53-1.88.05-3.76,0-5.72-.07,1.56-1.18,1.11-2.72.93-4.2l-1.14-9.71c0-.29-.12-.58-.23-1.11-.82,1.62-1.55,3.06-2.26,4.5-1.59,3.22-3.19,6.44-4.76,9.66-.22.44-.43.73-1,.73s-.77-.27-1-.72q-3.2-6.56-6.41-13.08c-.14-.28-.18-.65-.63-.83-.21,1.51-.41,3-.61,4.47-.29,2.12-.6,4.24-.83,6.37-.13,1.26-.47,2.61.84,3.57.29.21.18.43-.18.44h-5Z"/><path class="cls-1" d="M199.69,155.43c0-2.56,0-5.13,0-7.7a3.43,3.43,0,0,0-1-3c-.33-.26-.25-.48.17-.48H204c.33,0,.51.23.23.44-1.24,1-1,2.41-1.07,3.69-.11,1.59,0,3.2,0,4.8,0,.6.22.78.8.77q5.72,0,11.43,0c.56,0,.71-.19.71-.73,0-2,0-4,0-6a2.87,2.87,0,0,0-.95-2.44c-.12-.1-.23-.21-.18-.38s.29-.17.46-.17h4.9c.17,0,.39-.05.46.18s-.08.27-.2.37a2.75,2.75,0,0,0-.93,2.26q-.12,8.34,0,16.68a2.75,2.75,0,0,0,.93,2.26c.13.1.25.21.21.37s-.3.17-.46.17h-4.9c-.17,0-.39.07-.47-.15s.11-.32.24-.44a2.55,2.55,0,0,0,.87-2c0-2.32,0-4.65,0-7,0-.5-.23-.59-.66-.59-3.87,0-7.74,0-11.61,0-.53,0-.67.22-.66.7,0,2.3-.09,4.59.12,6.89a2.75,2.75,0,0,0,.86,2c.13.11.31.23.21.44s-.32.13-.48.13h-4.9c-.17,0-.39.06-.45-.17a.41.41,0,0,1,.15-.3c1-.75,1-1.86,1.05-3C199.71,160.57,199.69,158,199.69,155.43Z"/><path class="cls-1" d="M61.16,156.7c3.47,2.79,5.19,7,8.71,9.76a22.22,22.22,0,0,1-4.54,0c-.56-.08-.89-.59-1.22-1l-4.72-6.32c-.67-.9-1.4-1.68-2.69-1.46-.48.09-.59-.3-.76-.62-.86-1.66-.86-1.67,1-1.66a8.7,8.7,0,0,0,2.16-.2,4.17,4.17,0,0,0,3.24-4.6,3.93,3.93,0,0,0-3.86-3.93c-1.29-.13-2.6-.06-3.9-.09-.59,0-.6.35-.6.77,0,1.6,0,3.21,0,4.81,0,3.29,0,6.59,0,9.88,0,1.46-.15,3,1.11,4.14.2.19.11.4-.2.4H49.61c-.38,0-.44-.22-.18-.44,1-.89,1.07-2.14,1.08-3.33q0-7.35,0-14.69c0-1.23,0-2.5-1.11-3.41-.17-.14-.15-.32.1-.39a.55.55,0,0,1,.18,0c3.71.12,7.45-.38,11.12.37,3.17.65,4.92,2.54,5.09,5.21.22,3.36-1.07,5.4-4.25,6.66Z"/><path class="cls-1" d="M45.48,166.56H39.53c-.14,0-.33.05-.39-.14s.06-.27.19-.36a1.62,1.62,0,0,0,.52-2.09c-.37-1.22-1-2.34-1.44-3.52a.71.71,0,0,0-.76-.48H29.49a.71.71,0,0,0-.76.49c-.45,1.09-.94,2.16-1.34,3.26-.33.89-.44,1.79.6,2.36.14.08.26.2.17.36a.44.44,0,0,1-.31.12H23c-.11,0-.26,0-.31-.12s.05-.28.18-.36a6,6,0,0,0,2-2.87Q29,154,33.12,144.83c.19-.44.33-.85,1-.86s.85.42,1.06.89q4,8.91,8,17.82c.61,1.33,1.11,2.75,2.4,3.66Zm-11.91-17.1-3.38,7.7c-.21.48,0,.57.45.57H35c2.21,0,2.22,0,1.35-2S34.57,151.72,33.57,149.46Z"/><path class="cls-1" d="M186.38,155.43c0,2.57,0,5.14,0,7.71a3.28,3.28,0,0,0,1.14,2.91c.13.1.24.22.15.38a.43.43,0,0,1-.3.12h-5.44c-.15,0-.33,0-.37-.17s.08-.27.21-.37a2.84,2.84,0,0,0,1.05-2.48q0-8.11,0-16.23c0-.49-.13-.73-.67-.71-1.38.06-2.77-.06-4.16.12a4,4,0,0,0-2.73,1.24c-.14.16-.3.36-.53.21s-.06-.33,0-.5c.15-1,.31-2,.46-3,.06-.46.21-.61.76-.58a142.65,142.65,0,0,0,17.3,0c.49,0,.69,0,.75.55.11,1,.32,2,.47,2.95,0,.21.18.51-.1.64s-.38-.13-.51-.28a4.46,4.46,0,0,0-3.39-1.25c-1.14-.07-2.3,0-3.44-.05-.6,0-.7.25-.69.76q0,4,0,8.07Z"/><path class="cls-1" d="M81.85,155.54c0,2.63,0,5.26,0,7.89A3,3,0,0,0,82.9,166c.13.1.25.21.21.37s-.28.18-.45.18H77.4c-.14,0-.32.05-.4-.12s.08-.33.22-.43a2.89,2.89,0,0,0,1.06-2.49c0-5.41,0-10.82,0-16.23,0-.41,0-.71-.57-.69-1.42.06-2.84-.06-4.26.12A4.06,4.06,0,0,0,70.75,148c-.11.14-.23.32-.44.24s-.16-.36-.13-.55c.16-1,.35-2.08.49-3.13.06-.43.24-.51.67-.49a135.79,135.79,0,0,0,17.47,0c.45,0,.6.12.66.51.16,1.08.33,2.15.5,3.22,0,.15.07.32-.07.42s-.35,0-.47-.14c-1-1.26-2.45-1.32-3.87-1.4-1-.06-2,0-3,0-.59,0-.78.19-.77.78,0,2.72,0,5.44,0,8.16Z"/><path class="cls-2" d="M.05,144.27c3.63,0,7.26-.09,10.88.06,4.12.17,7.75,1.53,9.79,5.44,2.66,5.09,1.33,14.52-7.74,16.42a18,18,0,0,1-3.59.38c-3.11,0-6.23,0-9.34,0v-.36c1.22-.71,1.27-1.92,1.28-3.1,0-3.44,0-6.89,0-10.33,0-1.76,0-3.51,0-5.26,0-1.11-.1-2.27-1.28-2.9Zm4.73,11.12c0,2.63,0,5.26,0,7.89,0,.68.17,1,.92,1,1.27-.06,2.54,0,3.81,0,2.32-.11,4.57-.54,6.35-2.21,2.09-1.94,2.47-4.48,2.38-7.15-.16-4.43-2.48-7.27-6.55-8a41.11,41.11,0,0,0-5.87-.23c-.79,0-1.06.19-1,1C4.81,150.2,4.78,152.79,4.78,155.39Z"/><path class="cls-2" d="M133.43,167.13a13.66,13.66,0,0,0-2.29-.46,11,11,0,0,1-8.42-10.52c-.23-6,3.36-10.9,9-12.1,6.31-1.33,12.73,1.63,14.25,8.45,1.59,7.14-3,13.73-9.91,14.45a2.22,2.22,0,0,0-.49.18Zm9.16-11.33a10.24,10.24,0,0,0-2.22-6.66c-3.7-4.61-10.94-3.82-13.14,1.51a10.61,10.61,0,0,0,1,10.45,7.85,7.85,0,0,0,11.79,1.62C142,160.91,142.6,158.54,142.59,155.8Z"/><path class="cls-2" d="M159.38,167.13c-.51-.34-1.11-.21-1.67-.34a7.74,7.74,0,0,1-6.46-7.92c0-3.45,0-6.89,0-10.34,0-1.38.15-2.81-1.11-3.84-.23-.19-.11-.41.18-.41h5.26c.36,0,.46.26.2.46-1,.78-1,2-1.06,3,0,3.83-.21,7.67.11,11.5a5.22,5.22,0,0,0,5.09,5,10.46,10.46,0,0,0,2.44-.06,5.29,5.29,0,0,0,4.66-5.4c.09-3.84,0-7.68,0-11.52a2.87,2.87,0,0,0-1.1-2.47c-.12-.09-.24-.2-.18-.37s.24-.16.38-.16h4.63c.14,0,.33,0,.35.2a.39.39,0,0,1-.18.28c-1.12.83-1.2,2.05-1.2,3.26,0,3.48,0,7,0,10.43-.06,3.1-1.09,5.75-3.93,7.39a8.6,8.6,0,0,1-3.6,1.11.89.89,0,0,0-.59.19Z"/><path class="cls-2" d="M118,16.1a42.3,42.3,0,0,0,.2-4.79,3.73,3.73,0,0,0-.8-2.27c-.43-.52-.86-.47-1.27,0a3.46,3.46,0,0,0-.74,2,31.92,31.92,0,0,0,.17,4.79c-.32.16-.45-.11-.62-.24a52,52,0,0,1-3.88-3.54c-.65-.64-.89-.56-1.09.33-.06.23-.09.47-.16.71-.55,1.94-.16,3.43,1.78,4.46a24.91,24.91,0,0,1,3.23,2.33,2.1,2.1,0,0,1,.41,2.2c-.31.49-.59.06-.82-.08-2.41-1.56-4.77-3.19-7-5-1.52-1.17-1.58-1.15-1.83.75-.08.69,0,1.39-.13,2.08A2.89,2.89,0,0,0,107.18,23l7.26,3.92a2.43,2.43,0,0,1,.55,2.46c-.24.34-.49.1-.71,0-1.29-.66-2.58-1.32-3.85-2-2.72-1.46-5.42-2.93-8.13-4.4-.87-.47-1-.41-1.14.56a21.06,21.06,0,0,0,0,3.89A2.56,2.56,0,0,0,103,29.64c3.68,1.5,7.36,3,11,4.55a2,2,0,0,1,.63,2.51c-.31.35-.64,0-.91-.08-3.46-1.33-6.93-2.66-10.37-4-2-.79-3.88-1.68-5.81-2.53-.78-.34-.95-.25-1,.61a29.6,29.6,0,0,0,.19,4.71A2.8,2.8,0,0,0,99,37.82c2.34.68,4.7,1.34,7,2,2.62.73,5.24,1.43,7.86,2.14.3.08.65.12.61.53-.06.65.22,1.36-.23,1.92-.19.24-.57,0-.86,0q-10.08-2.57-20.08-5.46l-.7-.2c-.46-.14-.69,0-.68.52a32.86,32.86,0,0,0,.61,6,2.21,2.21,0,0,0,1.9,1.83c3,.48,6,1,8.94,1.43q5,.78,9.93,1.49c.76.11.89.48.84,1.16-.1,1.65-.06,1.62-1.7,1.41-4.79-.6-9.59-1.15-14.38-1.76C95.05,50.41,92,50,89,49.48c-.87-.14-1,.18-.93.9a49.4,49.4,0,0,0,1.19,6.4c.53,1.84,1.17,2.34,3,2.3,4.68-.1,9.36-.24,14-.37,2.27-.06,4.53-.12,6.8-.22.65,0,.83.2.77.84-.18,1.92-.16,1.92-2.12,2l-24,1.45h-.27c-1.41.13-1.48.25-.85,1.53.86,1.73,1.67,3.48,2.57,5.19,1.16,2.2,1.86,2.49,4.32,2.06Q103,70,112.39,68.34c1-.18,1.1-.1,1.08.92,0,1.87,0,1.86-1.82,2.22q-10.92,2.17-21.83,4.38c-.91.19-1,.44-.46,1.22a38.9,38.9,0,0,0,4.58,5.26,3.94,3.94,0,0,0,4.53.74c4.47-1.83,9-3.62,13.43-5.42.22-.09.44-.2.67-.27s.59,0,.56.43c0,.64-.06,1.27,0,1.91s-.38.62-.73.78L99.41,86.16c-.17.07-.34.13-.5.21s-.55.2-.58.52.28.51.54.65a32.48,32.48,0,0,0,4.27,1.76c1.33.48,2.69.88,4,1.36a2.26,2.26,0,0,0,2.29-.37,22.59,22.59,0,0,0,2.6-2.39c.16-.16.28-.48.56-.35s.12.37.12.57c-.14,5.35-.45,10.68-.89,16-.13,1.6-.32,3.19-.37,4.79,0,.75-.31.87-1,.87-5.29,0-10.58,0-15.87,0q-15.06,0-30.13,0c-.36,0-1,.27-1-.33s-.43-1.42.37-1.89c3.3-1.92,4.66-5,5.19-8.59a52.84,52.84,0,0,0,.54-7.85q0-36.37,0-72.75a37.56,37.56,0,0,0-1-9.79,9.94,9.94,0,0,0-4.47-6.14A2.14,2.14,0,0,1,63.44.31a.33.33,0,0,1,.34-.22h.82c16.15,0,32.3-.11,48.45,0,10.76.1,21.23,2,30.94,6.87,14.23,7.18,22.88,18.68,25.68,34.35,2.38,13.27,1,26.2-5,38.41-5.75,11.77-15,19.79-27.06,24.76a70.66,70.66,0,0,1-14.69,4.13c-.55.1-.85,0-.9-.63-.46-6.56-1-13.13-1.13-19.71a1.48,1.48,0,0,1,.26-1,15.51,15.51,0,0,0,1.08,1.3c.6.6,1.23,1.16,1.88,1.7a2.33,2.33,0,0,0,2.37.41c2.42-.77,4.8-1.62,7.15-2.58.33-.14.67-.28,1-.45s.65-.3.64-.69-.4-.49-.69-.62L126,82.59c-1.58-.69-3.15-1.4-4.74-2a1.05,1.05,0,0,1-.76-1.16,6.58,6.58,0,0,0-.06-1.08c-.09-.94.11-1.1,1-.75L132,81.79c1.23.5,2.47,1,3.71,1.45a3.53,3.53,0,0,0,3.86-.78A34.9,34.9,0,0,0,144.3,77c.52-.71.39-1-.48-1.14q-11.31-2.28-22.62-4.55c-.71-.13-1.11-.36-1-1.14a5.62,5.62,0,0,0,0-.82c-.08-1.15,0-1.2,1.09-1l19.17,3.35c1.89.32,2.65,0,3.63-1.62,1.2-2,2.1-4.15,3.13-6.23.3-.59.08-.91-.59-1-1.23-.08-2.47-.19-3.7-.26q-11.13-.68-22.26-1.31c-.55,0-.8-.17-.84-.78-.18-2.5-.23-2.06,1.86-2q9.75.26,19.48.54c2.05,0,2.78-.47,3.31-2.46a61.37,61.37,0,0,0,1.15-6.31c.11-.72-.11-1-.9-.84-7.12,1.16-14.29,2-21.46,2.81l-3.06.36c-.5.06-.7-.1-.71-.63,0-2.18-.37-1.79,1.46-2.08l17.35-2.69c2.15-.33,2.76-1,3-3.18.16-1.5.35-3,.37-4.51,0-1,0-1-.95-.75-6.76,1.93-13.54,3.8-20.35,5.52-1.18.29-1.13.27-1.24-1-.09-1,.25-1.38,1.23-1.63,4.47-1.15,8.91-2.39,13.37-3.61a11.58,11.58,0,0,0,1.36-.48,2.69,2.69,0,0,0,1.8-2.4,34.11,34.11,0,0,0,.19-4.52c-.05-1-.2-1-1.09-.63-5.27,2.43-10.69,4.48-16.11,6.54-.91.35-.91.26-1.06-.74S119,34.37,120,34c3.35-1.3,6.62-2.78,10-4a3.43,3.43,0,0,0,2.58-3.82,23,23,0,0,0-.12-2.62c-.18-1-.24-1-1.11-.58l-7.88,4.28c-1.36.73-2.73,1.43-4.09,2.15-.48.25-.75.27-.8-.42-.1-1.63-.13-1.63,1.35-2.42,2.07-1.11,4.13-2.26,6.22-3.34,1.46-.76,2.31-1.8,2.07-3.54-.12-.84-.11-1.69-.21-2.53s-.46-1-1.19-.46c-2.43,1.9-5,3.65-7.55,5.34-.83.54-.87.49-1-.48a1.67,1.67,0,0,1,.81-1.83c1.37-.93,2.68-2,4-2.92a1.93,1.93,0,0,0,.92-2c-.12-.77-.23-1.55-.37-2.32-.06-.28-.09-.66-.42-.75s-.47.23-.66.41A52.25,52.25,0,0,1,118,16.1Z"/><path class="cls-2" d="M91.51,166.36c1.89-1.33,1.72-3.43,2-5.32.81-5.4,1.55-10.81,2.33-16.21.05-.35-.07-.85.56-.83s1.1-.12,1.43.6c1.47,3.11,3,6.2,4.49,9.29q1.65,3.42,3.32,6.84a3.86,3.86,0,0,0,.29.41c.6-1.23,1.17-2.37,1.73-3.51,2.09-4.32,4.2-8.62,6.25-13,.35-.76.88-.7,1.47-.66s.53.61.59,1l2.28,16.68c.11.84.26,1.67.41,2.5a2.89,2.89,0,0,0,.94,1.8c.21.17.51.51,0,.53-1.88.05-3.76,0-5.72-.07,1.56-1.18,1.11-2.72.93-4.2l-1.14-9.71c0-.29-.12-.58-.23-1.11-.82,1.62-1.55,3.06-2.26,4.5-1.59,3.22-3.19,6.44-4.76,9.66-.22.44-.43.73-1,.73s-.77-.27-1-.72q-3.2-6.56-6.41-13.08c-.14-.28-.18-.65-.63-.83-.21,1.51-.41,3-.61,4.47-.29,2.12-.6,4.24-.83,6.37-.13,1.26-.47,2.61.84,3.57.29.21.18.43-.18.44h-5Z"/><path class="cls-2" d="M199.69,155.43c0-2.56,0-5.13,0-7.7a3.43,3.43,0,0,0-1-3c-.33-.26-.25-.48.17-.48H204c.33,0,.51.23.23.44-1.24,1-1,2.41-1.07,3.69-.11,1.59,0,3.2,0,4.8,0,.6.22.78.8.77q5.72,0,11.43,0c.56,0,.71-.19.71-.73,0-2,0-4,0-6a2.87,2.87,0,0,0-.95-2.44c-.12-.1-.23-.21-.18-.38s.29-.17.46-.17h4.9c.17,0,.39-.05.46.18s-.08.27-.2.37a2.75,2.75,0,0,0-.93,2.26q-.12,8.34,0,16.68a2.75,2.75,0,0,0,.93,2.26c.13.1.25.21.21.37s-.3.17-.46.17h-4.9c-.17,0-.39.07-.47-.15s.11-.32.24-.44a2.55,2.55,0,0,0,.87-2c0-2.32,0-4.65,0-7,0-.5-.23-.59-.66-.59-3.87,0-7.74,0-11.61,0-.53,0-.67.22-.66.7,0,2.3-.09,4.59.12,6.89a2.75,2.75,0,0,0,.86,2c.13.11.31.23.21.44s-.32.13-.48.13h-4.9c-.17,0-.39.06-.45-.17a.41.41,0,0,1,.15-.3c1-.75,1-1.86,1.05-3C199.71,160.57,199.69,158,199.69,155.43Z"/><path class="cls-2" d="M61.16,156.7c3.47,2.79,5.19,7,8.71,9.76a22.22,22.22,0,0,1-4.54,0c-.56-.08-.89-.59-1.22-1l-4.72-6.32c-.67-.9-1.4-1.68-2.69-1.46-.48.09-.59-.3-.76-.62-.86-1.66-.86-1.67,1-1.66a8.7,8.7,0,0,0,2.16-.2,4.17,4.17,0,0,0,3.24-4.6,3.93,3.93,0,0,0-3.86-3.93c-1.29-.13-2.6-.06-3.9-.09-.59,0-.6.35-.6.77,0,1.6,0,3.21,0,4.81,0,3.29,0,6.59,0,9.88,0,1.46-.15,3,1.11,4.14.2.19.11.4-.2.4H49.61c-.38,0-.44-.22-.18-.44,1-.89,1.07-2.14,1.08-3.33q0-7.35,0-14.69c0-1.23,0-2.5-1.11-3.41-.17-.14-.15-.32.1-.39a.55.55,0,0,1,.18,0c3.71.12,7.45-.38,11.12.37,3.17.65,4.92,2.54,5.09,5.21.22,3.36-1.07,5.4-4.25,6.66Z"/><path class="cls-2" d="M45.48,166.56H39.53c-.14,0-.33.05-.39-.14s.06-.27.19-.36a1.62,1.62,0,0,0,.52-2.09c-.37-1.22-1-2.34-1.44-3.52a.71.71,0,0,0-.76-.48H29.49a.71.71,0,0,0-.76.49c-.45,1.09-.94,2.16-1.34,3.26-.33.89-.44,1.79.6,2.36.14.08.26.2.17.36a.44.44,0,0,1-.31.12H23c-.11,0-.26,0-.31-.12s.05-.28.18-.36a6,6,0,0,0,2-2.87Q29,154,33.12,144.83c.19-.44.33-.85,1-.86s.85.42,1.06.89q4,8.91,8,17.82c.61,1.33,1.11,2.75,2.4,3.66Zm-11.91-17.1-3.38,7.7c-.21.48,0,.57.45.57H35c2.21,0,2.22,0,1.35-2S34.57,151.72,33.57,149.46Z"/><path class="cls-2" d="M186.38,155.43c0,2.57,0,5.14,0,7.71a3.28,3.28,0,0,0,1.14,2.91c.13.1.24.22.15.38a.43.43,0,0,1-.3.12h-5.44c-.15,0-.33,0-.37-.17s.08-.27.21-.37a2.84,2.84,0,0,0,1.05-2.48q0-8.11,0-16.23c0-.49-.13-.73-.67-.71-1.38.06-2.77-.06-4.16.12a4,4,0,0,0-2.73,1.24c-.14.16-.3.36-.53.21s-.06-.33,0-.5c.15-1,.31-2,.46-3,.06-.46.21-.61.76-.58a142.65,142.65,0,0,0,17.3,0c.49,0,.69,0,.75.55.11,1,.32,2,.47,2.95,0,.21.18.51-.1.64s-.38-.13-.51-.28a4.46,4.46,0,0,0-3.39-1.25c-1.14-.07-2.3,0-3.44-.05-.6,0-.7.25-.69.76q0,4,0,8.07Z"/><path class="cls-2" d="M81.85,155.54c0,2.63,0,5.26,0,7.89A3,3,0,0,0,82.9,166c.13.1.25.21.21.37s-.28.18-.45.18H77.4c-.14,0-.32.05-.4-.12s.08-.33.22-.43a2.89,2.89,0,0,0,1.06-2.49c0-5.41,0-10.82,0-16.23,0-.41,0-.71-.57-.69-1.42.06-2.84-.06-4.26.12A4.06,4.06,0,0,0,70.75,148c-.11.14-.23.32-.44.24s-.16-.36-.13-.55c.16-1,.35-2.08.49-3.13.06-.43.24-.51.67-.49a135.79,135.79,0,0,0,17.47,0c.45,0,.6.12.66.51.16,1.08.33,2.15.5,3.22,0,.15.07.32-.07.42s-.35,0-.47-.14c-1-1.26-2.45-1.32-3.87-1.4-1-.06-2,0-3,0-.59,0-.78.19-.77.78,0,2.72,0,5.44,0,8.16Z"/></g></g></svg>