<svg xmlns="http://www.w3.org/2000/svg" viewBox="0 0 275.08 165.43"><defs><style>.cls-1{fill:#fff;}.cls-2{fill:none;stroke:#fff;stroke-miterlimit:10;stroke-width:0.1px;}</style></defs><g id="Layer_2" data-name="Layer 2"><g id="Layer_1-2" data-name="Layer 1"><path d="M104.12,165.38c-.37-.39-.9-.27-1.34-.41a5.69,5.69,0,0,1-4.4-5.71c0-3.08,0-6.15,0-9.23,0-1.31.26-2.82-1.7-3.18-.46-.09-.22-.69-.25-1.06s.27-.51.63-.51c2.44,0,4.87,0,7.31,0,.56,0,.66.29.64.75s.08.89-.61.91a1.71,1.71,0,0,0-1.85,1.89c0,3.51-.21,7,.09,10.53.21,2.3,1.48,3.31,3.87,3.33s3.9-1.06,4.07-3.19a103.67,103.67,0,0,0,0-11A1.5,1.5,0,0,0,109,147c-.84,0-.81-.49-.82-1.09,0-.83.59-.6,1-.6,2,0,4,0,6,0,.41,0,1-.14.94.57,0,.49.16,1-.66,1.12-1.23.18-1.37,1.2-1.38,2.2,0,2.75,0,5.51,0,8.26a19.22,19.22,0,0,1-.22,2.74,5.55,5.55,0,0,1-4.57,4.91c-.3.08-.65,0-.87.3Z"/><path d="M.05,149.08c1.16-3.42,3.91-4.35,7.12-4.51a26.61,26.61,0,0,1,6.65.69c.64.12.86.39.83,1,0,1.24,0,2.48,0,3.71,0,.63-.11,1-.84.92-.55-.08-1.33.33-1.36-.79a3,3,0,0,0-2-3.08,5,5,0,0,0-5,.57A2.57,2.57,0,0,0,6,152c1.49.75,3.08,1.31,4.63,1.95a11.49,11.49,0,0,1,2.53,1.32,5.29,5.29,0,0,1-.59,8.84,10.39,10.39,0,0,1-5,1.11,37.88,37.88,0,0,1-7.59-.77v-5.51c.32,0,.64,0,1,0,1-.14,1.49.11,1.57,1.26A3,3,0,0,0,5,162.86a7.8,7.8,0,0,0,2.72.18,2.87,2.87,0,0,0,3-2.4c.25-1.43-.33-2.44-1.92-3.18s-3-1.29-4.49-1.94a7.09,7.09,0,0,1-4.28-4Z"/><path d="M215.86,165.38c-1.24-.24-2.48-.5-3.73-.7-.54-.08-.75-.3-.74-.84,0-1.32,0-2.64,0-4,0-.79.47-.84,1-.77s1.28-.37,1.29.71a3,3,0,0,0,2.19,3.1c1.71.54,3.5.72,5-.5a2.67,2.67,0,0,0-.43-4.37,42,42,0,0,0-3.92-1.79,17.07,17.07,0,0,1-3-1.52,5,5,0,0,1,.55-8.76,8.68,8.68,0,0,1,3.33-.92,24.1,24.1,0,0,1,7.37.64c.57.13.82.34.81.94,0,1.28-.05,2.56,0,3.83,0,.94-.61.76-1.13.76s-1.15.22-1.11-.75a2.78,2.78,0,0,0-2.11-3.09c-1.74-.48-3.51-.6-4.93.83a2.46,2.46,0,0,0,.62,4c1.22.67,2.55,1.14,3.83,1.69.73.31,1.49.57,2.2.93,2.47,1.26,3.43,3,3.15,5.62a5.31,5.31,0,0,1-4.13,4.46,6.35,6.35,0,0,0-1.83.49Z"/><path d="M114.72,41.88V54.94c0,.32,0,.64,0,1,.15,4.29,1.63,5.8,5.93,5.92.7,0,1,.18,1,.93-.06,1.48-.07,3,0,4.44,0,.86-.35,1.12-1.09,1.18a150,150,0,0,0-18.39,2.88q-4.86,1-9.61,2.44c-.87.26-1.1.1-1.09-.81,0-3.35,0-6.71,0-10.06,0-.8.23-1,1-1a8.69,8.69,0,0,0,1.9-.19,3.89,3.89,0,0,0,3.53-3.52,17.08,17.08,0,0,0,.25-2.86q0-19.41,0-38.82a17.15,17.15,0,0,0-.13-2c-.42-3.26-1.7-4.52-5-4.54-1.38,0-1.63-.44-1.57-1.69.1-2.31.08-4.63,0-6.94,0-1,.32-1.18,1.22-1.18q12.83,0,25.65,0a1.61,1.61,0,0,1,1.65,1q8.24,15.87,16.52,31.73c.11.21.21.43.34.63.59,1,1.21,1,1.76,0,1-1.86,2-3.74,3-5.61q7-13.39,14.06-26.81a1.43,1.43,0,0,1,1.47-.91q12.88,0,25.77,0c.9,0,1.16.25,1.14,1.14-.07,2.56-.05,5.12,0,7.67,0,.72-.18,1.06-.93,1a3,3,0,0,0-.6,0c-3.5.13-5,1.58-5.17,5.09,0,.56,0,1.12,0,1.68V55.05c0,.55,0,1.12,0,1.67.2,3.45,1.63,4.89,5.06,5.11,1.61.1,1.62.1,1.62,1.69,0,2.88,0,5.76,0,8.63,0,.85-.14,1.13-1.08.87a139.88,139.88,0,0,0-18.34-3.83,89.8,89.8,0,0,0-9.26-1c-1,0-1.62-.29-1.51-1.52a34.87,34.87,0,0,0,0-4c0-.58.12-.82.78-.86,4.92-.29,6.1-1.57,6.1-6.53,0-9,0-18,0-27,0-.77.42-1.83-.74-2.14s-1.74.5-2.26,1.37q-7.33,12.5-14.68,25c-1.38,2.34-2.74,4.69-4.11,7-.91,1.54-1.49,1.53-2.41-.05L117.77,27.72a5,5,0,0,0-.66-1,1.58,1.58,0,0,0-1.73-.5c-.68.25-.66.83-.66,1.4Z"/><path d="M195.48,134c-4.91,0-9.83,0-14.74,0-1,0-1.39-.28-1.25-1.27a5.57,5.57,0,0,0,0-1.08c0-.55.15-.84.74-.78h.12c3.69-.46,4.36-1.52,3.22-5.12-1.07-3.35-1.07-3.35-4.6-3.35-3.16,0-6.32,0-9.47,0-.83,0-1.32.15-1.53,1.07-.3,1.31-.83,2.58-1.16,3.89-.49,2,.25,3,2.29,3.35l.11,0c1.91.29,2.19.73,1.85,2.71-.13.78-.67.55-1.09.55-4,0-8,0-12,0h-.84c-2.29,0-2.45-.18-2.12-2.5,0-.3.07-.52.43-.6,2.1-.44,3.06-2.06,3.82-3.81,1.07-2.49,2.06-5,3.07-7.53,2.81-7.08,5.63-14.15,8.41-21.24a1.22,1.22,0,0,1,1.37-1c2.6.05,5.2.06,7.79,0,.85,0,1.15.3,1.43,1q5.22,13.75,10.5,27.49a13.24,13.24,0,0,0,1.65,3.3,4.18,4.18,0,0,0,4.57,1.57,2.85,2.85,0,0,0,2.2-2.27,10,10,0,0,0,.25-2.26q0-10.49,0-21a9.72,9.72,0,0,0-.08-1.43c-.34-2.31-1.08-3.07-3.39-3.26-1.19-.11-1.13.22-1.15-2.37,0-1.11.75-.8,1.32-.8,4.11,0,8.23,0,12.34,0a1.48,1.48,0,0,1,1.6,1q5.78,12.42,11.6,24.82c.17.36.33.73.52,1.08s.42.73.91.59.55-.53.55-.95c0-2.16,0-4.32-.06-6.47-.05-4.43-.07-8.87-.16-13.3-.06-2.49-.92-3.45-3.35-3.61-1-.06-1.27-.39-1.15-1.28a4.4,4.4,0,0,0,0-1c-.08-.71.17-1,.94-.94,4.55.22,9.1.21,13.65,0,.67,0,1,.15.88.85a2.49,2.49,0,0,0,0,.72c.16,1.08-.13,1.58-1.39,1.67-2.23.15-3.11,1.32-3.14,3.84,0,2.87,0,5.75,0,8.62,0,6.56,0,13.11,0,19.66,0,1.09-.32,1.32-1.34,1.3-2.64-.07-5.28-.05-7.92,0a1.38,1.38,0,0,1-1.44-.91q-5.91-12.11-11.88-24.16c-.23-.48-.36-1.21-1.1-1s-.59.85-.59,1.4q0,8.51.09,17a11.45,11.45,0,0,0,.14,1.55c.24,2,1.22,3,3.18,3,1,0,1.37.33,1.23,1.3a2.81,2.81,0,0,0,0,.71c.13.91-.25,1.15-1.14,1.14C205.31,134,200.39,134,195.48,134Zm-20-16.13v0c1.43,0,2.87,0,4.3,0,.77,0,1-.2.76-1q-2.1-6.34-4.16-12.7c-.14-.43-.3-.88-.83-.87s-.66.48-.81.9c-1.48,4.2-3,8.41-4.47,12.59-.27.76-.06,1,.67,1Z"/><path d="M12,118.51c0,2.72,0,5.43,0,8.15s.91,4.34,3.89,4.23c.54,0,.65.22.68.71.17,2.43.18,2.39-2.23,2.37-4.07,0-8.15,0-12.23,0-1,0-1.42-.2-1.26-1.24a5.47,5.47,0,0,0,0-1.07c0-.53.11-.82.72-.8,2.58.08,3.73-1.12,3.79-4q.15-7.61.29-15.21c0-2,.1-4,.15-6a11,11,0,0,0-.17-2.5,2.89,2.89,0,0,0-2.79-2.65c-.53-.07-1.31.14-1.52-.39a4.44,4.44,0,0,1-.05-2.48c.11-.52.67-.32,1-.32,3,0,5.91.08,8.87.09,1.35,0,2.71,0,4.07-.11a1.24,1.24,0,0,1,1.4.93c2.25,5.11,4.55,10.2,6.83,15.3.21.45.29,1.08,1,1.09s.77-.62,1-1.07q3.72-7.71,7.38-15.43a1.2,1.2,0,0,1,1.33-.86,114.58,114.58,0,0,0,12.57,0c.9,0,1.28.21,1.14,1.12a2.41,2.41,0,0,0,0,.6c.13,1-.16,1.42-1.32,1.49-2.38.14-3.3,1.28-3.28,3.94,0,4.39.13,8.78.21,13.17.06,3.16.1,6.31.23,9.46.11,2.77.94,3.57,3.71,3.75.53,0,.76.14.81.74C48.35,134,48.37,134,46,134c-4.2,0-8.39,0-12.59,0-1,0-1.3-.29-1.17-1.21a2.17,2.17,0,0,0,0-.72c-.14-.94.23-1.22,1.18-1.22,2.11,0,3.1-1,3.36-3.11a64.29,64.29,0,0,0,.12-6.94c0-3.68,0-7.36,0-11,0-.51.12-1.18-.47-1.36s-.93.49-1.19,1q-4.8,8.76-9.58,17.54a6.51,6.51,0,0,1-.41.73c-.57.89-1.16.92-1.7,0-.69-1.17-1.32-2.37-2-3.56-2.58-4.73-5.15-9.46-7.75-14.18-.31-.56-.53-1.5-1.33-1.31s-.49,1.14-.5,1.76C12,113.08,12,115.79,12,118.51Z"/><path d="M92.82,134c-2.23,0-4.47,0-6.71,0-.8,0-1.22-.18-1.09-1.05a2,2,0,0,0,0-.6c-.17-1.08.14-1.52,1.37-1.52,1.88,0,2.87-1,3.14-2.95a.5.5,0,0,0,0-.12q.35-12,0-24c-.07-2.29-1-3.11-3.32-3.27-1-.07-1.35-.4-1.21-1.36a5.46,5.46,0,0,0,0-1.07c0-.56.18-.77.76-.77q6.7,0,13.42,0c.79,0,.87.57,1.1,1q5.79,12.35,11.57,24.71a5.2,5.2,0,0,0,.26.53c.32.5.35,1.43,1.21,1.21s.56-1,.55-1.55q-.06-9.16-.15-18.33a11.72,11.72,0,0,0,0-1.19c-.27-2.2-1.07-3.11-3.27-3.22-1.13-.06-1.37-.47-1.24-1.43a2.17,2.17,0,0,0,0-.72c-.1-.81.15-1.09,1-1,2.55.12,5.11.14,7.66.14,2,0,3.92,0,5.87-.14.68,0,1,.17.9.86a2.41,2.41,0,0,0,0,.71c.19,1.14-.21,1.58-1.42,1.67-2.13.17-3,1.25-3.07,3.5-.07,3.68-.06,7.35-.07,11,0,5.91,0,11.82,0,17.73,0,.89-.22,1.18-1.14,1.16q-4-.09-8,0a1.45,1.45,0,0,1-1.53-1q-5.85-11.85-11.77-23.68c-.12-.25-.25-.5-.38-.75-.19-.41-.4-.86-1-.71s-.6.58-.6,1.06l.06,5c.06,4.07.11,8.14.19,12.21a12.22,12.22,0,0,0,.17,1.91,2.88,2.88,0,0,0,3.16,2.76c1,0,1.37.32,1.22,1.29a2,2,0,0,0,0,.59c.15,1-.2,1.32-1.23,1.27C97.14,133.91,95,134,92.82,134Z"/><path d="M85.22,115.8a22.61,22.61,0,0,1-1.07,7.68A16,16,0,0,1,70,134.69a26,26,0,0,1-9.27-.58,15.3,15.3,0,0,1-11.39-11.34,26,26,0,0,1,.1-14.53c1.95-6.51,6.45-10.2,13-11.35a23.4,23.4,0,0,1,11,.54c6.73,2.06,10.21,6.87,11.39,13.6A25.63,25.63,0,0,1,85.22,115.8ZM65.67,130.15c5.46,0,8.48-2.35,10-6.78a23.33,23.33,0,0,0,1.07-7.31c0-3.48-.24-6.94-1.84-10.14a8.38,8.38,0,0,0-8-5,8.37,8.37,0,0,0-7.94,4.82,19.17,19.17,0,0,0-1.88,8.32c-.12,3.7.06,7.35,1.66,10.78S63,130.11,65.67,130.15Z"/><path d="M266.33,134c-2.47,0-4.95,0-7.43,0-.9,0-1.26-.25-1.13-1.14a1.29,1.29,0,0,0,0-.48c-.18-1.06.14-1.65,1.34-1.6a4.3,4.3,0,0,0,1.52-.31,2.21,2.21,0,0,0,1.66-2.67,30.1,30.1,0,0,0-1.38-4.82.79.79,0,0,0-.9-.59c-4.23,0-8.47,0-12.7,0-.45,0-.76.1-.9.58-.45,1.48-1,2.94-1.36,4.45-.46,2,.26,3,2.25,3.26s2.1.33,1.95,2.52c0,.54-.18.78-.76.78-4.8,0-9.59,0-14.38,0-.55,0-.83-.17-.79-.75a6.49,6.49,0,0,0,0-1.08,1.19,1.19,0,0,1,1-1.52,4.79,4.79,0,0,0,2.95-3.11c1.23-2.85,2.39-5.74,3.54-8.63q4.1-10.27,8.15-20.56a1.3,1.3,0,0,1,1.47-1c2.43.06,4.87.08,7.31,0a1.7,1.7,0,0,1,2,1.32c3.4,9,6.87,18,10.31,27a17.75,17.75,0,0,0,1.41,3,3.62,3.62,0,0,0,2.24,1.88c1.11.22,1.2.82,1.17,1.75-.07,1.67,0,1.65-1.68,1.63-2.28,0-4.55,0-6.83,0ZM248.27,117.5c0,.48.46.36.78.36,3,0,6,0,9,0,1,0,.93-.37.7-1.08-1.34-4.08-2.66-8.18-4-12.26-.16-.51-.2-1.22-.94-1.21s-.7.67-.87,1.14q-2.21,6.12-4.4,12.25C248.44,117,248.37,117.19,248.27,117.5Z"/><path d="M147,115v11.5a6.28,6.28,0,0,0,.35,2.47c.61,1.48,1.86,1.83,3.31,1.87.46,0,1.21-.32,1.35.32a5.41,5.41,0,0,1,0,2.59c-.08.29-.5.18-.77.18H134.64c-.61,0-.89-.19-.84-.82a3.47,3.47,0,0,0,0-.72c-.18-1.19.2-1.66,1.52-1.61,2.08.09,3.06-.84,3.4-2.9a12.2,12.2,0,0,0,.17-1.9c0-7.67,0-15.33,0-23,0-1-.26-1.35-1.27-1.27s-2.32,0-3.47.08c-2.52.14-3.76,1.39-3.94,3.91a1.93,1.93,0,0,1,0,.24c-.12.77.39,1.91-.26,2.23s-1.87.13-2.83.15c-.55,0-.64-.32-.64-.78,0-3.15,0-6.31,0-9.46,0-.91.54-.79,1.1-.79,6.94,0,13.89.13,20.84.14,3.27,0,6.54-.07,9.81-.15.78,0,1,.19,1,1,0,3,0,6.07,0,9.1,0,.72-.2,1-.93,1-2.86.08-2.85.11-3.09-2.69-.21-2.54-1.4-3.73-4-3.87-1.08-.06-2.16,0-3.23-.08s-1.11.35-1.1,1.18C147,107,147,111,147,115Z"/><path d="M134.76,145.33H138c.42,0,.94-.18.89.57,0,.48.16,1-.65,1.13-1.47.27-1.77.7-1.77,2.21,0,4.91,0,9.82,0,14.73,0,.95-.26,1.25-1.2,1.18a28.8,28.8,0,0,0-3.35,0,1.32,1.32,0,0,1-1.45-.91c-2-4.27-4-8.52-6-12.78a5.36,5.36,0,0,0-.26-.54c-.14-.22-.21-.58-.55-.54s-.39.44-.39.75c0,2.24,0,4.47,0,6.71,0,1.12,0,2.23,0,3.35.07,1.56.37,2,1.89,2.25.78.14.56.61.6,1.05s-.3.63-.75.62q-3.42,0-6.83,0c-.46,0-.81-.05-.76-.62s-.17-.91.6-1.05c1.47-.28,1.83-.78,1.84-2.31,0-3.95,0-7.9,0-11.85,0-1.2-.37-2.16-1.75-2.26-.8-.06-.68-.59-.7-1.11,0-.68.43-.63.88-.63,2,0,4.07,0,6.11,0a1.25,1.25,0,0,1,1.35.85c2,4.31,4,8.59,6,12.89.08.18.16.36.25.54s.24.68.65.56.3-.52.31-.82q0-1.68,0-3.36c0-2.15-.06-4.3-.11-6.46,0-1.78-.2-2.05-1.91-2.46-.78-.18-.46-.69-.52-1.1-.09-.61.31-.59.74-.58C132.44,145.34,133.6,145.33,134.76,145.33Z"/><path d="M204.65,155.14a3,3,0,0,1,2.15,2.39c.31,1.16.6,2.32.91,3.47a2.59,2.59,0,0,0,1.31,1.91c.85.36.65,1,.56,1.62s-.72.33-1.1.35c-1,0-1.92,0-2.87,0-.79.06-1.1-.27-1.34-1-.55-1.63-.8-3.33-1.23-5a3.54,3.54,0,0,0-4.55-2.71c-.45.11-.45.38-.45.7,0,1.48,0,2.95,0,4.43,0,1.12.55,1.85,1.72,1.87.74,0,.69.42.71.92s-.2.76-.76.75c-2.59,0-5.19,0-7.78,0-.51,0-.75-.2-.7-.71s-.18-.93.56-.94c1.59,0,1.92-1,1.93-2.45,0-3.27,0-6.54,0-9.82,0-.55,0-1.11,0-1.67-.06-1.63-.34-2-1.91-2.36-.68-.14-.55-.54-.58-.95s.13-.74.67-.72c3.67.1,7.35-.26,11,.25s5.54,3.15,4.54,6.62C207.11,153.38,206.65,153.87,204.65,155.14ZM198,150.85v.83c0,2.68.28,2.91,3,2.39a2.74,2.74,0,0,0,2.47-2.08c.63-2.56-.57-4.2-3.24-4.36-2.2-.13-2.2-.13-2.2,2Z"/><path d="M48.44,164.89c-1.24,0-2.48,0-3.72,0-.53,0-.83-.12-.79-.73s-.06-.86.67-1c1.8-.32,2-.81,1.55-2.55-.72-2.47-.72-2.47-3.33-2.47-1.32,0-2.64,0-4,0a1,1,0,0,0-1.12.79c-.18.7-.44,1.37-.63,2.06-.39,1.39-.07,2,1.34,2.16.87.09.91.49.89,1.15,0,.83-.62.58-1,.58-2.16,0-4.31,0-6.47,0-.33,0-.81.17-.87-.35s-.29-1,.24-1.31c1.31-.68,1.71-1.95,2.2-3.16,1.84-4.59,3.69-9.17,5.46-13.78.37-1,.86-1.32,1.83-1.2a13.52,13.52,0,0,0,1.56,0c2.42,0,2.42,0,3.3,2.31q2.51,6.54,5,13.06c.43,1.13.86,2.25,2.14,2.72.63.23.35.82.35,1.25s-.45.46-.79.46C51,164.9,49.71,164.89,48.44,164.89ZM41.6,155.8c.64,0,1.28,0,1.91,0s1-.13.7-.87c-.66-2-1.28-3.93-1.92-5.9-.09-.29-.13-.68-.56-.66s-.37.36-.47.62c-.49,1.39-1,2.77-1.48,4.16C38.85,155.8,38.85,155.8,41.6,155.8Z"/><path d="M77.14,164.89H70.07c-.49,0-1,.07-.94-.7,0-.56,0-1,.78-1a1.59,1.59,0,0,0,1.65-1.8c0-4.2,0-8.39,0-12.58A1.68,1.68,0,0,0,69.83,147c-.72,0-.67-.45-.7-1,0-.66.35-.68.84-.68,4.79,0,9.58,0,14.38,0,.64,0,.82.24.8.85,0,1.28-.05,2.55,0,3.83,0,.73-.36.74-.89.73s-1,.06-1-.76c0-1.58-.6-2.18-2.16-2.29s-3,0-4.55-.07c-.53,0-.69.25-.68.73V153c0,.27,0,.55.28.73,1.09.67,3.4-.34,3.48-1.63.07-.94.56-.85,1.18-.87s.67.49.67,1c0,1.75,0,3.51,0,5.27,0,.58-.14.9-.8.87s-1,0-1-.75a2.53,2.53,0,0,0-3.4-1.79c-.39.17-.37.49-.37.8,0,1.75,0,3.51,0,5.27,0,.64.3.83.88.81,1.28,0,2.56,0,3.83-.11,2.15-.16,2.63-.61,2.87-2.73.08-.72.15-1.19,1.07-1.12s.69.72.7,1.22c0,1.36,0,2.72,0,4.07,0,.68-.24.89-.9.89C81.93,164.88,79.53,164.89,77.14,164.89Z"/><path d="M180.4,164.89h-7.07c-.45,0-.9,0-.87-.65,0-.52-.09-1,.74-1,1.19,0,1.64-.9,1.65-2q0-6.16,0-12.33a1.73,1.73,0,0,0-1.68-2c-.71-.05-.7-.44-.71-.95s.34-.69.83-.69c4.72,0,9.43,0,14.14,0,.67,0,.93.22.91.9,0,1.23,0,2.47,0,3.71,0,.64-.24.82-.85.81s-.92-.09-1-.82c-.08-1.56-.57-2.1-2.1-2.22s-3.11-.06-4.67-.09c-.46,0-.63.19-.62.64,0,1.63,0,3.27,0,4.91,0,.23,0,.46.27.61,1.06.58,3.28-.35,3.47-1.56.13-.82.46-1.06,1.24-1s.54.76.55,1.18c0,1.68,0,3.36,0,5,0,.45.06.92-.63.9-.51,0-1,.09-1.13-.68a2.53,2.53,0,0,0-3.36-1.88c-.44.13-.42.42-.42.73,0,1.8,0,3.59,0,5.39,0,.56.2.79.76.79a38.3,38.3,0,0,0,4.67-.16c1.42-.2,2-.88,2.09-2.71,0-.81.27-1.15,1.12-1.09.57,0,.76.23.76.78,0,1.48-.05,3,0,4.44,0,.73-.2,1-.94.95C185.19,164.87,182.79,164.9,180.4,164.89Z"/><path d="M155.12,145.25c1.12,0,2.24,0,3.35,0,.53,0,.85.1.8.72,0,.47.09.89-.67,1-1.77.21-1.92.51-1.35,2.16,1.2,3.5,2.42,7,3.63,10.51.12.35.11.9.63.88s.46-.51.57-.84c1.17-3.51,2.34-7,3.48-10.56.47-1.43.17-2-1.27-2.14-.81-.08-.88-.42-.87-1.06,0-.79.55-.64,1-.64,2,0,4.07,0,6.11,0,.34,0,.9-.23.9.43,0,.46.32,1.07-.4,1.33a3,3,0,0,0-1.71,2.17c-1.76,5-3.55,9.9-5.27,14.87a1.41,1.41,0,0,1-1.61,1.14c-3.44,0-3.45,0-4.66-3.27-1.59-4.26-3.16-8.52-4.75-12.77-.33-.9-.66-1.82-1.68-2.2-.66-.24-.37-.81-.37-1.24,0-.63.53-.46.89-.46,1.08,0,2.16,0,3.24,0Z"/><path d="M265.59,164.89h-3.71c-.49,0-1,.06-.94-.7,0-.58,0-1,.8-1,1.24,0,1.8-.72,1.83-1.89s0-2.63,0-3.95a2.29,2.29,0,0,0-.44-1.22l-3.95-6.84a4.18,4.18,0,0,0-2.42-2.35c-.68-.18-.4-.77-.42-1.21s.39-.5.75-.5h6.71c.36,0,.78,0,.75.51s.28,1-.46,1.15c-1.27.25-1.27,1-.79,2l2,4.08c.36.73.75.79,1.14,0,.71-1.39,1.45-2.76,2.1-4.17.37-.82.33-1.64-.78-1.84-.82-.14-.56-.72-.59-1.18,0-.65.45-.54.83-.54h6.11c.37,0,.88-.14.86.5,0,.43.26,1-.45,1.19a3.37,3.37,0,0,0-1.9,1.73l-4.7,7.66a2.22,2.22,0,0,0-.37,1.23c0,1.12,0,2.24,0,3.35.07,1.86.21,2,2,2.29.69.09.57.49.6.91s-.11.76-.66.75C268.23,164.88,266.91,164.89,265.59,164.89Z"/><path d="M59.38,145.28c2.6,0,5.19,0,7.78,0,.8,0,1,.25,1,1-.06,1.23,0,2.47,0,3.71,0,.63-.11,1-.84.93-.57-.06-1.19.18-1.3-.78a3,3,0,0,0-4-2.52c-.44.14-.37.46-.37.75,0,4.31,0,8.62,0,12.93,0,1.36.51,1.86,1.9,1.93.65,0,.78.26.79.85s-.19.83-.82.83c-2.59,0-5.19,0-7.78,0-.44,0-.82-.05-.78-.63s-.2-1,.6-1c1.26-.08,1.68-.93,1.68-2.05,0-4.23,0-8.46,0-12.69,0-.66-.17-1-.87-.9-.39.05-.8,0-1.19,0-1.83.09-2.44.61-2.56,2.45-.05.84-.46.82-1.06.85s-.91-.24-.89-.91c0-1.27,0-2.55,0-3.82,0-.76.24-.94,1-.93C54.19,145.3,56.79,145.28,59.38,145.28Z"/><path d="M247.07,145.28c2.55,0,5.11,0,7.67,0,.8,0,1.15.17,1.1,1.05-.07,1.23,0,2.47,0,3.71,0,.68-.32.84-.89.78s-1.08.24-1.24-.67c-.38-2.17-1.69-2.93-4-2.53-.51.09-.54.37-.54.75,0,4.31,0,8.62,0,12.94,0,1.33.55,1.84,1.92,1.94.7.05.75.37.76.91s-.22.77-.78.76c-2.72,0-5.43,0-8.15,0-.56,0-.79-.19-.78-.76s.06-.86.76-.91c1.41-.1,1.92-.64,1.93-2.06,0-4.23,0-8.46,0-12.7,0-.69-.24-.93-.91-.87-.51.05-1,0-1.55.05-1.44.13-2.05.66-2.13,2.08-.05.91-.4,1.12-1.24,1.1-1,0-.8-.67-.81-1.23,0-1,.06-2,0-3s.17-1.39,1.29-1.35C242,145.35,244.55,145.28,247.07,145.28Z"/><path d="M26.72,154.73c0,2,0,3.91,0,5.87s.22,2.2,2.1,2.65c.72.17.38.67.44,1,.1.59-.32.61-.75.61-2,0-3.91,0-5.87,0-.6,0-1.2,0-1.8,0s-1.13.22-1.14-.73c0-.78.28-.92,1-.93a1.61,1.61,0,0,0,1.7-1.76c0-4.39.05-8.78.06-13.17,0-.32,0-.68-.46-.68a8,8,0,0,0-3,.24,2,2,0,0,0-1.2,2.14c0,.9-.44.92-1.11.93s-.9-.28-.88-.93c0-1.27,0-2.55,0-3.83,0-.65.17-.91.88-.9q7.89,0,15.8,0c.57,0,.88.1.86.78,0,1.35,0,2.71,0,4.06,0,.79-.39.85-1,.8s-1.09.24-1.16-.72a3,3,0,0,0-4.12-2.57c-.54.2-.38.65-.38,1C26.71,150.66,26.72,152.7,26.72,154.73Z"/><path d="M143.21,155c0-1.91,0-3.83,0-5.74,0-1.54-.33-2-1.82-2.31-.75-.15-.58-.6-.62-1.05s.3-.64.76-.63h7.65c.46,0,.8.06.74.63s.17.9-.6,1.05c-1.52.3-1.81.72-1.82,2.3,0,3.91,0,7.81,0,11.72,0,1.56.33,2,1.86,2.25.71.12.52.55.56.94s-.12.73-.66.73c-2.59,0-5.19,0-7.78,0-.5,0-.75-.19-.7-.7s-.17-.83.54-1c1.55-.29,1.88-.74,1.9-2.36C143.23,158.92,143.21,157,143.21,155Z"/><path d="M232.41,145.28h3.83c.45,0,.81,0,.77.62s.15.9-.6,1c-1.51.32-1.83.77-1.84,2.31,0,3.91,0,7.82,0,11.72,0,1.53.37,2,1.88,2.25.71.13.52.57.56,1s-.19.71-.7.71c-2.59,0-5.19,0-7.78,0-.53,0-.72-.22-.67-.72s-.17-.82.55-1c1.54-.26,1.86-.69,1.87-2.24,0-4,0-7.89,0-11.84,0-1.25-.46-2.12-1.81-2.2-.79,0-.58-.58-.62-1s.24-.66.72-.65Z"/><path class="cls-1" d="M104.12,165.38c-.37-.39-.9-.27-1.34-.41a5.69,5.69,0,0,1-4.4-5.71c0-3.08,0-6.15,0-9.23,0-1.31.26-2.82-1.7-3.18-.46-.09-.22-.69-.25-1.06s.27-.51.63-.51c2.44,0,4.87,0,7.31,0,.56,0,.66.29.64.75s.08.89-.61.91a1.71,1.71,0,0,0-1.85,1.89c0,3.51-.21,7,.09,10.53.21,2.3,1.48,3.31,3.87,3.33s3.9-1.06,4.07-3.19a103.67,103.67,0,0,0,0-11A1.5,1.5,0,0,0,109,147c-.84,0-.81-.49-.82-1.09,0-.83.59-.6,1-.6,2,0,4,0,6,0,.41,0,1-.14.94.57,0,.49.16,1-.66,1.12-1.23.18-1.37,1.2-1.38,2.2,0,2.75,0,5.51,0,8.26a19.22,19.22,0,0,1-.22,2.74,5.55,5.55,0,0,1-4.57,4.91c-.3.08-.65,0-.87.3Z"/><path class="cls-1" d="M.05,149.08c1.16-3.42,3.91-4.35,7.12-4.51a26.61,26.61,0,0,1,6.65.69c.64.12.86.39.83,1,0,1.24,0,2.48,0,3.71,0,.63-.11,1-.84.92-.55-.08-1.33.33-1.36-.79a3,3,0,0,0-2-3.08,5,5,0,0,0-5,.57A2.57,2.57,0,0,0,6,152c1.49.75,3.08,1.31,4.63,1.95a11.49,11.49,0,0,1,2.53,1.32,5.29,5.29,0,0,1-.59,8.84,10.39,10.39,0,0,1-5,1.11,37.88,37.88,0,0,1-7.59-.77v-5.51c.32,0,.64,0,1,0,1-.14,1.49.11,1.57,1.26A3,3,0,0,0,5,162.86a7.8,7.8,0,0,0,2.72.18,2.87,2.87,0,0,0,3-2.4c.25-1.43-.33-2.44-1.92-3.18s-3-1.29-4.49-1.94a7.09,7.09,0,0,1-4.28-4Z"/><path class="cls-1" d="M215.86,165.38c-1.24-.24-2.48-.5-3.73-.7-.54-.08-.75-.3-.74-.84,0-1.32,0-2.64,0-4,0-.79.47-.84,1-.77s1.28-.37,1.29.71a3,3,0,0,0,2.19,3.1c1.71.54,3.5.72,5-.5a2.67,2.67,0,0,0-.43-4.37,42,42,0,0,0-3.92-1.79,17.07,17.07,0,0,1-3-1.52,5,5,0,0,1,.55-8.76,8.68,8.68,0,0,1,3.33-.92,24.1,24.1,0,0,1,7.37.64c.57.13.82.34.81.94,0,1.28-.05,2.56,0,3.83,0,.94-.61.76-1.13.76s-1.15.22-1.11-.75a2.78,2.78,0,0,0-2.11-3.09c-1.74-.48-3.51-.6-4.93.83a2.46,2.46,0,0,0,.62,4c1.22.67,2.55,1.14,3.83,1.69.73.31,1.49.57,2.2.93,2.47,1.26,3.43,3,3.15,5.62a5.31,5.31,0,0,1-4.13,4.46,6.35,6.35,0,0,0-1.83.49Z"/><path class="cls-1" d="M114.72,41.88V54.94c0,.32,0,.64,0,1,.15,4.29,1.63,5.8,5.93,5.92.7,0,1,.18,1,.93-.06,1.48-.07,3,0,4.44,0,.86-.35,1.12-1.09,1.18a150,150,0,0,0-18.39,2.88q-4.86,1-9.61,2.44c-.87.26-1.1.1-1.09-.81,0-3.35,0-6.71,0-10.06,0-.8.23-1,1-1a8.69,8.69,0,0,0,1.9-.19,3.89,3.89,0,0,0,3.53-3.52,17.08,17.08,0,0,0,.25-2.86q0-19.41,0-38.82a17.15,17.15,0,0,0-.13-2c-.42-3.26-1.7-4.52-5-4.54-1.38,0-1.63-.44-1.57-1.69.1-2.31.08-4.63,0-6.94,0-1,.32-1.18,1.22-1.18q12.83,0,25.65,0a1.61,1.61,0,0,1,1.65,1q8.24,15.87,16.52,31.73c.11.21.21.43.34.63.59,1,1.21,1,1.76,0,1-1.86,2-3.74,3-5.61q7-13.39,14.06-26.81a1.43,1.43,0,0,1,1.47-.91q12.88,0,25.77,0c.9,0,1.16.25,1.14,1.14-.07,2.56-.05,5.12,0,7.67,0,.72-.18,1.06-.93,1a3,3,0,0,0-.6,0c-3.5.13-5,1.58-5.17,5.09,0,.56,0,1.12,0,1.68V55.05c0,.55,0,1.12,0,1.67.2,3.45,1.63,4.89,5.06,5.11,1.61.1,1.62.1,1.62,1.69,0,2.88,0,5.76,0,8.63,0,.85-.14,1.13-1.08.87a139.88,139.88,0,0,0-18.34-3.83,89.8,89.8,0,0,0-9.26-1c-1,0-1.62-.29-1.51-1.52a34.87,34.87,0,0,0,0-4c0-.58.12-.82.78-.86,4.92-.29,6.1-1.57,6.1-6.53,0-9,0-18,0-27,0-.77.42-1.83-.74-2.14s-1.74.5-2.26,1.37q-7.33,12.5-14.68,25c-1.38,2.34-2.74,4.69-4.11,7-.91,1.54-1.49,1.53-2.41-.05L117.77,27.72a5,5,0,0,0-.66-1,1.58,1.58,0,0,0-1.73-.5c-.68.25-.66.83-.66,1.4Z"/><path class="cls-1" d="M195.48,134c-4.91,0-9.83,0-14.74,0-1,0-1.39-.28-1.25-1.27a5.57,5.57,0,0,0,0-1.08c0-.55.15-.84.74-.78h.12c3.69-.46,4.36-1.52,3.22-5.12-1.07-3.35-1.07-3.35-4.6-3.35-3.16,0-6.32,0-9.47,0-.83,0-1.32.15-1.53,1.07-.3,1.31-.83,2.58-1.16,3.89-.49,2,.25,3,2.29,3.35l.11,0c1.91.29,2.19.73,1.85,2.71-.13.78-.67.55-1.09.55-4,0-8,0-12,0h-.84c-2.29,0-2.45-.18-2.12-2.5,0-.3.07-.52.43-.6,2.1-.44,3.06-2.06,3.82-3.81,1.07-2.49,2.06-5,3.07-7.53,2.81-7.08,5.63-14.15,8.41-21.24a1.22,1.22,0,0,1,1.37-1c2.6.05,5.2.06,7.79,0,.85,0,1.15.3,1.43,1q5.22,13.75,10.5,27.49a13.24,13.24,0,0,0,1.65,3.3,4.18,4.18,0,0,0,4.57,1.57,2.85,2.85,0,0,0,2.2-2.27,10,10,0,0,0,.25-2.26q0-10.49,0-21a9.72,9.72,0,0,0-.08-1.43c-.34-2.31-1.08-3.07-3.39-3.26-1.19-.11-1.13.22-1.15-2.37,0-1.11.75-.8,1.32-.8,4.11,0,8.23,0,12.34,0a1.48,1.48,0,0,1,1.6,1q5.78,12.42,11.6,24.82c.17.36.33.73.52,1.08s.42.73.91.59.55-.53.55-.95c0-2.16,0-4.32-.06-6.47-.05-4.43-.07-8.87-.16-13.3-.06-2.49-.92-3.45-3.35-3.61-1-.06-1.27-.39-1.15-1.28a4.4,4.4,0,0,0,0-1c-.08-.71.17-1,.94-.94,4.55.22,9.1.21,13.65,0,.67,0,1,.15.88.85a2.49,2.49,0,0,0,0,.72c.16,1.08-.13,1.58-1.39,1.67-2.23.15-3.11,1.32-3.14,3.84,0,2.87,0,5.75,0,8.62,0,6.56,0,13.11,0,19.66,0,1.09-.32,1.32-1.34,1.3-2.64-.07-5.28-.05-7.92,0a1.38,1.38,0,0,1-1.44-.91q-5.91-12.11-11.88-24.16c-.23-.48-.36-1.21-1.1-1s-.59.85-.59,1.4q0,8.51.09,17a11.45,11.45,0,0,0,.14,1.55c.24,2,1.22,3,3.18,3,1,0,1.37.33,1.23,1.3a2.81,2.81,0,0,0,0,.71c.13.91-.25,1.15-1.14,1.14C205.31,134,200.39,134,195.48,134Zm-20-16.13v0c1.43,0,2.87,0,4.3,0,.77,0,1-.2.76-1q-2.1-6.34-4.16-12.7c-.14-.43-.3-.88-.83-.87s-.66.48-.81.9c-1.48,4.2-3,8.41-4.47,12.59-.27.76-.06,1,.67,1Z"/><path class="cls-1" d="M12,118.51c0,2.72,0,5.43,0,8.15s.91,4.34,3.89,4.23c.54,0,.65.22.68.71.17,2.43.18,2.39-2.23,2.37-4.07,0-8.15,0-12.23,0-1,0-1.42-.2-1.26-1.24a5.47,5.47,0,0,0,0-1.07c0-.53.11-.82.72-.8,2.58.08,3.73-1.12,3.79-4q.15-7.61.29-15.21c0-2,.1-4,.15-6a11,11,0,0,0-.17-2.5,2.89,2.89,0,0,0-2.79-2.65c-.53-.07-1.31.14-1.52-.39a4.44,4.44,0,0,1-.05-2.48c.11-.52.67-.32,1-.32,3,0,5.91.08,8.87.09,1.35,0,2.71,0,4.07-.11a1.24,1.24,0,0,1,1.4.93c2.25,5.11,4.55,10.2,6.83,15.3.21.45.29,1.08,1,1.09s.77-.62,1-1.07q3.72-7.71,7.38-15.43a1.2,1.2,0,0,1,1.33-.86,114.58,114.58,0,0,0,12.57,0c.9,0,1.28.21,1.14,1.12a2.41,2.41,0,0,0,0,.6c.13,1-.16,1.42-1.32,1.49-2.38.14-3.3,1.28-3.28,3.94,0,4.39.13,8.78.21,13.17.06,3.16.1,6.31.23,9.46.11,2.77.94,3.57,3.71,3.75.53,0,.76.14.81.74C48.35,134,48.37,134,46,134c-4.2,0-8.39,0-12.59,0-1,0-1.3-.29-1.17-1.21a2.17,2.17,0,0,0,0-.72c-.14-.94.23-1.22,1.18-1.22,2.11,0,3.1-1,3.36-3.11a64.29,64.29,0,0,0,.12-6.94c0-3.68,0-7.36,0-11,0-.51.12-1.18-.47-1.36s-.93.49-1.19,1q-4.8,8.76-9.58,17.54a6.51,6.51,0,0,1-.41.73c-.57.89-1.16.92-1.7,0-.69-1.17-1.32-2.37-2-3.56-2.58-4.73-5.15-9.46-7.75-14.18-.31-.56-.53-1.5-1.33-1.31s-.49,1.14-.5,1.76C12,113.08,12,115.79,12,118.51Z"/><path class="cls-1" d="M92.82,134c-2.23,0-4.47,0-6.71,0-.8,0-1.22-.18-1.09-1.05a2,2,0,0,0,0-.6c-.17-1.08.14-1.52,1.37-1.52,1.88,0,2.87-1,3.14-2.95a.5.5,0,0,0,0-.12q.35-12,0-24c-.07-2.29-1-3.11-3.32-3.27-1-.07-1.35-.4-1.21-1.36a5.46,5.46,0,0,0,0-1.07c0-.56.18-.77.76-.77q6.7,0,13.42,0c.79,0,.87.57,1.1,1q5.79,12.35,11.57,24.71a5.2,5.2,0,0,0,.26.53c.32.5.35,1.43,1.21,1.21s.56-1,.55-1.55q-.06-9.16-.15-18.33a11.72,11.72,0,0,0,0-1.19c-.27-2.2-1.07-3.11-3.27-3.22-1.13-.06-1.37-.47-1.24-1.43a2.17,2.17,0,0,0,0-.72c-.1-.81.15-1.09,1-1,2.55.12,5.11.14,7.66.14,2,0,3.92,0,5.87-.14.68,0,1,.17.9.86a2.41,2.41,0,0,0,0,.71c.19,1.14-.21,1.58-1.42,1.67-2.13.17-3,1.25-3.07,3.5-.07,3.68-.06,7.35-.07,11,0,5.91,0,11.82,0,17.73,0,.89-.22,1.18-1.14,1.16q-4-.09-8,0a1.45,1.45,0,0,1-1.53-1q-5.85-11.85-11.77-23.68c-.12-.25-.25-.5-.38-.75-.19-.41-.4-.86-1-.71s-.6.58-.6,1.06l.06,5c.06,4.07.11,8.14.19,12.21a12.22,12.22,0,0,0,.17,1.91,2.88,2.88,0,0,0,3.16,2.76c1,0,1.37.32,1.22,1.29a2,2,0,0,0,0,.59c.15,1-.2,1.32-1.23,1.27C97.14,133.91,95,134,92.82,134Z"/><path class="cls-1" d="M85.22,115.8a22.61,22.61,0,0,1-1.07,7.68A16,16,0,0,1,70,134.69a26,26,0,0,1-9.27-.58,15.3,15.3,0,0,1-11.39-11.34,26,26,0,0,1,.1-14.53c1.95-6.51,6.45-10.2,13-11.35a23.4,23.4,0,0,1,11,.54c6.73,2.06,10.21,6.87,11.39,13.6A25.63,25.63,0,0,1,85.22,115.8ZM65.67,130.15c5.46,0,8.48-2.35,10-6.78a23.33,23.33,0,0,0,1.07-7.31c0-3.48-.24-6.94-1.84-10.14a8.38,8.38,0,0,0-8-5,8.37,8.37,0,0,0-7.94,4.82,19.17,19.17,0,0,0-1.88,8.32c-.12,3.7.06,7.35,1.66,10.78S63,130.11,65.67,130.15Z"/><path class="cls-1" d="M266.33,134c-2.47,0-4.95,0-7.43,0-.9,0-1.26-.25-1.13-1.14a1.29,1.29,0,0,0,0-.48c-.18-1.06.14-1.65,1.34-1.6a4.3,4.3,0,0,0,1.52-.31,2.21,2.21,0,0,0,1.66-2.67,30.1,30.1,0,0,0-1.38-4.82.79.79,0,0,0-.9-.59c-4.23,0-8.47,0-12.7,0-.45,0-.76.1-.9.58-.45,1.48-1,2.94-1.36,4.45-.46,2,.26,3,2.25,3.26s2.1.33,1.95,2.52c0,.54-.18.78-.76.78-4.8,0-9.59,0-14.38,0-.55,0-.83-.17-.79-.75a6.49,6.49,0,0,0,0-1.08,1.19,1.19,0,0,1,1-1.52,4.79,4.79,0,0,0,2.95-3.11c1.23-2.85,2.39-5.74,3.54-8.63q4.1-10.27,8.15-20.56a1.3,1.3,0,0,1,1.47-1c2.43.06,4.87.08,7.31,0a1.7,1.7,0,0,1,2,1.32c3.4,9,6.87,18,10.31,27a17.75,17.75,0,0,0,1.41,3,3.62,3.62,0,0,0,2.24,1.88c1.11.22,1.2.82,1.17,1.75-.07,1.67,0,1.65-1.68,1.63-2.28,0-4.55,0-6.83,0ZM248.27,117.5c0,.48.46.36.78.36,3,0,6,0,9,0,1,0,.93-.37.7-1.08-1.34-4.08-2.66-8.18-4-12.26-.16-.51-.2-1.22-.94-1.21s-.7.67-.87,1.14q-2.21,6.12-4.4,12.25C248.44,117,248.37,117.19,248.27,117.5Z"/><path class="cls-1" d="M147,115v11.5a6.28,6.28,0,0,0,.35,2.47c.61,1.48,1.86,1.83,3.31,1.87.46,0,1.21-.32,1.35.32a5.41,5.41,0,0,1,0,2.59c-.08.29-.5.18-.77.18H134.64c-.61,0-.89-.19-.84-.82a3.47,3.47,0,0,0,0-.72c-.18-1.19.2-1.66,1.52-1.61,2.08.09,3.06-.84,3.4-2.9a12.2,12.2,0,0,0,.17-1.9c0-7.67,0-15.33,0-23,0-1-.26-1.35-1.27-1.27s-2.32,0-3.47.08c-2.52.14-3.76,1.39-3.94,3.91a1.93,1.93,0,0,1,0,.24c-.12.77.39,1.91-.26,2.23s-1.87.13-2.83.15c-.55,0-.64-.32-.64-.78,0-3.15,0-6.31,0-9.46,0-.91.54-.79,1.1-.79,6.94,0,13.89.13,20.84.14,3.27,0,6.54-.07,9.81-.15.78,0,1,.19,1,1,0,3,0,6.07,0,9.1,0,.72-.2,1-.93,1-2.86.08-2.85.11-3.09-2.69-.21-2.54-1.4-3.73-4-3.87-1.08-.06-2.16,0-3.23-.08s-1.11.35-1.1,1.18C147,107,147,111,147,115Z"/><path class="cls-1" d="M134.76,145.33H138c.42,0,.94-.18.89.57,0,.48.16,1-.65,1.13-1.47.27-1.77.7-1.77,2.21,0,4.91,0,9.82,0,14.73,0,.95-.26,1.25-1.2,1.18a28.8,28.8,0,0,0-3.35,0,1.32,1.32,0,0,1-1.45-.91c-2-4.27-4-8.52-6-12.78a5.36,5.36,0,0,0-.26-.54c-.14-.22-.21-.58-.55-.54s-.39.44-.39.75c0,2.24,0,4.47,0,6.71,0,1.12,0,2.23,0,3.35.07,1.56.37,2,1.89,2.25.78.14.56.61.6,1.05s-.3.63-.75.62q-3.42,0-6.83,0c-.46,0-.81-.05-.76-.62s-.17-.91.6-1.05c1.47-.28,1.83-.78,1.84-2.31,0-3.95,0-7.9,0-11.85,0-1.2-.37-2.16-1.75-2.26-.8-.06-.68-.59-.7-1.11,0-.68.43-.63.88-.63,2,0,4.07,0,6.11,0a1.25,1.25,0,0,1,1.35.85c2,4.31,4,8.59,6,12.89.08.18.16.36.25.54s.24.68.65.56.3-.52.31-.82q0-1.68,0-3.36c0-2.15-.06-4.3-.11-6.46,0-1.78-.2-2.05-1.91-2.46-.78-.18-.46-.69-.52-1.1-.09-.61.31-.59.74-.58C132.44,145.34,133.6,145.33,134.76,145.33Z"/><path class="cls-1" d="M204.65,155.14a3,3,0,0,1,2.15,2.39c.31,1.16.6,2.32.91,3.47a2.59,2.59,0,0,0,1.31,1.91c.85.36.65,1,.56,1.62s-.72.33-1.1.35c-1,0-1.92,0-2.87,0-.79.06-1.1-.27-1.34-1-.55-1.63-.8-3.33-1.23-5a3.54,3.54,0,0,0-4.55-2.71c-.45.11-.45.38-.45.7,0,1.48,0,2.95,0,4.43,0,1.12.55,1.85,1.72,1.87.74,0,.69.42.71.92s-.2.76-.76.75c-2.59,0-5.19,0-7.78,0-.51,0-.75-.2-.7-.71s-.18-.93.56-.94c1.59,0,1.92-1,1.93-2.45,0-3.27,0-6.54,0-9.82,0-.55,0-1.11,0-1.67-.06-1.63-.34-2-1.91-2.36-.68-.14-.55-.54-.58-.95s.13-.74.67-.72c3.67.1,7.35-.26,11,.25s5.54,3.15,4.54,6.62C207.11,153.38,206.65,153.87,204.65,155.14ZM198,150.85v.83c0,2.68.28,2.91,3,2.39a2.74,2.74,0,0,0,2.47-2.08c.63-2.56-.57-4.2-3.24-4.36-2.2-.13-2.2-.13-2.2,2Z"/><path class="cls-1" d="M48.44,164.89c-1.24,0-2.48,0-3.72,0-.53,0-.83-.12-.79-.73s-.06-.86.67-1c1.8-.32,2-.81,1.55-2.55-.72-2.47-.72-2.47-3.33-2.47-1.32,0-2.64,0-4,0a1,1,0,0,0-1.12.79c-.18.7-.44,1.37-.63,2.06-.39,1.39-.07,2,1.34,2.16.87.09.91.49.89,1.15,0,.83-.62.58-1,.58-2.16,0-4.31,0-6.47,0-.33,0-.81.17-.87-.35s-.29-1,.24-1.31c1.31-.68,1.71-1.95,2.2-3.16,1.84-4.59,3.69-9.17,5.46-13.78.37-1,.86-1.32,1.83-1.2a13.52,13.52,0,0,0,1.56,0c2.42,0,2.42,0,3.3,2.31q2.51,6.54,5,13.06c.43,1.13.86,2.25,2.14,2.72.63.23.35.82.35,1.25s-.45.46-.79.46C51,164.9,49.71,164.89,48.44,164.89ZM41.6,155.8c.64,0,1.28,0,1.91,0s1-.13.7-.87c-.66-2-1.28-3.93-1.92-5.9-.09-.29-.13-.68-.56-.66s-.37.36-.47.62c-.49,1.39-1,2.77-1.48,4.16C38.85,155.8,38.85,155.8,41.6,155.8Z"/><path class="cls-1" d="M77.14,164.89H70.07c-.49,0-1,.07-.94-.7,0-.56,0-1,.78-1a1.59,1.59,0,0,0,1.65-1.8c0-4.2,0-8.39,0-12.58A1.68,1.68,0,0,0,69.83,147c-.72,0-.67-.45-.7-1,0-.66.35-.68.84-.68,4.79,0,9.58,0,14.38,0,.64,0,.82.24.8.85,0,1.28-.05,2.55,0,3.83,0,.73-.36.74-.89.73s-1,.06-1-.76c0-1.58-.6-2.18-2.16-2.29s-3,0-4.55-.07c-.53,0-.69.25-.68.73V153c0,.27,0,.55.28.73,1.09.67,3.4-.34,3.48-1.63.07-.94.56-.85,1.18-.87s.67.49.67,1c0,1.75,0,3.51,0,5.27,0,.58-.14.9-.8.87s-1,0-1-.75a2.53,2.53,0,0,0-3.4-1.79c-.39.17-.37.49-.37.8,0,1.75,0,3.51,0,5.27,0,.64.3.83.88.81,1.28,0,2.56,0,3.83-.11,2.15-.16,2.63-.61,2.87-2.73.08-.72.15-1.19,1.07-1.12s.69.72.7,1.22c0,1.36,0,2.72,0,4.07,0,.68-.24.89-.9.89C81.93,164.88,79.53,164.89,77.14,164.89Z"/><path class="cls-1" d="M180.4,164.89h-7.07c-.45,0-.9,0-.87-.65,0-.52-.09-1,.74-1,1.19,0,1.64-.9,1.65-2q0-6.16,0-12.33a1.73,1.73,0,0,0-1.68-2c-.71-.05-.7-.44-.71-.95s.34-.69.83-.69c4.72,0,9.43,0,14.14,0,.67,0,.93.22.91.9,0,1.23,0,2.47,0,3.71,0,.64-.24.82-.85.81s-.92-.09-1-.82c-.08-1.56-.57-2.1-2.1-2.22s-3.11-.06-4.67-.09c-.46,0-.63.19-.62.64,0,1.63,0,3.27,0,4.91,0,.23,0,.46.27.61,1.06.58,3.28-.35,3.47-1.56.13-.82.46-1.06,1.24-1s.54.76.55,1.18c0,1.68,0,3.36,0,5,0,.45.06.92-.63.9-.51,0-1,.09-1.13-.68a2.53,2.53,0,0,0-3.36-1.88c-.44.13-.42.42-.42.73,0,1.8,0,3.59,0,5.39,0,.56.2.79.76.79a38.3,38.3,0,0,0,4.67-.16c1.42-.2,2-.88,2.09-2.71,0-.81.27-1.15,1.12-1.09.57,0,.76.23.76.78,0,1.48-.05,3,0,4.44,0,.73-.2,1-.94.95C185.19,164.87,182.79,164.9,180.4,164.89Z"/><path class="cls-1" d="M155.12,145.25c1.12,0,2.24,0,3.35,0,.53,0,.85.1.8.72,0,.47.09.89-.67,1-1.77.21-1.92.51-1.35,2.16,1.2,3.5,2.42,7,3.63,10.51.12.35.11.9.63.88s.46-.51.57-.84c1.17-3.51,2.34-7,3.48-10.56.47-1.43.17-2-1.27-2.14-.81-.08-.88-.42-.87-1.06,0-.79.55-.64,1-.64,2,0,4.07,0,6.11,0,.34,0,.9-.23.9.43,0,.46.32,1.07-.4,1.33a3,3,0,0,0-1.71,2.17c-1.76,5-3.55,9.9-5.27,14.87a1.41,1.41,0,0,1-1.61,1.14c-3.44,0-3.45,0-4.66-3.27-1.59-4.26-3.16-8.52-4.75-12.77-.33-.9-.66-1.82-1.68-2.2-.66-.24-.37-.81-.37-1.24,0-.63.53-.46.89-.46,1.08,0,2.16,0,3.24,0Z"/><path class="cls-1" d="M265.59,164.89h-3.71c-.49,0-1,.06-.94-.7,0-.58,0-1,.8-1,1.24,0,1.8-.72,1.83-1.89s0-2.63,0-3.95a2.29,2.29,0,0,0-.44-1.22l-3.95-6.84a4.18,4.18,0,0,0-2.42-2.35c-.68-.18-.4-.77-.42-1.21s.39-.5.75-.5h6.71c.36,0,.78,0,.75.51s.28,1-.46,1.15c-1.27.25-1.27,1-.79,2l2,4.08c.36.73.75.79,1.14,0,.71-1.39,1.45-2.76,2.1-4.17.37-.82.33-1.64-.78-1.84-.82-.14-.56-.72-.59-1.18,0-.65.45-.54.83-.54h6.11c.37,0,.88-.14.86.5,0,.43.26,1-.45,1.19a3.37,3.37,0,0,0-1.9,1.73l-4.7,7.66a2.22,2.22,0,0,0-.37,1.23c0,1.12,0,2.24,0,3.35.07,1.86.21,2,2,2.29.69.09.57.49.6.91s-.11.76-.66.75C268.23,164.88,266.91,164.89,265.59,164.89Z"/><path class="cls-1" d="M59.38,145.28c2.6,0,5.19,0,7.78,0,.8,0,1,.25,1,1-.06,1.23,0,2.47,0,3.71,0,.63-.11,1-.84.93-.57-.06-1.19.18-1.3-.78a3,3,0,0,0-4-2.52c-.44.14-.37.46-.37.75,0,4.31,0,8.62,0,12.93,0,1.36.51,1.86,1.9,1.93.65,0,.78.26.79.85s-.19.83-.82.83c-2.59,0-5.19,0-7.78,0-.44,0-.82-.05-.78-.63s-.2-1,.6-1c1.26-.08,1.68-.93,1.68-2.05,0-4.23,0-8.46,0-12.69,0-.66-.17-1-.87-.9-.39.05-.8,0-1.19,0-1.83.09-2.44.61-2.56,2.45-.05.84-.46.82-1.06.85s-.91-.24-.89-.91c0-1.27,0-2.55,0-3.82,0-.76.24-.94,1-.93C54.19,145.3,56.79,145.28,59.38,145.28Z"/><path class="cls-1" d="M247.07,145.28c2.55,0,5.11,0,7.67,0,.8,0,1.15.17,1.1,1.05-.07,1.23,0,2.47,0,3.71,0,.68-.32.84-.89.78s-1.08.24-1.24-.67c-.38-2.17-1.69-2.93-4-2.53-.51.09-.54.37-.54.75,0,4.31,0,8.62,0,12.94,0,1.33.55,1.84,1.92,1.94.7.05.75.37.76.91s-.22.77-.78.76c-2.72,0-5.43,0-8.15,0-.56,0-.79-.19-.78-.76s.06-.86.76-.91c1.41-.1,1.92-.64,1.93-2.06,0-4.23,0-8.46,0-12.7,0-.69-.24-.93-.91-.87-.51.05-1,0-1.55.05-1.44.13-2.05.66-2.13,2.08-.05.91-.4,1.12-1.24,1.1-1,0-.8-.67-.81-1.23,0-1,.06-2,0-3s.17-1.39,1.29-1.35C242,145.35,244.55,145.28,247.07,145.28Z"/><path class="cls-1" d="M26.72,154.73c0,2,0,3.91,0,5.87s.22,2.2,2.1,2.65c.72.17.38.67.44,1,.1.59-.32.61-.75.61-2,0-3.91,0-5.87,0-.6,0-1.2,0-1.8,0s-1.13.22-1.14-.73c0-.78.28-.92,1-.93a1.61,1.61,0,0,0,1.7-1.76c0-4.39.05-8.78.06-13.17,0-.32,0-.68-.46-.68a8,8,0,0,0-3,.24,2,2,0,0,0-1.2,2.14c0,.9-.44.92-1.11.93s-.9-.28-.88-.93c0-1.27,0-2.55,0-3.83,0-.65.17-.91.88-.9q7.89,0,15.8,0c.57,0,.88.1.86.78,0,1.35,0,2.71,0,4.06,0,.79-.39.85-1,.8s-1.09.24-1.16-.72a3,3,0,0,0-4.12-2.57c-.54.2-.38.65-.38,1C26.71,150.66,26.72,152.7,26.72,154.73Z"/><path class="cls-1" d="M143.21,155c0-1.91,0-3.83,0-5.74,0-1.54-.33-2-1.82-2.31-.75-.15-.58-.6-.62-1.05s.3-.64.76-.63h7.65c.46,0,.8.06.74.63s.17.9-.6,1.05c-1.52.3-1.81.72-1.82,2.3,0,3.91,0,7.81,0,11.72,0,1.56.33,2,1.86,2.25.71.12.52.55.56.94s-.12.73-.66.73c-2.59,0-5.19,0-7.78,0-.5,0-.75-.19-.7-.7s-.17-.83.54-1c1.55-.29,1.88-.74,1.9-2.36C143.23,158.92,143.21,157,143.21,155Z"/><path class="cls-1" d="M232.41,145.28h3.83c.45,0,.81,0,.77.62s.15.9-.6,1c-1.51.32-1.83.77-1.84,2.31,0,3.91,0,7.82,0,11.72,0,1.53.37,2,1.88,2.25.71.13.52.57.56,1s-.19.71-.7.71c-2.59,0-5.19,0-7.78,0-.53,0-.72-.22-.67-.72s-.17-.82.55-1c1.54-.26,1.86-.69,1.87-2.24,0-4,0-7.89,0-11.84,0-1.25-.46-2.12-1.81-2.2-.79,0-.58-.58-.62-1s.24-.66.72-.65Z"/><path class="cls-2" d="M104.12,165.38c-.37-.39-.9-.27-1.34-.41a5.69,5.69,0,0,1-4.4-5.71c0-3.08,0-6.15,0-9.23,0-1.31.26-2.82-1.7-3.18-.46-.09-.22-.69-.25-1.06s.27-.51.63-.51c2.44,0,4.87,0,7.31,0,.56,0,.66.29.64.75s.08.89-.61.91a1.71,1.71,0,0,0-1.85,1.89c0,3.51-.21,7,.09,10.53.21,2.3,1.48,3.31,3.87,3.33s3.9-1.06,4.07-3.19a103.67,103.67,0,0,0,0-11A1.5,1.5,0,0,0,109,147c-.84,0-.81-.49-.82-1.09,0-.83.59-.6,1-.6,2,0,4,0,6,0,.41,0,1-.14.94.57,0,.49.16,1-.66,1.12-1.23.18-1.37,1.2-1.38,2.2,0,2.75,0,5.51,0,8.26a19.22,19.22,0,0,1-.22,2.74,5.55,5.55,0,0,1-4.57,4.91c-.3.08-.65,0-.87.3Z"/><path class="cls-2" d="M.05,149.08c1.16-3.42,3.91-4.35,7.12-4.51a26.61,26.61,0,0,1,6.65.69c.64.12.86.39.83,1,0,1.24,0,2.48,0,3.71,0,.63-.11,1-.84.92-.55-.08-1.33.33-1.36-.79a3,3,0,0,0-2-3.08,5,5,0,0,0-5,.57A2.57,2.57,0,0,0,6,152c1.49.75,3.08,1.31,4.63,1.95a11.49,11.49,0,0,1,2.53,1.32,5.29,5.29,0,0,1-.59,8.84,10.39,10.39,0,0,1-5,1.11,37.88,37.88,0,0,1-7.59-.77v-5.51c.32,0,.64,0,1,0,1-.14,1.49.11,1.57,1.26A3,3,0,0,0,5,162.86a7.8,7.8,0,0,0,2.72.18,2.87,2.87,0,0,0,3-2.4c.25-1.43-.33-2.44-1.92-3.18s-3-1.29-4.49-1.94a7.09,7.09,0,0,1-4.28-4Z"/><path class="cls-2" d="M215.86,165.38c-1.24-.24-2.48-.5-3.73-.7-.54-.08-.75-.3-.74-.84,0-1.32,0-2.64,0-4,0-.79.47-.84,1-.77s1.28-.37,1.29.71a3,3,0,0,0,2.19,3.1c1.71.54,3.5.72,5-.5a2.67,2.67,0,0,0-.43-4.37,42,42,0,0,0-3.92-1.79,17.07,17.07,0,0,1-3-1.52,5,5,0,0,1,.55-8.76,8.68,8.68,0,0,1,3.33-.92,24.1,24.1,0,0,1,7.37.64c.57.13.82.34.81.94,0,1.28-.05,2.56,0,3.83,0,.94-.61.76-1.13.76s-1.15.22-1.11-.75a2.78,2.78,0,0,0-2.11-3.09c-1.74-.48-3.51-.6-4.93.83a2.46,2.46,0,0,0,.62,4c1.22.67,2.55,1.14,3.83,1.69.73.31,1.49.57,2.2.93,2.47,1.26,3.43,3,3.15,5.62a5.31,5.31,0,0,1-4.13,4.46,6.35,6.35,0,0,0-1.83.49Z"/><path class="cls-2" d="M114.72,41.88V54.94c0,.32,0,.64,0,1,.15,4.29,1.63,5.8,5.93,5.92.7,0,1,.18,1,.93-.06,1.48-.07,3,0,4.44,0,.86-.35,1.12-1.09,1.18a150,150,0,0,0-18.39,2.88q-4.86,1-9.61,2.44c-.87.26-1.1.1-1.09-.81,0-3.35,0-6.71,0-10.06,0-.8.23-1,1-1a8.69,8.69,0,0,0,1.9-.19,3.89,3.89,0,0,0,3.53-3.52,17.08,17.08,0,0,0,.25-2.86q0-19.41,0-38.82a17.15,17.15,0,0,0-.13-2c-.42-3.26-1.7-4.52-5-4.54-1.38,0-1.63-.44-1.57-1.69.1-2.31.08-4.63,0-6.94,0-1,.32-1.18,1.22-1.18q12.83,0,25.65,0a1.61,1.61,0,0,1,1.65,1q8.24,15.87,16.52,31.73c.11.21.21.43.34.63.59,1,1.21,1,1.76,0,1-1.86,2-3.74,3-5.61q7-13.39,14.06-26.81a1.43,1.43,0,0,1,1.47-.91q12.88,0,25.77,0c.9,0,1.16.25,1.14,1.14-.07,2.56-.05,5.12,0,7.67,0,.72-.18,1.06-.93,1a3,3,0,0,0-.6,0c-3.5.13-5,1.58-5.17,5.09,0,.56,0,1.12,0,1.68V55.05c0,.55,0,1.12,0,1.67.2,3.45,1.63,4.89,5.06,5.11,1.61.1,1.62.1,1.62,1.69,0,2.88,0,5.76,0,8.63,0,.85-.14,1.13-1.08.87a139.88,139.88,0,0,0-18.34-3.83,89.8,89.8,0,0,0-9.26-1c-1,0-1.62-.29-1.51-1.52a34.87,34.87,0,0,0,0-4c0-.58.12-.82.78-.86,4.92-.29,6.1-1.57,6.1-6.53,0-9,0-18,0-27,0-.77.42-1.83-.74-2.14s-1.74.5-2.26,1.37q-7.33,12.5-14.68,25c-1.38,2.34-2.74,4.69-4.11,7-.91,1.54-1.49,1.53-2.41-.05L117.77,27.72a5,5,0,0,0-.66-1,1.58,1.58,0,0,0-1.73-.5c-.68.25-.66.83-.66,1.4Z"/><path class="cls-2" d="M195.48,134c-4.91,0-9.83,0-14.74,0-1,0-1.39-.28-1.25-1.27a5.57,5.57,0,0,0,0-1.08c0-.55.15-.84.74-.78h.12c3.69-.46,4.36-1.52,3.22-5.12-1.07-3.35-1.07-3.35-4.6-3.35-3.16,0-6.32,0-9.47,0-.83,0-1.32.15-1.53,1.07-.3,1.31-.83,2.58-1.16,3.89-.49,2,.25,3,2.29,3.35l.11,0c1.91.29,2.19.73,1.85,2.71-.13.78-.67.55-1.09.55-4,0-8,0-12,0h-.84c-2.29,0-2.45-.18-2.12-2.5,0-.3.07-.52.43-.6,2.1-.44,3.06-2.06,3.82-3.81,1.07-2.49,2.06-5,3.07-7.53,2.81-7.08,5.63-14.15,8.41-21.24a1.22,1.22,0,0,1,1.37-1c2.6.05,5.2.06,7.79,0,.85,0,1.15.3,1.43,1q5.22,13.75,10.5,27.49a13.24,13.24,0,0,0,1.65,3.3,4.18,4.18,0,0,0,4.57,1.57,2.85,2.85,0,0,0,2.2-2.27,10,10,0,0,0,.25-2.26q0-10.49,0-21a9.72,9.72,0,0,0-.08-1.43c-.34-2.31-1.08-3.07-3.39-3.26-1.19-.11-1.13.22-1.15-2.37,0-1.11.75-.8,1.32-.8,4.11,0,8.23,0,12.34,0a1.48,1.48,0,0,1,1.6,1q5.78,12.42,11.6,24.82c.17.36.33.73.52,1.08s.42.73.91.59.55-.53.55-.95c0-2.16,0-4.32-.06-6.47-.05-4.43-.07-8.87-.16-13.3-.06-2.49-.92-3.45-3.35-3.61-1-.06-1.27-.39-1.15-1.28a4.4,4.4,0,0,0,0-1c-.08-.71.17-1,.94-.94,4.55.22,9.1.21,13.65,0,.67,0,1,.15.88.85a2.49,2.49,0,0,0,0,.72c.16,1.08-.13,1.58-1.39,1.67-2.23.15-3.11,1.32-3.14,3.84,0,2.87,0,5.75,0,8.62,0,6.56,0,13.11,0,19.66,0,1.09-.32,1.32-1.34,1.3-2.64-.07-5.28-.05-7.92,0a1.38,1.38,0,0,1-1.44-.91q-5.91-12.11-11.88-24.16c-.23-.48-.36-1.21-1.1-1s-.59.85-.59,1.4q0,8.51.09,17a11.45,11.45,0,0,0,.14,1.55c.24,2,1.22,3,3.18,3,1,0,1.37.33,1.23,1.3a2.81,2.81,0,0,0,0,.71c.13.91-.25,1.15-1.14,1.14C205.31,134,200.39,134,195.48,134Zm-20-16.13v0c1.43,0,2.87,0,4.3,0,.77,0,1-.2.76-1q-2.1-6.34-4.16-12.7c-.14-.43-.3-.88-.83-.87s-.66.48-.81.9c-1.48,4.2-3,8.41-4.47,12.59-.27.76-.06,1,.67,1Z"/><path class="cls-2" d="M12,118.51c0,2.72,0,5.43,0,8.15s.91,4.34,3.89,4.23c.54,0,.65.22.68.71.17,2.43.18,2.39-2.23,2.37-4.07,0-8.15,0-12.23,0-1,0-1.42-.2-1.26-1.24a5.47,5.47,0,0,0,0-1.07c0-.53.11-.82.72-.8,2.58.08,3.73-1.12,3.79-4q.15-7.61.29-15.21c0-2,.1-4,.15-6a11,11,0,0,0-.17-2.5,2.89,2.89,0,0,0-2.79-2.65c-.53-.07-1.31.14-1.52-.39a4.44,4.44,0,0,1-.05-2.48c.11-.52.67-.32,1-.32,3,0,5.91.08,8.87.09,1.35,0,2.71,0,4.07-.11a1.24,1.24,0,0,1,1.4.93c2.25,5.11,4.55,10.2,6.83,15.3.21.45.29,1.08,1,1.09s.77-.62,1-1.07q3.72-7.71,7.38-15.43a1.2,1.2,0,0,1,1.33-.86,114.58,114.58,0,0,0,12.57,0c.9,0,1.28.21,1.14,1.12a2.41,2.41,0,0,0,0,.6c.13,1-.16,1.42-1.32,1.49-2.38.14-3.3,1.28-3.28,3.94,0,4.39.13,8.78.21,13.17.06,3.16.1,6.31.23,9.46.11,2.77.94,3.57,3.71,3.75.53,0,.76.14.81.74C48.35,134,48.37,134,46,134c-4.2,0-8.39,0-12.59,0-1,0-1.3-.29-1.17-1.21a2.17,2.17,0,0,0,0-.72c-.14-.94.23-1.22,1.18-1.22,2.11,0,3.1-1,3.36-3.11a64.29,64.29,0,0,0,.12-6.94c0-3.68,0-7.36,0-11,0-.51.12-1.18-.47-1.36s-.93.49-1.19,1q-4.8,8.76-9.58,17.54a6.51,6.51,0,0,1-.41.73c-.57.89-1.16.92-1.7,0-.69-1.17-1.32-2.37-2-3.56-2.58-4.73-5.15-9.46-7.75-14.18-.31-.56-.53-1.5-1.33-1.31s-.49,1.14-.5,1.76C12,113.08,12,115.79,12,118.51Z"/><path class="cls-2" d="M92.82,134c-2.23,0-4.47,0-6.71,0-.8,0-1.22-.18-1.09-1.05a2,2,0,0,0,0-.6c-.17-1.08.14-1.52,1.37-1.52,1.88,0,2.87-1,3.14-2.95a.5.5,0,0,0,0-.12q.35-12,0-24c-.07-2.29-1-3.11-3.32-3.27-1-.07-1.35-.4-1.21-1.36a5.46,5.46,0,0,0,0-1.07c0-.56.18-.77.76-.77q6.7,0,13.42,0c.79,0,.87.57,1.1,1q5.79,12.35,11.57,24.71a5.2,5.2,0,0,0,.26.53c.32.5.35,1.43,1.21,1.21s.56-1,.55-1.55q-.06-9.16-.15-18.33a11.72,11.72,0,0,0,0-1.19c-.27-2.2-1.07-3.11-3.27-3.22-1.13-.06-1.37-.47-1.24-1.43a2.17,2.17,0,0,0,0-.72c-.1-.81.15-1.09,1-1,2.55.12,5.11.14,7.66.14,2,0,3.92,0,5.87-.14.68,0,1,.17.9.86a2.41,2.41,0,0,0,0,.71c.19,1.14-.21,1.58-1.42,1.67-2.13.17-3,1.25-3.07,3.5-.07,3.68-.06,7.35-.07,11,0,5.91,0,11.82,0,17.73,0,.89-.22,1.18-1.14,1.16q-4-.09-8,0a1.45,1.45,0,0,1-1.53-1q-5.85-11.85-11.77-23.68c-.12-.25-.25-.5-.38-.75-.19-.41-.4-.86-1-.71s-.6.58-.6,1.06l.06,5c.06,4.07.11,8.14.19,12.21a12.22,12.22,0,0,0,.17,1.91,2.88,2.88,0,0,0,3.16,2.76c1,0,1.37.32,1.22,1.29a2,2,0,0,0,0,.59c.15,1-.2,1.32-1.23,1.27C97.14,133.91,95,134,92.82,134Z"/><path class="cls-2" d="M85.22,115.8a22.61,22.61,0,0,1-1.07,7.68A16,16,0,0,1,70,134.69a26,26,0,0,1-9.27-.58,15.3,15.3,0,0,1-11.39-11.34,26,26,0,0,1,.1-14.53c1.95-6.51,6.45-10.2,13-11.35a23.4,23.4,0,0,1,11,.54c6.73,2.06,10.21,6.87,11.39,13.6A25.63,25.63,0,0,1,85.22,115.8ZM65.67,130.15c5.46,0,8.48-2.35,10-6.78a23.33,23.33,0,0,0,1.07-7.31c0-3.48-.24-6.94-1.84-10.14a8.38,8.38,0,0,0-8-5,8.37,8.37,0,0,0-7.94,4.82,19.17,19.17,0,0,0-1.88,8.32c-.12,3.7.06,7.35,1.66,10.78S63,130.11,65.67,130.15Z"/><path class="cls-2" d="M266.33,134c-2.47,0-4.95,0-7.43,0-.9,0-1.26-.25-1.13-1.14a1.29,1.29,0,0,0,0-.48c-.18-1.06.14-1.65,1.34-1.6a4.3,4.3,0,0,0,1.52-.31,2.21,2.21,0,0,0,1.66-2.67,30.1,30.1,0,0,0-1.38-4.82.79.79,0,0,0-.9-.59c-4.23,0-8.47,0-12.7,0-.45,0-.76.1-.9.58-.45,1.48-1,2.94-1.36,4.45-.46,2,.26,3,2.25,3.26s2.1.33,1.95,2.52c0,.54-.18.78-.76.78-4.8,0-9.59,0-14.38,0-.55,0-.83-.17-.79-.75a6.49,6.49,0,0,0,0-1.08,1.19,1.19,0,0,1,1-1.52,4.79,4.79,0,0,0,2.95-3.11c1.23-2.85,2.39-5.74,3.54-8.63q4.1-10.27,8.15-20.56a1.3,1.3,0,0,1,1.47-1c2.43.06,4.87.08,7.31,0a1.7,1.7,0,0,1,2,1.32c3.4,9,6.87,18,10.31,27a17.75,17.75,0,0,0,1.41,3,3.62,3.62,0,0,0,2.24,1.88c1.11.22,1.2.82,1.17,1.75-.07,1.67,0,1.65-1.68,1.63-2.28,0-4.55,0-6.83,0ZM248.27,117.5c0,.48.46.36.78.36,3,0,6,0,9,0,1,0,.93-.37.7-1.08-1.34-4.08-2.66-8.18-4-12.26-.16-.51-.2-1.22-.94-1.21s-.7.67-.87,1.14q-2.21,6.12-4.4,12.25C248.44,117,248.37,117.19,248.27,117.5Z"/><path class="cls-2" d="M147,115v11.5a6.28,6.28,0,0,0,.35,2.47c.61,1.48,1.86,1.83,3.31,1.87.46,0,1.21-.32,1.35.32a5.41,5.41,0,0,1,0,2.59c-.08.29-.5.18-.77.18H134.64c-.61,0-.89-.19-.84-.82a3.47,3.47,0,0,0,0-.72c-.18-1.19.2-1.66,1.52-1.61,2.08.09,3.06-.84,3.4-2.9a12.2,12.2,0,0,0,.17-1.9c0-7.67,0-15.33,0-23,0-1-.26-1.35-1.27-1.27s-2.32,0-3.47.08c-2.52.14-3.76,1.39-3.94,3.91a1.93,1.93,0,0,1,0,.24c-.12.77.39,1.91-.26,2.23s-1.87.13-2.83.15c-.55,0-.64-.32-.64-.78,0-3.15,0-6.31,0-9.46,0-.91.54-.79,1.1-.79,6.94,0,13.89.13,20.84.14,3.27,0,6.54-.07,9.81-.15.78,0,1,.19,1,1,0,3,0,6.07,0,9.1,0,.72-.2,1-.93,1-2.86.08-2.85.11-3.09-2.69-.21-2.54-1.4-3.73-4-3.87-1.08-.06-2.16,0-3.23-.08s-1.11.35-1.1,1.18C147,107,147,111,147,115Z"/><path class="cls-2" d="M134.76,145.33H138c.42,0,.94-.18.89.57,0,.48.16,1-.65,1.13-1.47.27-1.77.7-1.77,2.21,0,4.91,0,9.82,0,14.73,0,.95-.26,1.25-1.2,1.18a28.8,28.8,0,0,0-3.35,0,1.32,1.32,0,0,1-1.45-.91c-2-4.27-4-8.52-6-12.78a5.36,5.36,0,0,0-.26-.54c-.14-.22-.21-.58-.55-.54s-.39.44-.39.75c0,2.24,0,4.47,0,6.71,0,1.12,0,2.23,0,3.35.07,1.56.37,2,1.89,2.25.78.14.56.61.6,1.05s-.3.63-.75.62q-3.42,0-6.83,0c-.46,0-.81-.05-.76-.62s-.17-.91.6-1.05c1.47-.28,1.83-.78,1.84-2.31,0-3.95,0-7.9,0-11.85,0-1.2-.37-2.16-1.75-2.26-.8-.06-.68-.59-.7-1.11,0-.68.43-.63.88-.63,2,0,4.07,0,6.11,0a1.25,1.25,0,0,1,1.35.85c2,4.31,4,8.59,6,12.89.08.18.16.36.25.54s.24.68.65.56.3-.52.31-.82q0-1.68,0-3.36c0-2.15-.06-4.3-.11-6.46,0-1.78-.2-2.05-1.91-2.46-.78-.18-.46-.69-.52-1.1-.09-.61.31-.59.74-.58C132.44,145.34,133.6,145.33,134.76,145.33Z"/><path class="cls-2" d="M204.65,155.14a3,3,0,0,1,2.15,2.39c.31,1.16.6,2.32.91,3.47a2.59,2.59,0,0,0,1.31,1.91c.85.36.65,1,.56,1.62s-.72.33-1.1.35c-1,0-1.92,0-2.87,0-.79.06-1.1-.27-1.34-1-.55-1.63-.8-3.33-1.23-5a3.54,3.54,0,0,0-4.55-2.71c-.45.11-.45.38-.45.7,0,1.48,0,2.95,0,4.43,0,1.12.55,1.85,1.72,1.87.74,0,.69.42.71.92s-.2.76-.76.75c-2.59,0-5.19,0-7.78,0-.51,0-.75-.2-.7-.71s-.18-.93.56-.94c1.59,0,1.92-1,1.93-2.45,0-3.27,0-6.54,0-9.82,0-.55,0-1.11,0-1.67-.06-1.63-.34-2-1.91-2.36-.68-.14-.55-.54-.58-.95s.13-.74.67-.72c3.67.1,7.35-.26,11,.25s5.54,3.15,4.54,6.62C207.11,153.38,206.65,153.87,204.65,155.14ZM198,150.85v.83c0,2.68.28,2.91,3,2.39a2.74,2.74,0,0,0,2.47-2.08c.63-2.56-.57-4.2-3.24-4.36-2.2-.13-2.2-.13-2.2,2Z"/><path class="cls-2" d="M48.44,164.89c-1.24,0-2.48,0-3.72,0-.53,0-.83-.12-.79-.73s-.06-.86.67-1c1.8-.32,2-.81,1.55-2.55-.72-2.47-.72-2.47-3.33-2.47-1.32,0-2.64,0-4,0a1,1,0,0,0-1.12.79c-.18.7-.44,1.37-.63,2.06-.39,1.39-.07,2,1.34,2.16.87.09.91.49.89,1.15,0,.83-.62.58-1,.58-2.16,0-4.31,0-6.47,0-.33,0-.81.17-.87-.35s-.29-1,.24-1.31c1.31-.68,1.71-1.95,2.2-3.16,1.84-4.59,3.69-9.17,5.46-13.78.37-1,.86-1.32,1.83-1.2a13.52,13.52,0,0,0,1.56,0c2.42,0,2.42,0,3.3,2.31q2.51,6.54,5,13.06c.43,1.13.86,2.25,2.14,2.72.63.23.35.82.35,1.25s-.45.46-.79.46C51,164.9,49.71,164.89,48.44,164.89ZM41.6,155.8c.64,0,1.28,0,1.91,0s1-.13.7-.87c-.66-2-1.28-3.93-1.92-5.9-.09-.29-.13-.68-.56-.66s-.37.36-.47.62c-.49,1.39-1,2.77-1.48,4.16C38.85,155.8,38.85,155.8,41.6,155.8Z"/><path class="cls-2" d="M77.14,164.89H70.07c-.49,0-1,.07-.94-.7,0-.56,0-1,.78-1a1.59,1.59,0,0,0,1.65-1.8c0-4.2,0-8.39,0-12.58A1.68,1.68,0,0,0,69.83,147c-.72,0-.67-.45-.7-1,0-.66.35-.68.84-.68,4.79,0,9.58,0,14.38,0,.64,0,.82.24.8.85,0,1.28-.05,2.55,0,3.83,0,.73-.36.74-.89.73s-1,.06-1-.76c0-1.58-.6-2.18-2.16-2.29s-3,0-4.55-.07c-.53,0-.69.25-.68.73V153c0,.27,0,.55.28.73,1.09.67,3.4-.34,3.48-1.63.07-.94.56-.85,1.18-.87s.67.49.67,1c0,1.75,0,3.51,0,5.27,0,.58-.14.9-.8.87s-1,0-1-.75a2.53,2.53,0,0,0-3.4-1.79c-.39.17-.37.49-.37.8,0,1.75,0,3.51,0,5.27,0,.64.3.83.88.81,1.28,0,2.56,0,3.83-.11,2.15-.16,2.63-.61,2.87-2.73.08-.72.15-1.19,1.07-1.12s.69.72.7,1.22c0,1.36,0,2.72,0,4.07,0,.68-.24.89-.9.89C81.93,164.88,79.53,164.89,77.14,164.89Z"/><path class="cls-2" d="M180.4,164.89h-7.07c-.45,0-.9,0-.87-.65,0-.52-.09-1,.74-1,1.19,0,1.64-.9,1.65-2q0-6.16,0-12.33a1.73,1.73,0,0,0-1.68-2c-.71-.05-.7-.44-.71-.95s.34-.69.83-.69c4.72,0,9.43,0,14.14,0,.67,0,.93.22.91.9,0,1.23,0,2.47,0,3.71,0,.64-.24.82-.85.81s-.92-.09-1-.82c-.08-1.56-.57-2.1-2.1-2.22s-3.11-.06-4.67-.09c-.46,0-.63.19-.62.64,0,1.63,0,3.27,0,4.91,0,.23,0,.46.27.61,1.06.58,3.28-.35,3.47-1.56.13-.82.46-1.06,1.24-1s.54.76.55,1.18c0,1.68,0,3.36,0,5,0,.45.06.92-.63.9-.51,0-1,.09-1.13-.68a2.53,2.53,0,0,0-3.36-1.88c-.44.13-.42.42-.42.73,0,1.8,0,3.59,0,5.39,0,.56.2.79.76.79a38.3,38.3,0,0,0,4.67-.16c1.42-.2,2-.88,2.09-2.71,0-.81.27-1.15,1.12-1.09.57,0,.76.23.76.78,0,1.48-.05,3,0,4.44,0,.73-.2,1-.94.95C185.19,164.87,182.79,164.9,180.4,164.89Z"/><path class="cls-2" d="M155.12,145.25c1.12,0,2.24,0,3.35,0,.53,0,.85.1.8.72,0,.47.09.89-.67,1-1.77.21-1.92.51-1.35,2.16,1.2,3.5,2.42,7,3.63,10.51.12.35.11.9.63.88s.46-.51.57-.84c1.17-3.51,2.34-7,3.48-10.56.47-1.43.17-2-1.27-2.14-.81-.08-.88-.42-.87-1.06,0-.79.55-.64,1-.64,2,0,4.07,0,6.11,0,.34,0,.9-.23.9.43,0,.46.32,1.07-.4,1.33a3,3,0,0,0-1.71,2.17c-1.76,5-3.55,9.9-5.27,14.87a1.41,1.41,0,0,1-1.61,1.14c-3.44,0-3.45,0-4.66-3.27-1.59-4.26-3.16-8.52-4.75-12.77-.33-.9-.66-1.82-1.68-2.2-.66-.24-.37-.81-.37-1.24,0-.63.53-.46.89-.46,1.08,0,2.16,0,3.24,0Z"/><path class="cls-2" d="M265.59,164.89h-3.71c-.49,0-1,.06-.94-.7,0-.58,0-1,.8-1,1.24,0,1.8-.72,1.83-1.89s0-2.63,0-3.95a2.29,2.29,0,0,0-.44-1.22l-3.95-6.84a4.18,4.18,0,0,0-2.42-2.35c-.68-.18-.4-.77-.42-1.21s.39-.5.75-.5h6.71c.36,0,.78,0,.75.51s.28,1-.46,1.15c-1.27.25-1.27,1-.79,2l2,4.08c.36.73.75.79,1.14,0,.71-1.39,1.45-2.76,2.1-4.17.37-.82.33-1.64-.78-1.84-.82-.14-.56-.72-.59-1.18,0-.65.45-.54.83-.54h6.11c.37,0,.88-.14.86.5,0,.43.26,1-.45,1.19a3.37,3.37,0,0,0-1.9,1.73l-4.7,7.66a2.22,2.22,0,0,0-.37,1.23c0,1.12,0,2.24,0,3.35.07,1.86.21,2,2,2.29.69.09.57.49.6.91s-.11.76-.66.75C268.23,164.88,266.91,164.89,265.59,164.89Z"/><path class="cls-2" d="M59.38,145.28c2.6,0,5.19,0,7.78,0,.8,0,1,.25,1,1-.06,1.23,0,2.47,0,3.71,0,.63-.11,1-.84.93-.57-.06-1.19.18-1.3-.78a3,3,0,0,0-4-2.52c-.44.14-.37.46-.37.75,0,4.31,0,8.62,0,12.93,0,1.36.51,1.86,1.9,1.93.65,0,.78.26.79.85s-.19.83-.82.83c-2.59,0-5.19,0-7.78,0-.44,0-.82-.05-.78-.63s-.2-1,.6-1c1.26-.08,1.68-.93,1.68-2.05,0-4.23,0-8.46,0-12.69,0-.66-.17-1-.87-.9-.39.05-.8,0-1.19,0-1.83.09-2.44.61-2.56,2.45-.05.84-.46.82-1.06.85s-.91-.24-.89-.91c0-1.27,0-2.55,0-3.82,0-.76.24-.94,1-.93C54.19,145.3,56.79,145.28,59.38,145.28Z"/><path class="cls-2" d="M247.07,145.28c2.55,0,5.11,0,7.67,0,.8,0,1.15.17,1.1,1.05-.07,1.23,0,2.47,0,3.71,0,.68-.32.84-.89.78s-1.08.24-1.24-.67c-.38-2.17-1.69-2.93-4-2.53-.51.09-.54.37-.54.75,0,4.31,0,8.62,0,12.94,0,1.33.55,1.84,1.92,1.94.7.05.75.37.76.91s-.22.77-.78.76c-2.72,0-5.43,0-8.15,0-.56,0-.79-.19-.78-.76s.06-.86.76-.91c1.41-.1,1.92-.64,1.93-2.06,0-4.23,0-8.46,0-12.7,0-.69-.24-.93-.91-.87-.51.05-1,0-1.55.05-1.44.13-2.05.66-2.13,2.08-.05.91-.4,1.12-1.24,1.1-1,0-.8-.67-.81-1.23,0-1,.06-2,0-3s.17-1.39,1.29-1.35C242,145.35,244.55,145.28,247.07,145.28Z"/><path class="cls-2" d="M26.72,154.73c0,2,0,3.91,0,5.87s.22,2.2,2.1,2.65c.72.17.38.67.44,1,.1.59-.32.61-.75.61-2,0-3.91,0-5.87,0-.6,0-1.2,0-1.8,0s-1.13.22-1.14-.73c0-.78.28-.92,1-.93a1.61,1.61,0,0,0,1.7-1.76c0-4.39.05-8.78.06-13.17,0-.32,0-.68-.46-.68a8,8,0,0,0-3,.24,2,2,0,0,0-1.2,2.14c0,.9-.44.92-1.11.93s-.9-.28-.88-.93c0-1.27,0-2.55,0-3.83,0-.65.17-.91.88-.9q7.89,0,15.8,0c.57,0,.88.1.86.78,0,1.35,0,2.71,0,4.06,0,.79-.39.85-1,.8s-1.09.24-1.16-.72a3,3,0,0,0-4.12-2.57c-.54.2-.38.65-.38,1C26.71,150.66,26.72,152.7,26.72,154.73Z"/><path class="cls-2" d="M143.21,155c0-1.91,0-3.83,0-5.74,0-1.54-.33-2-1.82-2.31-.75-.15-.58-.6-.62-1.05s.3-.64.76-.63h7.65c.46,0,.8.06.74.63s.17.9-.6,1.05c-1.52.3-1.81.72-1.82,2.3,0,3.91,0,7.81,0,11.72,0,1.56.33,2,1.86,2.25.71.12.52.55.56.94s-.12.73-.66.73c-2.59,0-5.19,0-7.78,0-.5,0-.75-.19-.7-.7s-.17-.83.54-1c1.55-.29,1.88-.74,1.9-2.36C143.23,158.92,143.21,157,143.21,155Z"/><path class="cls-2" d="M232.41,145.28h3.83c.45,0,.81,0,.77.62s.15.9-.6,1c-1.51.32-1.83.77-1.84,2.31,0,3.91,0,7.82,0,11.72,0,1.53.37,2,1.88,2.25.71.13.52.57.56,1s-.19.71-.7.71c-2.59,0-5.19,0-7.78,0-.53,0-.72-.22-.67-.72s-.17-.82.55-1c1.54-.26,1.86-.69,1.87-2.24,0-4,0-7.89,0-11.84,0-1.25-.46-2.12-1.81-2.2-.79,0-.58-.58-.62-1s.24-.66.72-.65Z"/></g></g></svg>