<svg xmlns="http://www.w3.org/2000/svg" viewBox="0 0 352.31 167.11"><defs><style>.cls-1{fill:#fff;}.cls-2{fill:none;stroke:#fff;stroke-miterlimit:10;stroke-width:0.1px;}</style></defs><g id="Layer_2" data-name="Layer 2"><g id="Layer_1-2" data-name="Layer 1"><path d="M176.13,21.45a184.88,184.88,0,0,0-36.89,3.7c-1.59.32-1.79-.07-1.94-1.51a168.82,168.82,0,0,1-.6-17,2.48,2.48,0,0,1,2.3-2.8A181.4,181.4,0,0,1,185.26.29,187.84,187.84,0,0,1,212,3.6c3.34.65,3.48.82,3.5,4.18a153.71,153.71,0,0,1-.62,16.2c-.13,1.26-.47,1.46-1.67,1.21A184.74,184.74,0,0,0,176.13,21.45ZM162.77,3.86a15.15,15.15,0,0,0-5.32.43c-2.21.75-4.61,1.26-5.7,3.9-1.5,3.67-3.26,7.24-4.87,10.86-.23.5-.81,1.08-.36,1.59s1.13.17,1.68.06a154,154,0,0,1,27.45-2.12,155.68,155.68,0,0,1,28.43,2.14c.54.1,1.29.4,1.65-.12s-.2-1.1-.44-1.62c-1.46-3.26-3.16-6.45-4.37-9.8s-3.71-4.47-6.62-5a37.73,37.73,0,0,0-16.82,1.27,4.44,4.44,0,0,1-2.65,0A38.33,38.33,0,0,0,162.77,3.86Z"/><path d="M174.39,54.86q0,13.39,0,26.78c0,.69.37,1.67-.23,2s-1.41-.45-2-.84c-14.75-9.38-24.67-22.53-30.44-38.94a94.44,94.44,0,0,1-3.37-12.82c-.25-1.21-.15-1.84,1.34-2.13a189.52,189.52,0,0,1,33.17-3.56c1.66,0,1.58.81,1.58,1.93Q174.39,41.07,174.39,54.86Zm-2.06-9.81a13.58,13.58,0,0,0-13.42-13.67,13.61,13.61,0,1,0,13.42,13.67Z"/><path d="M185,38.19c2.29.68,3.92,2.46,6,3.58.42.23.82.89,1.33.44.26-.22.22-.83.22-1.27,0-4.29.06-8.59,0-12.88,0-1.37.24-1.95,1.82-1.86,5.4.31,5.41.25,5.41,5.6V47.51c-2.53-1.63-4.68-3-6.88-4.47-.16.25-.34.39-.34.53q0,7.71,0,15.42c0,.23.2.45.3.67h0a39,39,0,0,1-6.2-3.88c-1.27-.84-1.47-.45-1.46.85,0,6.91,0,13.82,0,20.73a3.29,3.29,0,0,1-1.78,3.32c-1.19.68-2.27,1.54-3.45,2.23-.58.34-1.17,1.17-1.85.76s-.23-1.21-.23-1.84c0-8.74,0-17.47,0-26.21,0-1.71-.82-4.07.43-4.93.8-.55,2.71,1.55,4.15,2.41.82.49,1.61,1,2.74,1.76,0-3.42.05-6.46,0-9.49-.05-2.4.28-4.8-.2-7.19Z"/><path d="M176.36,117c-2.74,0-5.48,0-8.22,0-2.35,0-2.61.32-2.62,2.57,0,3.19-.06,6.39,0,9.58.11,3.5.57,4,3.93,4.64.45.09,1.18-.12,1.12.71s-.8.61-1.34.6a109.8,109.8,0,0,0-11.33.07c-.55,0-1.11.11-1.2-.61s.59-.72,1.06-.86c2.88-.91,3.16-1.21,3.17-4.24q0-12.6,0-25.22c0-3.5-.34-3.82-3.77-4.63-.42-.1-1-.09-1-.73,0-.84.7-.63,1.15-.63,3.85,0,7.69,0,11.54,0,.48,0,1.16-.15,1.19.63s-.65.68-1.14.78c-2.8.58-3.2.87-3.33,3.62-.16,3.32-.08,6.65-.1,10,0,1,.48,1.51,1.54,1.56q9.28.39,18.56,0c1.11,0,1.49-.62,1.48-1.62,0-3.39,0-6.78-.08-10.16-.09-2.36-.75-2.91-3.21-3.36-.54-.1-1.36,0-1.31-.8s.86-.62,1.4-.62q5.47,0,11,0c.52,0,1.32-.27,1.34.65,0,.69-.66.66-1.16.76-2.92.58-3.31.94-3.33,4q-.06,12.9,0,25.81c0,3.34.32,3.58,3.51,4.29.51.12,1.35-.09,1.16.88-.15.76-.8.45-1.28.45H183.76c-.51,0-1.12.22-1.27-.5s.56-.72,1-.86c3.36-1,3.53-1.14,3.58-4.71.06-3.26,0-6.52.06-9.78,0-1.62-.66-2.26-2.19-2.25-2.87,0-5.74,0-8.6,0Z"/><path d="M69.15,118.08c2.35,0,4.7,0,7,0,1.43,0,2.15-.51,2.08-2.08-.11-2.54,0-5.08-.09-7.62,0-1.82-.67-3.2-2.83-3.21-.44,0-1,0-.91-.72.08-.52.58-.43.94-.44H85c.37,0,.88,0,.93.47.06.67-.55.67-1,.67-2.23,0-2.87,1.35-2.86,3.34q0,11.15,0,22.29c0,1.86.72,3,2.69,3.1.48,0,1.23,0,1.16.69s-.81.47-1.27.47c-3,0-6,0-9,0-.45,0-1.21.26-1.23-.52s.71-.62,1.2-.68a2.61,2.61,0,0,0,2.53-2.9c0-3.19,0-6.38.08-9.57,0-1.13-.65-1.53-1.6-1.53q-7.53,0-15.06,0a1.34,1.34,0,0,0-1.52,1.56c.05,3.13,0,6.26,0,9.39,0,1.92.83,3.09,2.91,3.11.49,0,1.29-.05,1.28.59,0,.87-.88.56-1.39.56-3.06,0-6.13,0-9.19,0-.42,0-1,.14-1-.54,0-.45.43-.62.85-.64,2.15-.14,2.66-1.63,2.67-3.4,0-7.16.07-14.33,0-21.5,0-2.94-.35-3.15-3.23-3.83-.38-.09-.83-.08-.82-.62s.39-.49.7-.49c3.39,0,6.78,0,10.17,0,.33,0,.68.09.68.51s-.3.49-.63.61c-3,1-3,1.06-3,4.22,0,2.21.09,4.43,0,6.64-.08,1.59.61,2.09,2,2.07C64.46,118.06,66.81,118.08,69.15,118.08Z"/><path d="M196.08,119.77c0-9.59,7-16.43,16.82-16.41,9.55,0,16.06,6.57,16,16.14a15.9,15.9,0,0,1-16.36,16.26C202.87,135.72,196.07,129.13,196.08,119.77Zm4.61-2c0,4.72.89,8.6,3.36,12a10.79,10.79,0,0,0,11.15,4.45c4.33-.72,7-3.55,8.28-7.66a20.54,20.54,0,0,0-1.32-15.38,11.07,11.07,0,0,0-11.92-6.28c-4.52.59-8.08,4.19-9.16,9.21A15.65,15.65,0,0,0,200.69,117.75Z"/><path d="M51.69,119.16a15.93,15.93,0,0,1-15.84,16.6C26.21,136,19,129.51,18.76,120.5c-.24-9.51,6.61-17,15.76-17.14C44.82,103.15,51.45,109.25,51.69,119.16Zm-4.64,1.72a20,20,0,0,0-2.64-10.65,10.72,10.72,0,0,0-10.51-5.42c-4.13.27-7.3,2.27-8.9,6-2.9,6.8-2.28,13.49,2.23,19.37a10.79,10.79,0,0,0,18.63-2.64A17,17,0,0,0,47.05,120.88Z"/><path d="M94.63,121c.09,2.89-.12,6.4.3,9.92.24,2,1,3,3,3,.49,0,1.39-.21,1.3.7-.08.7-.85.44-1.31.44q-4,0-8,0c-.46,0-1.2.25-1.19-.57,0-.59.65-.57,1.08-.58,1.91,0,2.52-1.12,2.65-2.89.55-7.42.18-14.85.21-22.27,0-2-1.15-3-3.53-3.52-.5-.1-1.27,0-1.22-.66.07-.87.91-.4,1.42-.5,4.29-.78,7,1,9.54,4.54,4.65,6.43,10.36,12,15.68,17.94.34.38.68,1,1.19.88.72-.21.45-1,.44-1.54-.07-5.6.25-11.2-.32-16.79-.31-3.1-.37-3.23-3.49-3.89-.45-.1-1-.11-1-.72s.7-.46,1.12-.46q4.2,0,8.4,0c.42,0,1-.16,1,.53,0,.48-.4.61-.82.63-2.72.12-3,2.1-3,4.13-.07,6.51-.08,13-.1,19.54,0,1.82,0,3.65,0,5.47,0,.43.22,1-.31,1.23s-.87-.37-1.19-.73L96.48,111.69a2.38,2.38,0,0,0-.38-.45c-.38-.28-.53-1.06-1.18-.75-.46.22-.28.81-.29,1.24C94.62,114.6,94.63,117.47,94.63,121Z"/><path d="M306.87,110.42c-.43.23-.43.64-.42,1,.12,6.38-.31,12.77.3,19.15.19,2.06.86,3.36,3.16,3.31.46,0,1.23-.08,1.17.66s-.82.48-1.29.48c-2.67,0-5.34,0-8,0-.41,0-1,.17-1.11-.46s.53-.68,1-.68c1.91,0,2.57-1.1,2.72-2.85.38-4.17.15-8.34.2-12.51,0-2.93,0-5.87,0-8.8s-.78-3.88-3.53-4.52c-.49-.11-1.24,0-1.17-.7s.8-.44,1.28-.47a2.61,2.61,0,0,0,.39,0c4.08-.77,6.57.92,9,4.32,4.76,6.52,10.53,12.25,15.95,18.24a10.29,10.29,0,0,0,1,.85c.66-.15.54-.62.53-1-.05-5.93.25-11.86-.29-17.78-.2-2.14-.93-3.46-3.24-3.54-.48,0-1.19,0-1.1-.73.08-.63.72-.44,1.13-.44,2.81,0,5.61,0,8.41,0,.38,0,.88-.11,1,.38s-.38.76-.84.78c-2.31.08-3,1.58-3,3.53-.08,3.32-.16,6.64-.17,10,0,5.15,0,10.3,0,15.45,0,.48.3,1.16-.29,1.42-.75.33-1-.49-1.31-.89q-10.08-11.56-20.14-23.16C307.8,111.08,307.52,110.51,306.87,110.42Z"/><path d="M257,119.52c0-3.65.07-7.3,0-11-.06-2.61-.43-2.93-3-3.4-.43-.08-1.05,0-1.05-.62s.65-.53,1.06-.53c3.2,0,6.39,0,9.58,0,.38,0,.88-.08,1,.44s-.43.71-.9.72c-2.15,0-2.75,1.38-2.75,3.25,0,2.73,0,5.47,0,8.21,0,.55-.13,1.27.58,1.51a1.55,1.55,0,0,0,1.56-.61c3.48-3.43,6.94-6.89,10.39-10.34.86-.86,1.2-1.66-.45-2-.46-.09-1-.18-.85-.8s.74-.4,1.16-.4c2.61,0,5.21,0,7.82,0,.44,0,1-.17,1.11.46s-.51.63-1,.7a11.72,11.72,0,0,0-6,3.09c-2.76,2.49-5.47,5-8.23,7.51-1.07,1-1.27,1.79-.21,3,3.89,4.3,7.7,8.67,11.56,13a5.84,5.84,0,0,0,3.83,2.15c.44,0,1,.08.94.72s-.57.43-1,.44h-8.8c-.36,0-.86.09-1-.42s.42-.7.88-.76c1.42-.19,1.21-.88.49-1.68q-5.16-5.76-10.32-11.49c-.52-.57-1.15-1.26-2-.88s-.59,1.23-.59,1.92c0,2.93,0,5.87,0,8.8,0,1.94.58,3.34,2.85,3.37.42,0,1.06,0,1.07.58,0,.85-.74.55-1.18.56-3,0-6,0-9,0-.41,0-1,.19-1.13-.44s.46-.71.92-.73c2.07-.12,2.58-1.51,2.59-3.22C257.07,127,257,123.23,257,119.52Z"/><path d="M10.05,119.18c0-5.56.1-10,0-14.42-.09-3.33-.38-5.18-4.21-5.15-.5,0-1.14-.07-1.07-.82s.77-.55,1.23-.55c3.9,0,7.81,0,11.72,0,.49,0,1.16-.17,1.2.61s-.59.79-1.1.82c-2.33.14-3,1.55-3.13,3.66-.32,7.69-.05,15.37-.14,23a55.16,55.16,0,0,1-.51,9.35c-1.08,6-6.17,10.56-11.66,10.45-1.06,0-2.42.16-2.29-1.58a2.26,2.26,0,0,1,2.78-2c.32,0,.63.16,1,.23,3.87.88,5,.09,5.59-3.89C10.39,132,10,125,10.05,119.18Z"/><path d="M240.58,121.53c.31-1.09,1.11-.91,1.67-1.09,4.19-1.4,6-4.75,5.17-9.42-.71-3.79-3.84-6-8.11-5.7-1.26.08-1.85.5-1.84,1.89.05,7.75,0,15.51,0,23.26,0,2.45.57,3,3.06,3.41.48.08,1.23,0,1.21.66s-.79.51-1.25.51c-3.19,0-6.38,0-9.58,0-.4,0-1,.19-1.1-.46s.52-.68,1-.7c2.36-.11,2.86-1.64,2.86-3.61,0-7.1,0-14.21,0-21.31,0-2.62-.31-2.93-2.92-3.39-.44-.08-1,0-1-.62s.63-.75,1.14-.77c4.68-.14,9.38-.64,14,.33,4.3.9,6.83,3.83,7,8,.2,4-2.06,7.06-6.23,8.4A10.48,10.48,0,0,1,240.58,121.53Z"/><path d="M341.48,135.75a19,19,0,0,1-2-.2c-4.68-.83-6-2.53-5.71-7.31,0-.36-.1-.85.43-.93s.63.33.76.71a11.89,11.89,0,0,0,1.48,3,7.57,7.57,0,0,0,8,3.22,5,5,0,0,0,4-3.59,6.58,6.58,0,0,0-1.65-6.68c-1.45-1.53-3.38-2.42-5.08-3.62a35.89,35.89,0,0,1-3.29-2.44c-2.68-2.44-3.78-5.46-2.65-9s4.12-5,7.62-5.46a11.49,11.49,0,0,1,3.7.12c4.81,1,3.78,0,4.56,4.9.09.55.5,1.45-.44,1.64-.78.17-.77-.69-1-1.2a6.33,6.33,0,0,0-7.75-4,5,5,0,0,0-3.31,7.38,9.15,9.15,0,0,0,3.53,3.56c1.59,1,3.24,2,4.77,3,4.14,2.93,5.66,7,4.26,11.17C350.52,133.69,346.93,135.8,341.48,135.75Z"/><path d="M129.7,135.75a19.62,19.62,0,0,1-2.14-.24c-4.5-.82-5.85-2.6-5.53-7.24,0-.36-.1-.85.42-1s.63.33.76.71a11.53,11.53,0,0,0,1.83,3.42,7.39,7.39,0,0,0,7.86,2.69c3.61-.78,5.2-4.88,3.4-8.47a7.78,7.78,0,0,0-2.73-3c-1.57-1.05-3.17-2.06-4.74-3.11-4.54-3-6.25-7.07-4.69-11.07,1.48-3.81,6.12-6,11.21-5,4.79.93,3.78,0,4.57,4.91.09.56.5,1.45-.43,1.65-.76.16-.77-.7-1-1.21-1.36-3.1-3.19-4.23-6.57-4.08a4.8,4.8,0,0,0-4.49,2.59,5.28,5.28,0,0,0,.39,5.56,10.5,10.5,0,0,0,3.3,3c1.65,1,3.34,2,4.93,3.17a9.53,9.53,0,0,1,4.37,7.27C140.8,132.1,136.79,135.8,129.7,135.75Z"/><path d="M291.16,104h5.08c.38,0,.87,0,.92.48s-.39.56-.79.66c-3.11.79-3.22.86-3.24,4q-.08,10.37,0,20.72c0,3.18.14,3.26,3.2,4.06.4.1.85.17.84.64s-.5.51-.88.51h-10c-.36,0-.86.07-.89-.48s.42-.56.8-.67c2.82-.8,3-1.06,3.06-4q0-10.36,0-20.73c0-3.08-.26-3.36-3.19-4-.39-.09-.89-.12-.87-.61,0-.65.63-.54,1-.54.85,0,1.7.06,2.54.07h2.35Z"/><path d="M192.73,59.66c1.73,1.81,4,2.9,6,4.23,1.24.81,1-.46,1-1,0-4.3,0-8.6,0-12.89a3.39,3.39,0,0,1,.32-2.13c2.11,1.4,4.17,2.82,6.29,4.16.66.42.47.82.23,1.29a74.09,74.09,0,0,1-13.5,19c-.07.07-.23.05-.61.13.15-4.3-.35-8.55.27-12.79Z"/><path d="M207,51.4c0-7.35,0-14.69,0-22,0-1,.21-1.43,1.31-1.19,1.59.34,3.19.6,4.79.88a.93.93,0,0,1,.88,1.22A69.18,69.18,0,0,1,207,51.4Z"/><path d="M96.19,167,84.43,153.56a6,6,0,0,0-.36,3.15c0,2,0,4,0,6.06,0,1.44.09,2.9,2,3.38H81.41c1.62-.53,1.68-1.84,1.68-3.23,0-3-.08-6,0-9,0-1.72-.35-3-2.48-3.2,2.68-.88,3.57-.55,5.08,1.25,2.94,3.48,6,6.89,9.13,10.53.66-1.75.3-3.29.36-4.78,0-1.24,0-2.48,0-3.71,0-1.59,0-3.21-2.12-3.61h4.88c-1.77.65-1.71,2.16-1.72,3.63Z"/><path d="M187.59,150.63c2.92-.32,5.73-.7,8.54,0a3.83,3.83,0,0,1,1.28,6.84c-1.49.9-1.33,1.65-.44,2.87,1.56,2.15,2.78,4.57,5.55,5.94a4.43,4.43,0,0,1-4.94-1.61c-1.05-1.31-1.92-2.78-2.88-4.18-.44-.65-.87-1.29-1.77-1.38s-1.68.06-1.58,1.31c.06.78,0,1.56,0,2.34,0,1.34-.32,2.86,1.6,3.4h-5.31c1.67-.56,1.85-1.81,1.8-3.35-.1-3-.07-6,0-9C189.47,152.38,189.38,151.12,187.59,150.63Zm3.76,3.94h0c0,.91,0,1.82,0,2.73a1,1,0,0,0,.88,1.07,3.73,3.73,0,0,0,4.43-2.27,3.84,3.84,0,0,0-1.92-4.78c-2.3-1-3.39-.38-3.4,2.08Z"/><path d="M185,38.18c-1.39-1.79-3.47-2.66-5.28-3.85a3.55,3.55,0,0,1-1.9-3.44c.1-6.13,0-6.1,6.24-5.42.86.09,1.1.41,1.08,1.19-.06,3.85-.1,7.69-.14,11.53Z"/><path d="M62.6,150.4h4.67c-1.62.45-1.68,1.72-1.7,3,0,2.34-.07,4.68-.19,7-.27,5.25-5.46,8-10,5.33a5.28,5.28,0,0,1-2.48-4.8c-.08-2.54,0-5.08,0-7.62,0-1.92-.1-2-2.17-2.92h5.69c-1.85.41-1.63,1.89-1.63,3.23,0,2.27-.07,4.56.08,6.83.2,3.27,1.81,5,4.55,5.07,2.54.09,4.28-1.08,4.84-3.59a30.12,30.12,0,0,0,.14-9.71C64.19,151.19,63.39,150.88,62.6,150.4Z"/><path d="M170.56,155.9v4.16c-1-2.49-3.05-1.5-4.72-1.62a.64.64,0,0,0-.73.72c0,1.69,0,3.38.13,5.07a1.32,1.32,0,0,0,.81,1c1.93,1,5.61.18,6.84-1.59.18-.25.23-.63.64-.66.21,2.6-.35,3.27-2.74,3.27l-9.2,0a3.78,3.78,0,0,1-.74-.28c2.48-.28,2.34-1.91,2.35-3.45q0-4.6,0-9.19c0-1.24-.16-2.39-1.68-3,3.31,0,6.65-.2,9.94.1,1.38.13.48,1.8.63,2.9-1.24-3.07-3.82-2.22-6.06-2.29-.07,0-.16,0-.19,0-1.55,1.65-.45,3.65-.72,5.47-.16,1.07.72,1.08,1.44,1.06C168.06,157.57,169.79,158,170.56,155.9Z"/><path d="M287,150.35h5.59c-1.69.67-1.67,1.48-1.09,2.54.95,1.75,1.8,3.56,2.82,5.58A53.08,53.08,0,0,0,298,152c.63-1.19-.68-.92-1.18-1.55H301c-3.19,3.52-6.28,7.19-6.07,12.58.07,1.5.17,2.75,2,3.09H291.2c1.79-1.11,2.51-4.32,1.34-7-1.06-2.37-2.37-4.63-3.53-7C288.57,151.33,287.71,151.05,287,150.35Z"/><path d="M140.22,163.23c1.66-3.93,3-7.29,4.51-10.61.53-1.21-.09-1.69-1-2.21h4.46c-1.52.45-2,1.74-2.61,2.94-2.1,4.31-4,8.73-5.71,13.18-.72,0-.72-.56-.88-.94l-5-12.49a3.88,3.88,0,0,0-2.28-2.63H137c-1.81.61-1.32,1.7-.85,2.83C137.47,156.41,138.72,159.54,140.22,163.23Z"/><path d="M259,153.47c-.29-1.31.24-2.19.38-3.14.07-.5.26-.51.89-.4,4.5.79,9,.24,13.68.37a8.44,8.44,0,0,1-.45,3.14c-.95-2.95-3.2-2.37-5.2-2.41-.76,0-1,.42-1,1.12,0,4,0,7.95,0,11.92,0,1.31.94,1.56,1.91,2h-6c2.65-.33,2.11-2.38,2.12-4.12,0-3.12,0-6.25,0-9.38,0-1.16-.35-1.6-1.56-1.61C261.8,151,259.86,151,259,153.47Z"/><path d="M223.75,153.3c-1.14-.45-1.12-1.15-1.5-1.57a3.39,3.39,0,0,0-4.58-.39c-1.25,1.13-1.16,2.95.33,4.27a20.16,20.16,0,0,0,2.57,1.77,8.68,8.68,0,0,1,2.24,1.85,4.41,4.41,0,0,1-2.62,7.25,9.22,9.22,0,0,1-3.1,0c-2.35-.38-2.8-1.15-2.43-3.94a19.63,19.63,0,0,0,1.59,2.21,3.59,3.59,0,0,0,5.08.26c1.23-1.32.88-3.66-.82-5-.92-.71-2-1.28-2.91-2-2.36-1.7-3.09-4.31-1.77-6.25s4.95-2.64,6.95-1.49C223.89,151,223.23,152.12,223.75,153.3Z"/><path d="M112.59,150.39h5.47c-2.11.44-1.86,2.06-1.86,3.54,0,3,0,6,0,9,0,1.43,0,2.76,1.83,3.25h-5.88c2.3-.73,2.21-2.25,2.19-3.78,0-3.06,0-6.12,0-9.18C114.32,151.91,114.12,150.83,112.59,150.39Z"/><path d="M244.38,166.17h-5.67c2-.44,1.64-2,1.64-3.3,0-3.13,0-6.26,0-9.39,0-1.34.12-2.7-1.74-3h5.56c-2,.37-1.86,1.85-1.85,3.3,0,3.07,0,6.13,0,9.19C242.34,165.08,242.35,165.08,244.38,166.17Z"/><path d="M174.3,16.44c-7.9-.41-15.43-.63-23.22.8,1.3-3,2.41-5.83,3.74-8.54.52-1.06,1.87-1.2,3.26-1.73-.72,1.94-1.28,3.58-2,5.17-.55,1.29-.32,1.73,1.15,1.51,5.2-.78,10.25.14,15.22,1.62A2.57,2.57,0,0,1,174.3,16.44Z"/><path d="M196.52,13.76c-.84-2.32-1.59-4.37-2.36-6.49,3.26.57,4.22,2,6.7,9.9-7.58-1.32-15.11-1.16-22.69-1.05A28,28,0,0,1,187,13.66,37.09,37.09,0,0,1,196.52,13.76Z"/><path d="M149.33,43.81c-.5-.3-1.7.64-1.76-.87,0-1.33,1.28-3.87,1.87-3.57.9.46,2.63-.13,2.63,1.57C152.07,43.55,151.74,43.82,149.33,43.81Z"/><path d="M168.19,43.81c-2.24,0-2.61-.4-2.63-2.79,0-1.82,1.69-1.18,2.57-1.64.62-.33,2.09,2.39,1.91,3.77S168.66,43.4,168.19,43.81Z"/><path d="M152.11,49.35c-.29,1.17-1.93,1.24-2.67,1.11-1.64-.27-1.52-2.1-1.83-3.39s.75-.94,1.39-1C151.59,46,152,46.38,152.11,49.35Z"/><path d="M168.31,46.09c.44.37,1.88-.69,1.67.84-.18,1.35-.17,3.22-1.89,3.52-.67.11-2.56.24-2.53-1.62C165.6,46.46,166,46.09,168.31,46.09Z"/><path d="M162,43.76c-1.38.15-2.23.13-2.21-1.48,0-1.86,1.28-1.42,2.28-1.55,1.71-.21,1.46,1.14,1.57,2.07C163.84,44.65,162.26,43.3,162,43.76Z"/><path d="M162,46.1c.47.3,1.82-.65,1.65.93-.11,1,.21,2.44-1.65,2.19-1.05-.14-2.22.12-2.21-1.67S160.81,46.1,162,46.1Z"/><path d="M155.57,43.81c-.54-.26-1.89.59-1.66-1,.15-.94-.07-2.36,1.75-2.13,1.13.15,2.11,0,2.08,1.72S156.6,43.75,155.57,43.81Z"/><path d="M155.59,46.16c1.45-.22,2.15,0,2.14,1.52,0,1.86-1.32,1.4-2.28,1.54-1.7.23-1.41-1.27-1.52-2.11C153.72,45.46,155.17,46.4,155.59,46.16Z"/><path d="M155.48,55.88a9.64,9.64,0,0,1-5-3.23c1.54-.92,2.77-1.09,3.52.89A14.63,14.63,0,0,0,155.48,55.88Z"/><path d="M150.54,37.21a9.7,9.7,0,0,1,4.74-3.09C153,38.42,153,38.42,150.54,37.21Z"/><path d="M162.17,34.08a10.38,10.38,0,0,1,4.82,3C164.84,38.45,164.84,38.45,162.17,34.08Z"/><path d="M162.36,55.68c2.26-4.09,2.26-4.09,4.68-3A8.21,8.21,0,0,1,162.36,55.68Z"/><path d="M160.21,35.3c.45.61.94,1.2,1.33,1.85.24.4.82.87.26,1.33-.29.24-.86.17-1.3.18-.81,0-.67-.62-.69-1.11,0-.7,0-1.4,0-2.1Z"/><path d="M160.11,54.63c-.67-3.23-.54-3.43,1.93-3.22C161.85,52.73,161,53.58,160.11,54.63Z"/><path d="M157.47,54.58a9.34,9.34,0,0,1-2-2.9C157.75,50.86,158,51.15,157.47,54.58Z"/><path d="M157.68,35.63c0,.71,0,1.42,0,2.13,0,.47,0,1-.69.9-.44,0-1,0-1.3-.21-.46-.37.05-.82.27-1.17.39-.64.87-1.22,1.31-1.83Z"/><path class="cls-1" d="M176.13,21.45a184.88,184.88,0,0,0-36.89,3.7c-1.59.32-1.79-.07-1.94-1.51a168.82,168.82,0,0,1-.6-17,2.48,2.48,0,0,1,2.3-2.8A181.4,181.4,0,0,1,185.26.29,187.84,187.84,0,0,1,212,3.6c3.34.65,3.48.82,3.5,4.18a153.71,153.71,0,0,1-.62,16.2c-.13,1.26-.47,1.46-1.67,1.21A184.74,184.74,0,0,0,176.13,21.45ZM162.77,3.86a15.15,15.15,0,0,0-5.32.43c-2.21.75-4.61,1.26-5.7,3.9-1.5,3.67-3.26,7.24-4.87,10.86-.23.5-.81,1.08-.36,1.59s1.13.17,1.68.06a154,154,0,0,1,27.45-2.12,155.68,155.68,0,0,1,28.43,2.14c.54.1,1.29.4,1.65-.12s-.2-1.1-.44-1.62c-1.46-3.26-3.16-6.45-4.37-9.8s-3.71-4.47-6.62-5a37.73,37.73,0,0,0-16.82,1.27,4.44,4.44,0,0,1-2.65,0A38.33,38.33,0,0,0,162.77,3.86Z"/><path class="cls-1" d="M174.39,54.86q0,13.39,0,26.78c0,.69.37,1.67-.23,2s-1.41-.45-2-.84c-14.75-9.38-24.67-22.53-30.44-38.94a94.44,94.44,0,0,1-3.37-12.82c-.25-1.21-.15-1.84,1.34-2.13a189.52,189.52,0,0,1,33.17-3.56c1.66,0,1.58.81,1.58,1.93Q174.39,41.07,174.39,54.86Zm-2.06-9.81a13.58,13.58,0,0,0-13.42-13.67,13.61,13.61,0,1,0,13.42,13.67Z"/><path class="cls-1" d="M185,38.19c2.29.68,3.92,2.46,6,3.58.42.23.82.89,1.33.44.26-.22.22-.83.22-1.27,0-4.29.06-8.59,0-12.88,0-1.37.24-1.95,1.82-1.86,5.4.31,5.41.25,5.41,5.6V47.51c-2.53-1.63-4.68-3-6.88-4.47-.16.25-.34.39-.34.53q0,7.71,0,15.42c0,.23.2.45.3.67h0a39,39,0,0,1-6.2-3.88c-1.27-.84-1.47-.45-1.46.85,0,6.91,0,13.82,0,20.73a3.29,3.29,0,0,1-1.78,3.32c-1.19.68-2.27,1.54-3.45,2.23-.58.34-1.17,1.17-1.85.76s-.23-1.21-.23-1.84c0-8.74,0-17.47,0-26.21,0-1.71-.82-4.07.43-4.93.8-.55,2.71,1.55,4.15,2.41.82.49,1.61,1,2.74,1.76,0-3.42.05-6.46,0-9.49-.05-2.4.28-4.8-.2-7.19Z"/><path class="cls-1" d="M176.36,117c-2.74,0-5.48,0-8.22,0-2.35,0-2.61.32-2.62,2.57,0,3.19-.06,6.39,0,9.58.11,3.5.57,4,3.93,4.64.45.09,1.18-.12,1.12.71s-.8.61-1.34.6a109.8,109.8,0,0,0-11.33.07c-.55,0-1.11.11-1.2-.61s.59-.72,1.06-.86c2.88-.91,3.16-1.21,3.17-4.24q0-12.6,0-25.22c0-3.5-.34-3.82-3.77-4.63-.42-.1-1-.09-1-.73,0-.84.7-.63,1.15-.63,3.85,0,7.69,0,11.54,0,.48,0,1.16-.15,1.19.63s-.65.68-1.14.78c-2.8.58-3.2.87-3.33,3.62-.16,3.32-.08,6.65-.1,10,0,1,.48,1.51,1.54,1.56q9.28.39,18.56,0c1.11,0,1.49-.62,1.48-1.62,0-3.39,0-6.78-.08-10.16-.09-2.36-.75-2.91-3.21-3.36-.54-.1-1.36,0-1.31-.8s.86-.62,1.4-.62q5.47,0,11,0c.52,0,1.32-.27,1.34.65,0,.69-.66.66-1.16.76-2.92.58-3.31.94-3.33,4q-.06,12.9,0,25.81c0,3.34.32,3.58,3.51,4.29.51.12,1.35-.09,1.16.88-.15.76-.8.45-1.28.45H183.76c-.51,0-1.12.22-1.27-.5s.56-.72,1-.86c3.36-1,3.53-1.14,3.58-4.71.06-3.26,0-6.52.06-9.78,0-1.62-.66-2.26-2.19-2.25-2.87,0-5.74,0-8.6,0Z"/><path class="cls-1" d="M69.15,118.08c2.35,0,4.7,0,7,0,1.43,0,2.15-.51,2.08-2.08-.11-2.54,0-5.08-.09-7.62,0-1.82-.67-3.2-2.83-3.21-.44,0-1,0-.91-.72.08-.52.58-.43.94-.44H85c.37,0,.88,0,.93.47.06.67-.55.67-1,.67-2.23,0-2.87,1.35-2.86,3.34q0,11.15,0,22.29c0,1.86.72,3,2.69,3.1.48,0,1.23,0,1.16.69s-.81.47-1.27.47c-3,0-6,0-9,0-.45,0-1.21.26-1.23-.52s.71-.62,1.2-.68a2.61,2.61,0,0,0,2.53-2.9c0-3.19,0-6.38.08-9.57,0-1.13-.65-1.53-1.6-1.53q-7.53,0-15.06,0a1.34,1.34,0,0,0-1.52,1.56c.05,3.13,0,6.26,0,9.39,0,1.92.83,3.09,2.91,3.11.49,0,1.29-.05,1.28.59,0,.87-.88.56-1.39.56-3.06,0-6.13,0-9.19,0-.42,0-1,.14-1-.54,0-.45.43-.62.85-.64,2.15-.14,2.66-1.63,2.67-3.4,0-7.16.07-14.33,0-21.5,0-2.94-.35-3.15-3.23-3.83-.38-.09-.83-.08-.82-.62s.39-.49.7-.49c3.39,0,6.78,0,10.17,0,.33,0,.68.09.68.51s-.3.49-.63.61c-3,1-3,1.06-3,4.22,0,2.21.09,4.43,0,6.64-.08,1.59.61,2.09,2,2.07C64.46,118.06,66.81,118.08,69.15,118.08Z"/><path class="cls-1" d="M196.08,119.77c0-9.59,7-16.43,16.82-16.41,9.55,0,16.06,6.57,16,16.14a15.9,15.9,0,0,1-16.36,16.26C202.87,135.72,196.07,129.13,196.08,119.77Zm4.61-2c0,4.72.89,8.6,3.36,12a10.79,10.79,0,0,0,11.15,4.45c4.33-.72,7-3.55,8.28-7.66a20.54,20.54,0,0,0-1.32-15.38,11.07,11.07,0,0,0-11.92-6.28c-4.52.59-8.08,4.19-9.16,9.21A15.65,15.65,0,0,0,200.69,117.75Z"/><path class="cls-1" d="M51.69,119.16a15.93,15.93,0,0,1-15.84,16.6C26.21,136,19,129.51,18.76,120.5c-.24-9.51,6.61-17,15.76-17.14C44.82,103.15,51.45,109.25,51.69,119.16Zm-4.64,1.72a20,20,0,0,0-2.64-10.65,10.72,10.72,0,0,0-10.51-5.42c-4.13.27-7.3,2.27-8.9,6-2.9,6.8-2.28,13.49,2.23,19.37a10.79,10.79,0,0,0,18.63-2.64A17,17,0,0,0,47.05,120.88Z"/><path class="cls-1" d="M94.63,121c.09,2.89-.12,6.4.3,9.92.24,2,1,3,3,3,.49,0,1.39-.21,1.3.7-.08.7-.85.44-1.31.44q-4,0-8,0c-.46,0-1.2.25-1.19-.57,0-.59.65-.57,1.08-.58,1.91,0,2.52-1.12,2.65-2.89.55-7.42.18-14.85.21-22.27,0-2-1.15-3-3.53-3.52-.5-.1-1.27,0-1.22-.66.07-.87.91-.4,1.42-.5,4.29-.78,7,1,9.54,4.54,4.65,6.43,10.36,12,15.68,17.94.34.38.68,1,1.19.88.72-.21.45-1,.44-1.54-.07-5.6.25-11.2-.32-16.79-.31-3.1-.37-3.23-3.49-3.89-.45-.1-1-.11-1-.72s.7-.46,1.12-.46q4.2,0,8.4,0c.42,0,1-.16,1,.53,0,.48-.4.61-.82.63-2.72.12-3,2.1-3,4.13-.07,6.51-.08,13-.1,19.54,0,1.82,0,3.65,0,5.47,0,.43.22,1-.31,1.23s-.87-.37-1.19-.73L96.48,111.69a2.38,2.38,0,0,0-.38-.45c-.38-.28-.53-1.06-1.18-.75-.46.22-.28.81-.29,1.24C94.62,114.6,94.63,117.47,94.63,121Z"/><path class="cls-1" d="M306.87,110.42c-.43.23-.43.64-.42,1,.12,6.38-.31,12.77.3,19.15.19,2.06.86,3.36,3.16,3.31.46,0,1.23-.08,1.17.66s-.82.48-1.29.48c-2.67,0-5.34,0-8,0-.41,0-1,.17-1.11-.46s.53-.68,1-.68c1.91,0,2.57-1.1,2.72-2.85.38-4.17.15-8.34.2-12.51,0-2.93,0-5.87,0-8.8s-.78-3.88-3.53-4.52c-.49-.11-1.24,0-1.17-.7s.8-.44,1.28-.47a2.61,2.61,0,0,0,.39,0c4.08-.77,6.57.92,9,4.32,4.76,6.52,10.53,12.25,15.95,18.24a10.29,10.29,0,0,0,1,.85c.66-.15.54-.62.53-1-.05-5.93.25-11.86-.29-17.78-.2-2.14-.93-3.46-3.24-3.54-.48,0-1.19,0-1.1-.73.08-.63.72-.44,1.13-.44,2.81,0,5.61,0,8.41,0,.38,0,.88-.11,1,.38s-.38.76-.84.78c-2.31.08-3,1.58-3,3.53-.08,3.32-.16,6.64-.17,10,0,5.15,0,10.3,0,15.45,0,.48.3,1.16-.29,1.42-.75.33-1-.49-1.31-.89q-10.08-11.56-20.14-23.16C307.8,111.08,307.52,110.51,306.87,110.42Z"/><path class="cls-1" d="M257,119.52c0-3.65.07-7.3,0-11-.06-2.61-.43-2.93-3-3.4-.43-.08-1.05,0-1.05-.62s.65-.53,1.06-.53c3.2,0,6.39,0,9.58,0,.38,0,.88-.08,1,.44s-.43.71-.9.72c-2.15,0-2.75,1.38-2.75,3.25,0,2.73,0,5.47,0,8.21,0,.55-.13,1.27.58,1.51a1.55,1.55,0,0,0,1.56-.61c3.48-3.43,6.94-6.89,10.39-10.34.86-.86,1.2-1.66-.45-2-.46-.09-1-.18-.85-.8s.74-.4,1.16-.4c2.61,0,5.21,0,7.82,0,.44,0,1-.17,1.11.46s-.51.63-1,.7a11.72,11.72,0,0,0-6,3.09c-2.76,2.49-5.47,5-8.23,7.51-1.07,1-1.27,1.79-.21,3,3.89,4.3,7.7,8.67,11.56,13a5.84,5.84,0,0,0,3.83,2.15c.44,0,1,.08.94.72s-.57.43-1,.44h-8.8c-.36,0-.86.09-1-.42s.42-.7.88-.76c1.42-.19,1.21-.88.49-1.68q-5.16-5.76-10.32-11.49c-.52-.57-1.15-1.26-2-.88s-.59,1.23-.59,1.92c0,2.93,0,5.87,0,8.8,0,1.94.58,3.34,2.85,3.37.42,0,1.06,0,1.07.58,0,.85-.74.55-1.18.56-3,0-6,0-9,0-.41,0-1,.19-1.13-.44s.46-.71.92-.73c2.07-.12,2.58-1.51,2.59-3.22C257.07,127,257,123.23,257,119.52Z"/><path class="cls-1" d="M10.05,119.18c0-5.56.1-10,0-14.42-.09-3.33-.38-5.18-4.21-5.15-.5,0-1.14-.07-1.07-.82s.77-.55,1.23-.55c3.9,0,7.81,0,11.72,0,.49,0,1.16-.17,1.2.61s-.59.79-1.1.82c-2.33.14-3,1.55-3.13,3.66-.32,7.69-.05,15.37-.14,23a55.16,55.16,0,0,1-.51,9.35c-1.08,6-6.17,10.56-11.66,10.45-1.06,0-2.42.16-2.29-1.58a2.26,2.26,0,0,1,2.78-2c.32,0,.63.16,1,.23,3.87.88,5,.09,5.59-3.89C10.39,132,10,125,10.05,119.18Z"/><path class="cls-1" d="M240.58,121.53c.31-1.09,1.11-.91,1.67-1.09,4.19-1.4,6-4.75,5.17-9.42-.71-3.79-3.84-6-8.11-5.7-1.26.08-1.85.5-1.84,1.89.05,7.75,0,15.51,0,23.26,0,2.45.57,3,3.06,3.41.48.08,1.23,0,1.21.66s-.79.51-1.25.51c-3.19,0-6.38,0-9.58,0-.4,0-1,.19-1.1-.46s.52-.68,1-.7c2.36-.11,2.86-1.64,2.86-3.61,0-7.1,0-14.21,0-21.31,0-2.62-.31-2.93-2.92-3.39-.44-.08-1,0-1-.62s.63-.75,1.14-.77c4.68-.14,9.38-.64,14,.33,4.3.9,6.83,3.83,7,8,.2,4-2.06,7.06-6.23,8.4A10.48,10.48,0,0,1,240.58,121.53Z"/><path class="cls-1" d="M341.48,135.75a19,19,0,0,1-2-.2c-4.68-.83-6-2.53-5.71-7.31,0-.36-.1-.85.43-.93s.63.33.76.71a11.89,11.89,0,0,0,1.48,3,7.57,7.57,0,0,0,8,3.22,5,5,0,0,0,4-3.59,6.58,6.58,0,0,0-1.65-6.68c-1.45-1.53-3.38-2.42-5.08-3.62a35.89,35.89,0,0,1-3.29-2.44c-2.68-2.44-3.78-5.46-2.65-9s4.12-5,7.62-5.46a11.49,11.49,0,0,1,3.7.12c4.81,1,3.78,0,4.56,4.9.09.55.5,1.45-.44,1.64-.78.17-.77-.69-1-1.2a6.33,6.33,0,0,0-7.75-4,5,5,0,0,0-3.31,7.38,9.15,9.15,0,0,0,3.53,3.56c1.59,1,3.24,2,4.77,3,4.14,2.93,5.66,7,4.26,11.17C350.52,133.69,346.93,135.8,341.48,135.75Z"/><path class="cls-1" d="M129.7,135.75a19.62,19.62,0,0,1-2.14-.24c-4.5-.82-5.85-2.6-5.53-7.24,0-.36-.1-.85.42-1s.63.33.76.71a11.53,11.53,0,0,0,1.83,3.42,7.39,7.39,0,0,0,7.86,2.69c3.61-.78,5.2-4.88,3.4-8.47a7.78,7.78,0,0,0-2.73-3c-1.57-1.05-3.17-2.06-4.74-3.11-4.54-3-6.25-7.07-4.69-11.07,1.48-3.81,6.12-6,11.21-5,4.79.93,3.78,0,4.57,4.91.09.56.5,1.45-.43,1.65-.76.16-.77-.7-1-1.21-1.36-3.1-3.19-4.23-6.57-4.08a4.8,4.8,0,0,0-4.49,2.59,5.28,5.28,0,0,0,.39,5.56,10.5,10.5,0,0,0,3.3,3c1.65,1,3.34,2,4.93,3.17a9.53,9.53,0,0,1,4.37,7.27C140.8,132.1,136.79,135.8,129.7,135.75Z"/><path class="cls-1" d="M291.16,104h5.08c.38,0,.87,0,.92.48s-.39.56-.79.66c-3.11.79-3.22.86-3.24,4q-.08,10.37,0,20.72c0,3.18.14,3.26,3.2,4.06.4.1.85.17.84.64s-.5.51-.88.51h-10c-.36,0-.86.07-.89-.48s.42-.56.8-.67c2.82-.8,3-1.06,3.06-4q0-10.36,0-20.73c0-3.08-.26-3.36-3.19-4-.39-.09-.89-.12-.87-.61,0-.65.63-.54,1-.54.85,0,1.7.06,2.54.07h2.35Z"/><path class="cls-1" d="M192.73,59.66c1.73,1.81,4,2.9,6,4.23,1.24.81,1-.46,1-1,0-4.3,0-8.6,0-12.89a3.39,3.39,0,0,1,.32-2.13c2.11,1.4,4.17,2.82,6.29,4.16.66.42.47.82.23,1.29a74.09,74.09,0,0,1-13.5,19c-.07.07-.23.05-.61.13.15-4.3-.35-8.55.27-12.79Z"/><path class="cls-1" d="M207,51.4c0-7.35,0-14.69,0-22,0-1,.21-1.43,1.31-1.19,1.59.34,3.19.6,4.79.88a.93.93,0,0,1,.88,1.22A69.18,69.18,0,0,1,207,51.4Z"/><path class="cls-1" d="M96.19,167,84.43,153.56a6,6,0,0,0-.36,3.15c0,2,0,4,0,6.06,0,1.44.09,2.9,2,3.38H81.41c1.62-.53,1.68-1.84,1.68-3.23,0-3-.08-6,0-9,0-1.72-.35-3-2.48-3.2,2.68-.88,3.57-.55,5.08,1.25,2.94,3.48,6,6.89,9.13,10.53.66-1.75.3-3.29.36-4.78,0-1.24,0-2.48,0-3.71,0-1.59,0-3.21-2.12-3.61h4.88c-1.77.65-1.71,2.16-1.72,3.63Z"/><path class="cls-1" d="M187.59,150.63c2.92-.32,5.73-.7,8.54,0a3.83,3.83,0,0,1,1.28,6.84c-1.49.9-1.33,1.65-.44,2.87,1.56,2.15,2.78,4.57,5.55,5.94a4.43,4.43,0,0,1-4.94-1.61c-1.05-1.31-1.92-2.78-2.88-4.18-.44-.65-.87-1.29-1.77-1.38s-1.68.06-1.58,1.31c.06.78,0,1.56,0,2.34,0,1.34-.32,2.86,1.6,3.4h-5.31c1.67-.56,1.85-1.81,1.8-3.35-.1-3-.07-6,0-9C189.47,152.38,189.38,151.12,187.59,150.63Zm3.76,3.94h0c0,.91,0,1.82,0,2.73a1,1,0,0,0,.88,1.07,3.73,3.73,0,0,0,4.43-2.27,3.84,3.84,0,0,0-1.92-4.78c-2.3-1-3.39-.38-3.4,2.08Z"/><path class="cls-1" d="M185,38.18c-1.39-1.79-3.47-2.66-5.28-3.85a3.55,3.55,0,0,1-1.9-3.44c.1-6.13,0-6.1,6.24-5.42.86.09,1.1.41,1.08,1.19-.06,3.85-.1,7.69-.14,11.53Z"/><path class="cls-1" d="M62.6,150.4h4.67c-1.62.45-1.68,1.72-1.7,3,0,2.34-.07,4.68-.19,7-.27,5.25-5.46,8-10,5.33a5.28,5.28,0,0,1-2.48-4.8c-.08-2.54,0-5.08,0-7.62,0-1.92-.1-2-2.17-2.92h5.69c-1.85.41-1.63,1.89-1.63,3.23,0,2.27-.07,4.56.08,6.83.2,3.27,1.81,5,4.55,5.07,2.54.09,4.28-1.08,4.84-3.59a30.12,30.12,0,0,0,.14-9.71C64.19,151.19,63.39,150.88,62.6,150.4Z"/><path class="cls-1" d="M170.56,155.9v4.16c-1-2.49-3.05-1.5-4.72-1.62a.64.64,0,0,0-.73.72c0,1.69,0,3.38.13,5.07a1.32,1.32,0,0,0,.81,1c1.93,1,5.61.18,6.84-1.59.18-.25.23-.63.64-.66.21,2.6-.35,3.27-2.74,3.27l-9.2,0a3.78,3.78,0,0,1-.74-.28c2.48-.28,2.34-1.91,2.35-3.45q0-4.6,0-9.19c0-1.24-.16-2.39-1.68-3,3.31,0,6.65-.2,9.94.1,1.38.13.48,1.8.63,2.9-1.24-3.07-3.82-2.22-6.06-2.29-.07,0-.16,0-.19,0-1.55,1.65-.45,3.65-.72,5.47-.16,1.07.72,1.08,1.44,1.06C168.06,157.57,169.79,158,170.56,155.9Z"/><path class="cls-1" d="M287,150.35h5.59c-1.69.67-1.67,1.48-1.09,2.54.95,1.75,1.8,3.56,2.82,5.58A53.08,53.08,0,0,0,298,152c.63-1.19-.68-.92-1.18-1.55H301c-3.19,3.52-6.28,7.19-6.07,12.58.07,1.5.17,2.75,2,3.09H291.2c1.79-1.11,2.51-4.32,1.34-7-1.06-2.37-2.37-4.63-3.53-7C288.57,151.33,287.71,151.05,287,150.35Z"/><path class="cls-1" d="M140.22,163.23c1.66-3.93,3-7.29,4.51-10.61.53-1.21-.09-1.69-1-2.21h4.46c-1.52.45-2,1.74-2.61,2.94-2.1,4.31-4,8.73-5.71,13.18-.72,0-.72-.56-.88-.94l-5-12.49a3.88,3.88,0,0,0-2.28-2.63H137c-1.81.61-1.32,1.7-.85,2.83C137.47,156.41,138.72,159.54,140.22,163.23Z"/><path class="cls-1" d="M259,153.47c-.29-1.31.24-2.19.38-3.14.07-.5.26-.51.89-.4,4.5.79,9,.24,13.68.37a8.44,8.44,0,0,1-.45,3.14c-.95-2.95-3.2-2.37-5.2-2.41-.76,0-1,.42-1,1.12,0,4,0,7.95,0,11.92,0,1.31.94,1.56,1.91,2h-6c2.65-.33,2.11-2.38,2.12-4.12,0-3.12,0-6.25,0-9.38,0-1.16-.35-1.6-1.56-1.61C261.8,151,259.86,151,259,153.47Z"/><path class="cls-1" d="M223.75,153.3c-1.14-.45-1.12-1.15-1.5-1.57a3.39,3.39,0,0,0-4.58-.39c-1.25,1.13-1.16,2.95.33,4.27a20.16,20.16,0,0,0,2.57,1.77,8.68,8.68,0,0,1,2.24,1.85,4.41,4.41,0,0,1-2.62,7.25,9.22,9.22,0,0,1-3.1,0c-2.35-.38-2.8-1.15-2.43-3.94a19.63,19.63,0,0,0,1.59,2.21,3.59,3.59,0,0,0,5.08.26c1.23-1.32.88-3.66-.82-5-.92-.71-2-1.28-2.91-2-2.36-1.7-3.09-4.31-1.77-6.25s4.95-2.64,6.95-1.49C223.89,151,223.23,152.12,223.75,153.3Z"/><path class="cls-1" d="M112.59,150.39h5.47c-2.11.44-1.86,2.06-1.86,3.54,0,3,0,6,0,9,0,1.43,0,2.76,1.83,3.25h-5.88c2.3-.73,2.21-2.25,2.19-3.78,0-3.06,0-6.12,0-9.18C114.32,151.91,114.12,150.83,112.59,150.39Z"/><path class="cls-1" d="M244.38,166.17h-5.67c2-.44,1.64-2,1.64-3.3,0-3.13,0-6.26,0-9.39,0-1.34.12-2.7-1.74-3h5.56c-2,.37-1.86,1.85-1.85,3.3,0,3.07,0,6.13,0,9.19C242.34,165.08,242.35,165.08,244.38,166.17Z"/><path class="cls-1" d="M174.3,16.44c-7.9-.41-15.43-.63-23.22.8,1.3-3,2.41-5.83,3.74-8.54.52-1.06,1.87-1.2,3.26-1.73-.72,1.94-1.28,3.58-2,5.17-.55,1.29-.32,1.73,1.15,1.51,5.2-.78,10.25.14,15.22,1.62A2.57,2.57,0,0,1,174.3,16.44Z"/><path class="cls-1" d="M196.52,13.76c-.84-2.32-1.59-4.37-2.36-6.49,3.26.57,4.22,2,6.7,9.9-7.58-1.32-15.11-1.16-22.69-1.05A28,28,0,0,1,187,13.66,37.09,37.09,0,0,1,196.52,13.76Z"/><path class="cls-1" d="M149.33,43.81c-.5-.3-1.7.64-1.76-.87,0-1.33,1.28-3.87,1.87-3.57.9.46,2.63-.13,2.63,1.57C152.07,43.55,151.74,43.82,149.33,43.81Z"/><path class="cls-1" d="M168.19,43.81c-2.24,0-2.61-.4-2.63-2.79,0-1.82,1.69-1.18,2.57-1.64.62-.33,2.09,2.39,1.91,3.77S168.66,43.4,168.19,43.81Z"/><path class="cls-1" d="M152.11,49.35c-.29,1.17-1.93,1.24-2.67,1.11-1.64-.27-1.52-2.1-1.83-3.39s.75-.94,1.39-1C151.59,46,152,46.38,152.11,49.35Z"/><path class="cls-1" d="M168.31,46.09c.44.37,1.88-.69,1.67.84-.18,1.35-.17,3.22-1.89,3.52-.67.11-2.56.24-2.53-1.62C165.6,46.46,166,46.09,168.31,46.09Z"/><path class="cls-1" d="M162,43.76c-1.38.15-2.23.13-2.21-1.48,0-1.86,1.28-1.42,2.28-1.55,1.71-.21,1.46,1.14,1.57,2.07C163.84,44.65,162.26,43.3,162,43.76Z"/><path class="cls-1" d="M162,46.1c.47.3,1.82-.65,1.65.93-.11,1,.21,2.44-1.65,2.19-1.05-.14-2.22.12-2.21-1.67S160.81,46.1,162,46.1Z"/><path class="cls-1" d="M155.57,43.81c-.54-.26-1.89.59-1.66-1,.15-.94-.07-2.36,1.75-2.13,1.13.15,2.11,0,2.08,1.72S156.6,43.75,155.57,43.81Z"/><path class="cls-1" d="M155.59,46.16c1.45-.22,2.15,0,2.14,1.52,0,1.86-1.32,1.4-2.28,1.54-1.7.23-1.41-1.27-1.52-2.11C153.72,45.46,155.17,46.4,155.59,46.16Z"/><path class="cls-1" d="M155.48,55.88a9.64,9.64,0,0,1-5-3.23c1.54-.92,2.77-1.09,3.52.89A14.63,14.63,0,0,0,155.48,55.88Z"/><path class="cls-1" d="M150.54,37.21a9.7,9.7,0,0,1,4.74-3.09C153,38.42,153,38.42,150.54,37.21Z"/><path class="cls-1" d="M162.17,34.08a10.38,10.38,0,0,1,4.82,3C164.84,38.45,164.84,38.45,162.17,34.08Z"/><path class="cls-1" d="M162.36,55.68c2.26-4.09,2.26-4.09,4.68-3A8.21,8.21,0,0,1,162.36,55.68Z"/><path class="cls-1" d="M160.21,35.3c.45.61.94,1.2,1.33,1.85.24.4.82.87.26,1.33-.29.24-.86.17-1.3.18-.81,0-.67-.62-.69-1.11,0-.7,0-1.4,0-2.1Z"/><path class="cls-1" d="M160.11,54.63c-.67-3.23-.54-3.43,1.93-3.22C161.85,52.73,161,53.58,160.11,54.63Z"/><path class="cls-1" d="M157.47,54.58a9.34,9.34,0,0,1-2-2.9C157.75,50.86,158,51.15,157.47,54.58Z"/><path class="cls-1" d="M157.68,35.63c0,.71,0,1.42,0,2.13,0,.47,0,1-.69.9-.44,0-1,0-1.3-.21-.46-.37.05-.82.27-1.17.39-.64.87-1.22,1.31-1.83Z"/><path class="cls-2" d="M176.13,21.45a184.88,184.88,0,0,0-36.89,3.7c-1.59.32-1.79-.07-1.94-1.51a168.82,168.82,0,0,1-.6-17,2.48,2.48,0,0,1,2.3-2.8A181.4,181.4,0,0,1,185.26.29,187.84,187.84,0,0,1,212,3.6c3.34.65,3.48.82,3.5,4.18a153.71,153.71,0,0,1-.62,16.2c-.13,1.26-.47,1.46-1.67,1.21A184.74,184.74,0,0,0,176.13,21.45ZM162.77,3.86a15.15,15.15,0,0,0-5.32.43c-2.21.75-4.61,1.26-5.7,3.9-1.5,3.67-3.26,7.24-4.87,10.86-.23.5-.81,1.08-.36,1.59s1.13.17,1.68.06a154,154,0,0,1,27.45-2.12,155.68,155.68,0,0,1,28.43,2.14c.54.1,1.29.4,1.65-.12s-.2-1.1-.44-1.62c-1.46-3.26-3.16-6.45-4.37-9.8s-3.71-4.47-6.62-5a37.73,37.73,0,0,0-16.82,1.27,4.44,4.44,0,0,1-2.65,0A38.33,38.33,0,0,0,162.77,3.86Z"/><path class="cls-2" d="M174.39,54.86q0,13.39,0,26.78c0,.69.37,1.67-.23,2s-1.41-.45-2-.84c-14.75-9.38-24.67-22.53-30.44-38.94a94.44,94.44,0,0,1-3.37-12.82c-.25-1.21-.15-1.84,1.34-2.13a189.52,189.52,0,0,1,33.17-3.56c1.66,0,1.58.81,1.58,1.93Q174.39,41.07,174.39,54.86Zm-2.06-9.81a13.58,13.58,0,0,0-13.42-13.67,13.61,13.61,0,1,0,13.42,13.67Z"/><path class="cls-2" d="M185,38.19c2.29.68,3.92,2.46,6,3.58.42.23.82.89,1.33.44.26-.22.22-.83.22-1.27,0-4.29.06-8.59,0-12.88,0-1.37.24-1.95,1.82-1.86,5.4.31,5.41.25,5.41,5.6V47.51c-2.53-1.63-4.68-3-6.88-4.47-.16.25-.34.39-.34.53q0,7.71,0,15.42c0,.23.2.45.3.67h0a39,39,0,0,1-6.2-3.88c-1.27-.84-1.47-.45-1.46.85,0,6.91,0,13.82,0,20.73a3.29,3.29,0,0,1-1.78,3.32c-1.19.68-2.27,1.54-3.45,2.23-.58.34-1.17,1.17-1.85.76s-.23-1.21-.23-1.84c0-8.74,0-17.47,0-26.21,0-1.71-.82-4.07.43-4.93.8-.55,2.71,1.55,4.15,2.41.82.49,1.61,1,2.74,1.76,0-3.42.05-6.46,0-9.49-.05-2.4.28-4.8-.2-7.19Z"/><path class="cls-2" d="M176.36,117c-2.74,0-5.48,0-8.22,0-2.35,0-2.61.32-2.62,2.57,0,3.19-.06,6.39,0,9.58.11,3.5.57,4,3.93,4.64.45.09,1.18-.12,1.12.71s-.8.61-1.34.6a109.8,109.8,0,0,0-11.33.07c-.55,0-1.11.11-1.2-.61s.59-.72,1.06-.86c2.88-.91,3.16-1.21,3.17-4.24q0-12.6,0-25.22c0-3.5-.34-3.82-3.77-4.63-.42-.1-1-.09-1-.73,0-.84.7-.63,1.15-.63,3.85,0,7.69,0,11.54,0,.48,0,1.16-.15,1.19.63s-.65.68-1.14.78c-2.8.58-3.2.87-3.33,3.62-.16,3.32-.08,6.65-.1,10,0,1,.48,1.51,1.54,1.56q9.28.39,18.56,0c1.11,0,1.49-.62,1.48-1.62,0-3.39,0-6.78-.08-10.16-.09-2.36-.75-2.91-3.21-3.36-.54-.1-1.36,0-1.31-.8s.86-.62,1.4-.62q5.47,0,11,0c.52,0,1.32-.27,1.34.65,0,.69-.66.66-1.16.76-2.92.58-3.31.94-3.33,4q-.06,12.9,0,25.81c0,3.34.32,3.58,3.51,4.29.51.12,1.35-.09,1.16.88-.15.76-.8.45-1.28.45H183.76c-.51,0-1.12.22-1.27-.5s.56-.72,1-.86c3.36-1,3.53-1.14,3.58-4.71.06-3.26,0-6.52.06-9.78,0-1.62-.66-2.26-2.19-2.25-2.87,0-5.74,0-8.6,0Z"/><path class="cls-2" d="M69.15,118.08c2.35,0,4.7,0,7,0,1.43,0,2.15-.51,2.08-2.08-.11-2.54,0-5.08-.09-7.62,0-1.82-.67-3.2-2.83-3.21-.44,0-1,0-.91-.72.08-.52.58-.43.94-.44H85c.37,0,.88,0,.93.47.06.67-.55.67-1,.67-2.23,0-2.87,1.35-2.86,3.34q0,11.15,0,22.29c0,1.86.72,3,2.69,3.1.48,0,1.23,0,1.16.69s-.81.47-1.27.47c-3,0-6,0-9,0-.45,0-1.21.26-1.23-.52s.71-.62,1.2-.68a2.61,2.61,0,0,0,2.53-2.9c0-3.19,0-6.38.08-9.57,0-1.13-.65-1.53-1.6-1.53q-7.53,0-15.06,0a1.34,1.34,0,0,0-1.52,1.56c.05,3.13,0,6.26,0,9.39,0,1.92.83,3.09,2.91,3.11.49,0,1.29-.05,1.28.59,0,.87-.88.56-1.39.56-3.06,0-6.13,0-9.19,0-.42,0-1,.14-1-.54,0-.45.43-.62.85-.64,2.15-.14,2.66-1.63,2.67-3.4,0-7.16.07-14.33,0-21.5,0-2.94-.35-3.15-3.23-3.83-.38-.09-.83-.08-.82-.62s.39-.49.7-.49c3.39,0,6.78,0,10.17,0,.33,0,.68.09.68.51s-.3.49-.63.61c-3,1-3,1.06-3,4.22,0,2.21.09,4.43,0,6.64-.08,1.59.61,2.09,2,2.07C64.46,118.06,66.81,118.08,69.15,118.08Z"/><path class="cls-2" d="M196.08,119.77c0-9.59,7-16.43,16.82-16.41,9.55,0,16.06,6.57,16,16.14a15.9,15.9,0,0,1-16.36,16.26C202.87,135.72,196.07,129.13,196.08,119.77Zm4.61-2c0,4.72.89,8.6,3.36,12a10.79,10.79,0,0,0,11.15,4.45c4.33-.72,7-3.55,8.28-7.66a20.54,20.54,0,0,0-1.32-15.38,11.07,11.07,0,0,0-11.92-6.28c-4.52.59-8.08,4.19-9.16,9.21A15.65,15.65,0,0,0,200.69,117.75Z"/><path class="cls-2" d="M51.69,119.16a15.93,15.93,0,0,1-15.84,16.6C26.21,136,19,129.51,18.76,120.5c-.24-9.51,6.61-17,15.76-17.14C44.82,103.15,51.45,109.25,51.69,119.16Zm-4.64,1.72a20,20,0,0,0-2.64-10.65,10.72,10.72,0,0,0-10.51-5.42c-4.13.27-7.3,2.27-8.9,6-2.9,6.8-2.28,13.49,2.23,19.37a10.79,10.79,0,0,0,18.63-2.64A17,17,0,0,0,47.05,120.88Z"/><path class="cls-2" d="M94.63,121c.09,2.89-.12,6.4.3,9.92.24,2,1,3,3,3,.49,0,1.39-.21,1.3.7-.08.7-.85.44-1.31.44q-4,0-8,0c-.46,0-1.2.25-1.19-.57,0-.59.65-.57,1.08-.58,1.91,0,2.52-1.12,2.65-2.89.55-7.42.18-14.85.21-22.27,0-2-1.15-3-3.53-3.52-.5-.1-1.27,0-1.22-.66.07-.87.91-.4,1.42-.5,4.29-.78,7,1,9.54,4.54,4.65,6.43,10.36,12,15.68,17.94.34.38.68,1,1.19.88.72-.21.45-1,.44-1.54-.07-5.6.25-11.2-.32-16.79-.31-3.1-.37-3.23-3.49-3.89-.45-.1-1-.11-1-.72s.7-.46,1.12-.46q4.2,0,8.4,0c.42,0,1-.16,1,.53,0,.48-.4.61-.82.63-2.72.12-3,2.1-3,4.13-.07,6.51-.08,13-.1,19.54,0,1.82,0,3.65,0,5.47,0,.43.22,1-.31,1.23s-.87-.37-1.19-.73L96.48,111.69a2.38,2.38,0,0,0-.38-.45c-.38-.28-.53-1.06-1.18-.75-.46.22-.28.81-.29,1.24C94.62,114.6,94.63,117.47,94.63,121Z"/><path class="cls-2" d="M306.87,110.42c-.43.23-.43.64-.42,1,.12,6.38-.31,12.77.3,19.15.19,2.06.86,3.36,3.16,3.31.46,0,1.23-.08,1.17.66s-.82.48-1.29.48c-2.67,0-5.34,0-8,0-.41,0-1,.17-1.11-.46s.53-.68,1-.68c1.91,0,2.57-1.1,2.72-2.85.38-4.17.15-8.34.2-12.51,0-2.93,0-5.87,0-8.8s-.78-3.88-3.53-4.52c-.49-.11-1.24,0-1.17-.7s.8-.44,1.28-.47a2.61,2.61,0,0,0,.39,0c4.08-.77,6.57.92,9,4.32,4.76,6.52,10.53,12.25,15.95,18.24a10.29,10.29,0,0,0,1,.85c.66-.15.54-.62.53-1-.05-5.93.25-11.86-.29-17.78-.2-2.14-.93-3.46-3.24-3.54-.48,0-1.19,0-1.1-.73.08-.63.72-.44,1.13-.44,2.81,0,5.61,0,8.41,0,.38,0,.88-.11,1,.38s-.38.76-.84.78c-2.31.08-3,1.58-3,3.53-.08,3.32-.16,6.64-.17,10,0,5.15,0,10.3,0,15.45,0,.48.3,1.16-.29,1.42-.75.33-1-.49-1.31-.89q-10.08-11.56-20.14-23.16C307.8,111.08,307.52,110.51,306.87,110.42Z"/><path class="cls-2" d="M257,119.52c0-3.65.07-7.3,0-11-.06-2.61-.43-2.93-3-3.4-.43-.08-1.05,0-1.05-.62s.65-.53,1.06-.53c3.2,0,6.39,0,9.58,0,.38,0,.88-.08,1,.44s-.43.71-.9.72c-2.15,0-2.75,1.38-2.75,3.25,0,2.73,0,5.47,0,8.21,0,.55-.13,1.27.58,1.51a1.55,1.55,0,0,0,1.56-.61c3.48-3.43,6.94-6.89,10.39-10.34.86-.86,1.2-1.66-.45-2-.46-.09-1-.18-.85-.8s.74-.4,1.16-.4c2.61,0,5.21,0,7.82,0,.44,0,1-.17,1.11.46s-.51.63-1,.7a11.72,11.72,0,0,0-6,3.09c-2.76,2.49-5.47,5-8.23,7.51-1.07,1-1.27,1.79-.21,3,3.89,4.3,7.7,8.67,11.56,13a5.84,5.84,0,0,0,3.83,2.15c.44,0,1,.08.94.72s-.57.43-1,.44h-8.8c-.36,0-.86.09-1-.42s.42-.7.88-.76c1.42-.19,1.21-.88.49-1.68q-5.16-5.76-10.32-11.49c-.52-.57-1.15-1.26-2-.88s-.59,1.23-.59,1.92c0,2.93,0,5.87,0,8.8,0,1.94.58,3.34,2.85,3.37.42,0,1.06,0,1.07.58,0,.85-.74.55-1.18.56-3,0-6,0-9,0-.41,0-1,.19-1.13-.44s.46-.71.92-.73c2.07-.12,2.58-1.51,2.59-3.22C257.07,127,257,123.23,257,119.52Z"/><path class="cls-2" d="M10.05,119.18c0-5.56.1-10,0-14.42-.09-3.33-.38-5.18-4.21-5.15-.5,0-1.14-.07-1.07-.82s.77-.55,1.23-.55c3.9,0,7.81,0,11.72,0,.49,0,1.16-.17,1.2.61s-.59.79-1.1.82c-2.33.14-3,1.55-3.13,3.66-.32,7.69-.05,15.37-.14,23a55.16,55.16,0,0,1-.51,9.35c-1.08,6-6.17,10.56-11.66,10.45-1.06,0-2.42.16-2.29-1.58a2.26,2.26,0,0,1,2.78-2c.32,0,.63.16,1,.23,3.87.88,5,.09,5.59-3.89C10.39,132,10,125,10.05,119.18Z"/><path class="cls-2" d="M240.58,121.53c.31-1.09,1.11-.91,1.67-1.09,4.19-1.4,6-4.75,5.17-9.42-.71-3.79-3.84-6-8.11-5.7-1.26.08-1.85.5-1.84,1.89.05,7.75,0,15.51,0,23.26,0,2.45.57,3,3.06,3.41.48.08,1.23,0,1.21.66s-.79.51-1.25.51c-3.19,0-6.38,0-9.58,0-.4,0-1,.19-1.1-.46s.52-.68,1-.7c2.36-.11,2.86-1.64,2.86-3.61,0-7.1,0-14.21,0-21.31,0-2.62-.31-2.93-2.92-3.39-.44-.08-1,0-1-.62s.63-.75,1.14-.77c4.68-.14,9.38-.64,14,.33,4.3.9,6.83,3.83,7,8,.2,4-2.06,7.06-6.23,8.4A10.48,10.48,0,0,1,240.58,121.53Z"/><path class="cls-2" d="M341.48,135.75a19,19,0,0,1-2-.2c-4.68-.83-6-2.53-5.71-7.31,0-.36-.1-.85.43-.93s.63.33.76.71a11.89,11.89,0,0,0,1.48,3,7.57,7.57,0,0,0,8,3.22,5,5,0,0,0,4-3.59,6.58,6.58,0,0,0-1.65-6.68c-1.45-1.53-3.38-2.42-5.08-3.62a35.89,35.89,0,0,1-3.29-2.44c-2.68-2.44-3.78-5.46-2.65-9s4.12-5,7.62-5.46a11.49,11.49,0,0,1,3.7.12c4.81,1,3.78,0,4.56,4.9.09.55.5,1.45-.44,1.64-.78.17-.77-.69-1-1.2a6.33,6.33,0,0,0-7.75-4,5,5,0,0,0-3.31,7.38,9.15,9.15,0,0,0,3.53,3.56c1.59,1,3.24,2,4.77,3,4.14,2.93,5.66,7,4.26,11.17C350.52,133.69,346.93,135.8,341.48,135.75Z"/><path class="cls-2" d="M129.7,135.75a19.62,19.62,0,0,1-2.14-.24c-4.5-.82-5.85-2.6-5.53-7.24,0-.36-.1-.85.42-1s.63.33.76.71a11.53,11.53,0,0,0,1.83,3.42,7.39,7.39,0,0,0,7.86,2.69c3.61-.78,5.2-4.88,3.4-8.47a7.78,7.78,0,0,0-2.73-3c-1.57-1.05-3.17-2.06-4.74-3.11-4.54-3-6.25-7.07-4.69-11.07,1.48-3.81,6.12-6,11.21-5,4.79.93,3.78,0,4.57,4.91.09.56.5,1.45-.43,1.65-.76.16-.77-.7-1-1.21-1.36-3.1-3.19-4.23-6.57-4.08a4.8,4.8,0,0,0-4.49,2.59,5.28,5.28,0,0,0,.39,5.56,10.5,10.5,0,0,0,3.3,3c1.65,1,3.34,2,4.93,3.17a9.53,9.53,0,0,1,4.37,7.27C140.8,132.1,136.79,135.8,129.7,135.75Z"/><path class="cls-2" d="M291.16,104h5.08c.38,0,.87,0,.92.48s-.39.56-.79.66c-3.11.79-3.22.86-3.24,4q-.08,10.37,0,20.72c0,3.18.14,3.26,3.2,4.06.4.1.85.17.84.64s-.5.51-.88.51h-10c-.36,0-.86.07-.89-.48s.42-.56.8-.67c2.82-.8,3-1.06,3.06-4q0-10.36,0-20.73c0-3.08-.26-3.36-3.19-4-.39-.09-.89-.12-.87-.61,0-.65.63-.54,1-.54.85,0,1.7.06,2.54.07h2.35Z"/><path class="cls-2" d="M192.73,59.66c1.73,1.81,4,2.9,6,4.23,1.24.81,1-.46,1-1,0-4.3,0-8.6,0-12.89a3.39,3.39,0,0,1,.32-2.13c2.11,1.4,4.17,2.82,6.29,4.16.66.42.47.82.23,1.29a74.09,74.09,0,0,1-13.5,19c-.07.07-.23.05-.61.13.15-4.3-.35-8.55.27-12.79Z"/><path class="cls-2" d="M207,51.4c0-7.35,0-14.69,0-22,0-1,.21-1.43,1.31-1.19,1.59.34,3.19.6,4.79.88a.93.93,0,0,1,.88,1.22A69.18,69.18,0,0,1,207,51.4Z"/><path class="cls-2" d="M96.19,167,84.43,153.56a6,6,0,0,0-.36,3.15c0,2,0,4,0,6.06,0,1.44.09,2.9,2,3.38H81.41c1.62-.53,1.68-1.84,1.68-3.23,0-3-.08-6,0-9,0-1.72-.35-3-2.48-3.2,2.68-.88,3.57-.55,5.08,1.25,2.94,3.48,6,6.89,9.13,10.53.66-1.75.3-3.29.36-4.78,0-1.24,0-2.48,0-3.71,0-1.59,0-3.21-2.12-3.61h4.88c-1.77.65-1.71,2.16-1.72,3.63Z"/><path class="cls-2" d="M187.59,150.63c2.92-.32,5.73-.7,8.54,0a3.83,3.83,0,0,1,1.28,6.84c-1.49.9-1.33,1.65-.44,2.87,1.56,2.15,2.78,4.57,5.55,5.94a4.43,4.43,0,0,1-4.94-1.61c-1.05-1.31-1.92-2.78-2.88-4.18-.44-.65-.87-1.29-1.77-1.38s-1.68.06-1.58,1.31c.06.78,0,1.56,0,2.34,0,1.34-.32,2.86,1.6,3.4h-5.31c1.67-.56,1.85-1.81,1.8-3.35-.1-3-.07-6,0-9C189.47,152.38,189.38,151.12,187.59,150.63Zm3.76,3.94h0c0,.91,0,1.82,0,2.73a1,1,0,0,0,.88,1.07,3.73,3.73,0,0,0,4.43-2.27,3.84,3.84,0,0,0-1.92-4.78c-2.3-1-3.39-.38-3.4,2.08Z"/><path class="cls-2" d="M185,38.18c-1.39-1.79-3.47-2.66-5.28-3.85a3.55,3.55,0,0,1-1.9-3.44c.1-6.13,0-6.1,6.24-5.42.86.09,1.1.41,1.08,1.19-.06,3.85-.1,7.69-.14,11.53Z"/><path class="cls-2" d="M62.6,150.4h4.67c-1.62.45-1.68,1.72-1.7,3,0,2.34-.07,4.68-.19,7-.27,5.25-5.46,8-10,5.33a5.28,5.28,0,0,1-2.48-4.8c-.08-2.54,0-5.08,0-7.62,0-1.92-.1-2-2.17-2.92h5.69c-1.85.41-1.63,1.89-1.63,3.23,0,2.27-.07,4.56.08,6.83.2,3.27,1.81,5,4.55,5.07,2.54.09,4.28-1.08,4.84-3.59a30.12,30.12,0,0,0,.14-9.71C64.19,151.19,63.39,150.88,62.6,150.4Z"/><path class="cls-2" d="M170.56,155.9v4.16c-1-2.49-3.05-1.5-4.72-1.62a.64.64,0,0,0-.73.72c0,1.69,0,3.38.13,5.07a1.32,1.32,0,0,0,.81,1c1.93,1,5.61.18,6.84-1.59.18-.25.23-.63.64-.66.21,2.6-.35,3.27-2.74,3.27l-9.2,0a3.78,3.78,0,0,1-.74-.28c2.48-.28,2.34-1.91,2.35-3.45q0-4.6,0-9.19c0-1.24-.16-2.39-1.68-3,3.31,0,6.65-.2,9.94.1,1.38.13.48,1.8.63,2.9-1.24-3.07-3.82-2.22-6.06-2.29-.07,0-.16,0-.19,0-1.55,1.65-.45,3.65-.72,5.47-.16,1.07.72,1.08,1.44,1.06C168.06,157.57,169.79,158,170.56,155.9Z"/><path class="cls-2" d="M287,150.35h5.59c-1.69.67-1.67,1.48-1.09,2.54.95,1.75,1.8,3.56,2.82,5.58A53.08,53.08,0,0,0,298,152c.63-1.19-.68-.92-1.18-1.55H301c-3.19,3.52-6.28,7.19-6.07,12.58.07,1.5.17,2.75,2,3.09H291.2c1.79-1.11,2.51-4.32,1.34-7-1.06-2.37-2.37-4.63-3.53-7C288.57,151.33,287.71,151.05,287,150.35Z"/><path class="cls-2" d="M140.22,163.23c1.66-3.93,3-7.29,4.51-10.61.53-1.21-.09-1.69-1-2.21h4.46c-1.52.45-2,1.74-2.61,2.94-2.1,4.31-4,8.73-5.71,13.18-.72,0-.72-.56-.88-.94l-5-12.49a3.88,3.88,0,0,0-2.28-2.63H137c-1.81.61-1.32,1.7-.85,2.83C137.47,156.41,138.72,159.54,140.22,163.23Z"/><path class="cls-2" d="M259,153.47c-.29-1.31.24-2.19.38-3.14.07-.5.26-.51.89-.4,4.5.79,9,.24,13.68.37a8.44,8.44,0,0,1-.45,3.14c-.95-2.95-3.2-2.37-5.2-2.41-.76,0-1,.42-1,1.12,0,4,0,7.95,0,11.92,0,1.31.94,1.56,1.91,2h-6c2.65-.33,2.11-2.38,2.12-4.12,0-3.12,0-6.25,0-9.38,0-1.16-.35-1.6-1.56-1.61C261.8,151,259.86,151,259,153.47Z"/><path class="cls-2" d="M223.75,153.3c-1.14-.45-1.12-1.15-1.5-1.57a3.39,3.39,0,0,0-4.58-.39c-1.25,1.13-1.16,2.95.33,4.27a20.16,20.16,0,0,0,2.57,1.77,8.68,8.68,0,0,1,2.24,1.85,4.41,4.41,0,0,1-2.62,7.25,9.22,9.22,0,0,1-3.1,0c-2.35-.38-2.8-1.15-2.43-3.94a19.63,19.63,0,0,0,1.59,2.21,3.59,3.59,0,0,0,5.08.26c1.23-1.32.88-3.66-.82-5-.92-.71-2-1.28-2.91-2-2.36-1.7-3.09-4.31-1.77-6.25s4.95-2.64,6.95-1.49C223.89,151,223.23,152.12,223.75,153.3Z"/><path class="cls-2" d="M112.59,150.39h5.47c-2.11.44-1.86,2.06-1.86,3.54,0,3,0,6,0,9,0,1.43,0,2.76,1.83,3.25h-5.88c2.3-.73,2.21-2.25,2.19-3.78,0-3.06,0-6.12,0-9.18C114.32,151.91,114.12,150.83,112.59,150.39Z"/><path class="cls-2" d="M244.38,166.17h-5.67c2-.44,1.64-2,1.64-3.3,0-3.13,0-6.26,0-9.39,0-1.34.12-2.7-1.74-3h5.56c-2,.37-1.86,1.85-1.85,3.3,0,3.07,0,6.13,0,9.19C242.34,165.08,242.35,165.08,244.38,166.17Z"/><path class="cls-2" d="M174.3,16.44c-7.9-.41-15.43-.63-23.22.8,1.3-3,2.41-5.83,3.74-8.54.52-1.06,1.87-1.2,3.26-1.73-.72,1.94-1.28,3.58-2,5.17-.55,1.29-.32,1.73,1.15,1.51,5.2-.78,10.25.14,15.22,1.62A2.57,2.57,0,0,1,174.3,16.44Z"/><path class="cls-2" d="M196.52,13.76c-.84-2.32-1.59-4.37-2.36-6.49,3.26.57,4.22,2,6.7,9.9-7.58-1.32-15.11-1.16-22.69-1.05A28,28,0,0,1,187,13.66,37.09,37.09,0,0,1,196.52,13.76Z"/><path class="cls-2" d="M149.33,43.81c-.5-.3-1.7.64-1.76-.87,0-1.33,1.28-3.87,1.87-3.57.9.46,2.63-.13,2.63,1.57C152.07,43.55,151.74,43.82,149.33,43.81Z"/><path class="cls-2" d="M168.19,43.81c-2.24,0-2.61-.4-2.63-2.79,0-1.82,1.69-1.18,2.57-1.64.62-.33,2.09,2.39,1.91,3.77S168.66,43.4,168.19,43.81Z"/><path class="cls-2" d="M152.11,49.35c-.29,1.17-1.93,1.24-2.67,1.11-1.64-.27-1.52-2.1-1.83-3.39s.75-.94,1.39-1C151.59,46,152,46.38,152.11,49.35Z"/><path class="cls-2" d="M168.31,46.09c.44.37,1.88-.69,1.67.84-.18,1.35-.17,3.22-1.89,3.52-.67.11-2.56.24-2.53-1.62C165.6,46.46,166,46.09,168.31,46.09Z"/><path class="cls-2" d="M162,43.76c-1.38.15-2.23.13-2.21-1.48,0-1.86,1.28-1.42,2.28-1.55,1.71-.21,1.46,1.14,1.57,2.07C163.84,44.65,162.26,43.3,162,43.76Z"/><path class="cls-2" d="M162,46.1c.47.3,1.82-.65,1.65.93-.11,1,.21,2.44-1.65,2.19-1.05-.14-2.22.12-2.21-1.67S160.81,46.1,162,46.1Z"/><path class="cls-2" d="M155.57,43.81c-.54-.26-1.89.59-1.66-1,.15-.94-.07-2.36,1.75-2.13,1.13.15,2.11,0,2.08,1.72S156.6,43.75,155.57,43.81Z"/><path class="cls-2" d="M155.59,46.16c1.45-.22,2.15,0,2.14,1.52,0,1.86-1.32,1.4-2.28,1.54-1.7.23-1.41-1.27-1.52-2.11C153.72,45.46,155.17,46.4,155.59,46.16Z"/><path class="cls-2" d="M155.48,55.88a9.64,9.64,0,0,1-5-3.23c1.54-.92,2.77-1.09,3.52.89A14.63,14.63,0,0,0,155.48,55.88Z"/><path class="cls-2" d="M150.54,37.21a9.7,9.7,0,0,1,4.74-3.09C153,38.42,153,38.42,150.54,37.21Z"/><path class="cls-2" d="M162.17,34.08a10.38,10.38,0,0,1,4.82,3C164.84,38.45,164.84,38.45,162.17,34.08Z"/><path class="cls-2" d="M162.36,55.68c2.26-4.09,2.26-4.09,4.68-3A8.21,8.21,0,0,1,162.36,55.68Z"/><path class="cls-2" d="M160.21,35.3c.45.61.94,1.2,1.33,1.85.24.4.82.87.26,1.33-.29.24-.86.17-1.3.18-.81,0-.67-.62-.69-1.11,0-.7,0-1.4,0-2.1Z"/><path class="cls-2" d="M160.11,54.63c-.67-3.23-.54-3.43,1.93-3.22C161.85,52.73,161,53.58,160.11,54.63Z"/><path class="cls-2" d="M157.47,54.58a9.34,9.34,0,0,1-2-2.9C157.75,50.86,158,51.15,157.47,54.58Z"/><path class="cls-2" d="M157.68,35.63c0,.71,0,1.42,0,2.13,0,.47,0,1-.69.9-.44,0-1,0-1.3-.21-.46-.37.05-.82.27-1.17.39-.64.87-1.22,1.31-1.83Z"/></g></g></svg>