<svg xmlns="http://www.w3.org/2000/svg" viewBox="0 0 314.92 140.91"><defs><style>.cls-1{fill:#fff;}.cls-2{fill:none;stroke:#fff;stroke-miterlimit:10;stroke-width:0.01px;}</style></defs><g id="Layer_2" data-name="Layer 2"><g id="Layer_1-2" data-name="Layer 1"><path d="M314.91,140.89q-156.86,0-313.71,0c-.93,0-1.2-.12-1.19-1.14Q.06,69.89,0,0c.6,0,1.2,0,1.8,0q155.76,0,311.52,0c1.24,0,1.55.3,1.55,1.55q0,68.82,0,137.64C314.88,139.77,314.9,140.33,314.91,140.89ZM157.47,5.09H6.76c-1.63,0-1.63,0-1.63,1.63V134.05c0,1.75,0,1.75,1.75,1.75H308c1.87,0,1.87,0,1.87-1.87V7.08c0-2.21.23-2-2-2Z"/><path d="M157.48,133.45H9.16c-1.91,0-1.68.23-1.68-1.63V9c0-1.66,0-1.66,1.68-1.66H305.79c1.68,0,1.68,0,1.68,1.65V131.81c0,1.87.23,1.64-1.68,1.64ZM53.14,44c2.89-1,5-2.53,5.89-5.22,1.43-4-1-8.48-5.38-10.07a25.27,25.27,0,0,0-6.57-1.24c-4-.32-8.06,0-12.09,0-2.48,0-5,.23-7.42.32-.84,0-1.17.41-1,1.2s.8.39,1.21.4c4.85.06,5.51.71,5.51,5.57v24.2a13.31,13.31,0,0,1-.17,2.26A2.89,2.89,0,0,1,30.74,64a19.33,19.33,0,0,1-3.94.25.83.83,0,0,0-.74,1.23c.25.46.71.28,1.08.28q11.09,0,22.18,0a12.86,12.86,0,0,0,5.56-1.24,11,11,0,0,0,6.56-9.2c.47-4.16-1.36-7.25-4.78-9.5A26.86,26.86,0,0,0,53.14,44ZM280.39,56.6c-1.66-1.53-3.42-3-5-4.66q-11.3-11.65-22.5-23.4A1.83,1.83,0,0,0,251.4,28c-2.6,0-5.2,0-7.8,0-.46,0-1.08-.23-1.13.64s.42.88,1,.92a8.65,8.65,0,0,1,3.22.85,1.31,1.31,0,0,1,.86,1.38c0,9.43,0,18.85,0,28.28,0,3.09-1,4-4.1,4.16-.59,0-1.09,0-1.07.84s.61.68,1.09.68c4,0,8.07,0,12.11,0,.49,0,1.18.28,1.22-.67s-.61-.83-1.2-.85c-4.09-.1-4.93-1-4.94-5.1q0-11.93,0-23.84a2,2,0,0,1,.15-1.22l15.91,16.62q7.22,7.53,14.4,15.07a1.88,1.88,0,0,0,2,.41c.68-.17.35-.89.35-1.35q0-13.05,0-26.11c0-2.2,0-4.4,0-6.59a2.12,2.12,0,0,1,1.93-2.34,11,11,0,0,1,2.74-.26c.63,0,.82-.26.82-.86s-.41-.67-.87-.67h-13c-.48,0-.77.13-.76.67s.08.87.7.87c.39,0,.79,0,1.19,0,3.28.25,4,1,4,4.32v21.8C280.37,56,280.48,56.45,280.39,56.6ZM215.23,27a20.33,20.33,0,0,0-3.83.27c-6.56,1-12,3.86-15.52,9.65-4.8,7.91-4.09,18.82,4.19,25a23.89,23.89,0,0,0,16.08,4.7,21.29,21.29,0,0,0,15.39-7.21c6.06-6.74,6.79-17.19,1.56-24.07C228.63,29.54,222.4,27.23,215.23,27ZM91.62,27a19.53,19.53,0,0,0-3.83.27c-6.94,1-12.58,4.18-16,10.47-4.13,7.6-3.52,17.56,4.09,23.77a23.57,23.57,0,0,0,16.63,5.15A21.26,21.26,0,0,0,108.3,59c6-7.07,6.29-17.64.51-24.45C104.33,29.31,98.38,27.19,91.62,27Zm75.8,19V50.2c0,3.51,0,7,0,10.54,0,2.32-1.09,3.33-3.4,3.44-.88,0-1.76,0-2.64,0-.63,0-.94.13-.94.85s.5.68,1,.68h17.39c.5,0,1.06.13,1.07-.71s-.54-.82-1.11-.82c-.76,0-1.52,0-2.28,0-2.45-.1-3.53-1.1-3.54-3.55,0-9.74,0-19.48,0-29.23,0-.71.22-1,1-.95,3.07,0,6.15,0,9.23,0a3.09,3.09,0,0,1,3.07,2,16.68,16.68,0,0,1,1.11,4c.12.72.54.64,1,.65.66,0,.54-.46.5-.84-.28-2.81-.56-5.63-.87-8.44-.1-.88-.93-1.25-1.55-.64a2.67,2.67,0,0,1-2.07.7q-14.08,0-28.17,0a2.6,2.6,0,0,1-2.18-.7.93.93,0,0,0-1.6.64q-.42,4.17-.78,8.34c0,.36-.34.92.46,1,.6,0,1-.1,1.06-.79a15.83,15.83,0,0,1,.92-3.58,3.33,3.33,0,0,1,3.48-2.36q4.38.08,8.75,0c.93,0,1.22.23,1.21,1.18C167.39,36.42,167.42,41.22,167.42,46Zm-35.18-19a12.72,12.72,0,0,0-3,.23c-4.18.74-7.36,3.56-8,7.34-.58,3.18.73,5.77,2.86,8a37.82,37.82,0,0,0,7.26,5.44c2.61,1.68,5.37,3.19,7.42,5.61a6.34,6.34,0,0,1-2.48,10.25,10,10,0,0,1-11.46-2.62,10.51,10.51,0,0,1-2.32-4.4c-.19-.71-.64-.71-1.18-.67-.75.06-.47.63-.42,1,.34,2.53.76,5.05,1,7.58.13,1.15.89,1.16,1.47.78a2.8,2.8,0,0,1,2.5-.14c.81.22,1.62.45,2.43.66a15.63,15.63,0,0,0,11.51-1,9.7,9.7,0,0,0,2.5-15.81,28.37,28.37,0,0,0-4.63-3.77c-2.52-1.69-5.19-3.14-7.62-5a12,12,0,0,1-3.18-3.22,5.24,5.24,0,0,1,2.9-8,8.79,8.79,0,0,1,6.53.38,10.67,10.67,0,0,1,5.49,5.59,1,1,0,0,0,1.31.66c.6-.18.3-.74.25-1.11-.25-2-.61-4-.82-6-.1-1-.83-1.06-1.3-.73-1,.74-2,.39-3,.05A16.43,16.43,0,0,0,132.24,27.05Zm-66,64.46c.77.66,1.55,1.23,2.21,1.91q8.72,9.06,17.39,18.17c.47.49,1,1.07,1.72.79s.39-1,.39-1.57c0-6.82,0-13.65,0-20.47,0-1.63.4-2,2-2.14.24,0,.48,0,.72,0,.42-.06.92,0,.89-.7s-.58-.52-1-.52c-2.55,0-5.11,0-7.67,0-.4,0-1.06-.3-1.1.51s.59.69,1.1.73c2.34.15,2.81.65,2.81,3q0,6.89,0,13.77c0,.29.13.63-.14.89-.33,0-.47-.3-.66-.5L68,87.68c-.33-.34-.59-.73-1.17-.72-1.79,0-3.59,0-5.39,0-.39,0-.73,0-.73.56s.32.59.7.64.72.08,1.07.15c1.11.21,1.72.7,1.61,2-.14,1.58,0,3.19,0,4.79q0,6.76,0,13.53c0,1.46-.61,2.09-2.07,2.25-.28,0-.56,0-.84,0s-.46.23-.47.55.07.64.51.64h8.63c.42,0,.53-.24.53-.62s-.17-.58-.58-.58c-.23,0-.47,0-.71,0-2.1-.1-2.68-.65-2.75-2.77-.06-1.79,0-3.59,0-5.39C66.26,99,66.26,95.19,66.26,91.51Zm105.8,20.63h5.15c.45,0,.79-.08.77-.65s-.35-.56-.73-.56h-.6c-2.11,0-2.72-.64-2.74-2.71,0-1.76.07-3.52,0-5.27,0-1,.31-1.27,1.27-1.2a14.09,14.09,0,0,0,2.75-.13,1.72,1.72,0,0,1,1.73.76q2.73,3.48,5.55,6.9c2.15,2.6,4.93,3.35,8.1,3.27.38,0,.85.1.92-.5s-.28-.65-.72-.72a7.2,7.2,0,0,1-4.57-3c-1.84-2.35-3.69-4.71-5.57-7-.44-.56-.58-.83.24-1.26a6.56,6.56,0,0,0,3.49-8c-.92-2.82-3.2-4.12-5.87-4.74-4.75-1.09-9.55-.27-14.33-.17-.39,0-.56.23-.56.61s.22.56.59.55h.6c1.93,0,2.53.46,2.6,2.33.24,5.94.18,11.89,0,17.83a8,8,0,0,1-.1.84,1.8,1.8,0,0,1-1.74,1.66,9.63,9.63,0,0,1-1.2.05c-.45,0-.8.06-.79.63s.41.58.83.58ZM29.7,97.06c0,2.26,0,4.1,0,5.93a9.11,9.11,0,0,0,5.84,8.69,15.72,15.72,0,0,0,7.26,1c6.57-.35,10.54-4.46,10.55-11,0-3.39,0-6.78,0-10.18,0-2.18.73-3.08,2.6-3.33.48-.06,1,0,1-.74s-.69-.5-1.09-.51q-3.76,0-7.55,0c-.39,0-1-.31-1.06.53s.51.67,1,.72c2.12.21,2.81.85,2.84,2.92,0,3.94.12,7.9,0,11.84a6.87,6.87,0,0,1-4.74,6.68,12.08,12.08,0,0,1-5.07.58c-5.12-.35-7.84-3.23-7.85-8.35,0-3.35,0-6.7,0-10.05,0-2.94,0-2.95,2.86-3.7.36-.09.55-.23.56-.62s-.18-.56-.58-.56H26.76c-.3,0-.56,0-.58.44s0,.65.44.73a7.53,7.53,0,0,0,.83.08c1.54.11,2,.5,2.13,2C29.84,92.62,29.61,95.06,29.7,97.06Zm120.59,15.08c3.24,0,6.48,0,9.71,0,.82,0,1.14-.27,1.2-1.07.11-1.47.32-2.93.45-4.4,0-.3.25-.76-.34-.84a.7.7,0,0,0-.88.58c-.09.39-.26.75-.38,1.13a3.55,3.55,0,0,1-3.75,2.72c-2,0-4.07,0-6.11,0-1.74,0-2.11-.38-2.13-2.12,0-2.4,0-4.79,0-7.19,0-.82.29-1,1-1,1.68,0,3.36,0,5,0,2.14,0,2.48.26,2.94,2.32.1.48.15.84.77.79s.52-.51.52-.88q0-3,0-6c0-.4.17-.94-.51-1s-.68.45-.78.93c-.34,1.68-.81,2-2.52,2.06s-3.67,0-5.51,0c-.69,0-1-.12-1-.91,0-2.51,0-5,0-7.54,0-.78.3-.94,1-.93,1.64,0,3.28,0,4.92,0,3.74,0,3.75,0,5,3.55.14.38.32.52.68.49s.48-.3.46-.67c-.09-1.35-.19-2.71-.22-4.06,0-.93-.3-1.25-1.32-1.24-5.67.06-11.35,0-17,0h-.84a.38.38,0,0,0-.42.45c0,.27-.05.59.33.66a4.57,4.57,0,0,0,.83.06c2.42.17,2.9.68,2.9,3.09,0,5.27,0,10.54,0,15.81,0,3.5-.31,3.82-3.78,3.91-.44,0-1-.18-1,.61s.61.59,1,.6C143.82,112.15,147.06,112.14,150.29,112.14Zm126-12.28a3.35,3.35,0,0,1-.28-.25q-2.84-4.36-5.65-8.74c-1.44-2.23-1.43-2.26,1.11-2.72.45-.09.76-.21.72-.74s-.45-.47-.8-.47h-9.46c-.36,0-.73,0-.74.52s.25.72.73.72c1.91,0,3.1,1.08,4.06,2.54,1.64,2.5,3.09,5.14,4.9,7.5A13.14,13.14,0,0,1,273.7,108c-.23,2.32-.57,2.87-2.9,3-.43,0-1-.19-1,.6s.6.6,1,.61c3,0,6.07,0,9.1,0,.45,0,1.16.29,1.19-.57s-.67-.6-1.13-.63c-.95-.06-2.06-.13-2.26-1.18a27.1,27.1,0,0,1-.08-7.84c0-.07.09-.14.13-.2l6.54-11a5,5,0,0,1,3.87-2.5c.47-.06.9-.11.84-.74s-.53-.49-.9-.5q-3.71,0-7.43,0c-.41,0-1.05-.24-1,.57s.64.58,1.07.63c1.59.19,1.92.71,1.13,2.11C280,93.48,278.15,96.62,276.25,99.86Zm-151.18,8-.57-1.36c-2-5-4-10.07-6.09-15.07-.93-2.21-.9-3,2.09-3.28l.24,0c.48-.05,1.13.1,1.11-.71s-.68-.52-1.08-.52c-3,0-6.07,0-9.11,0-.39,0-1-.34-1.13.46s.55.75,1,.77a2.31,2.31,0,0,1,2.16,1.44c.31.65.61,1.3.88,2q4,10,8,20c.31.79.63,1.29,1.67,1.3s1.33-.6,1.62-1.36q1.57-4.14,3.17-8.25c1.53-3.94,3-7.88,4.58-11.81.64-1.64,1.42-3.17,3.51-3.28.44,0,.61-.29.59-.73s-.44-.48-.77-.48q-4,0-7.91,0c-.38,0-1-.23-1,.51s.56.64,1,.71c.24,0,.48,0,.72,0,1.84.14,2.4.87,1.76,2.59C129.48,96.43,127.31,102,125.07,107.91ZM248.8,99.19c0-3.11,0-6.22,0-9.33,0-.8.25-1.06,1-1,1.2,0,2.4,0,3.6,0,3.73,0,3.73,0,4.74,3.6.1.38.13.82.71.76s.47-.55.44-.9c-.14-1.75-.33-3.49-.49-5.24-.08-.81-.69-.79-1.12-.51a2.55,2.55,0,0,1-1.57.39H237.79a2.48,2.48,0,0,1-1.48-.33c-.64-.43-1.13-.23-1.21.62-.17,1.74-.36,3.49-.52,5.23,0,.3-.12.68.37.74a.64.64,0,0,0,.8-.52c.14-.62.24-1.26.43-1.86.51-1.65,1-2,2.66-2s3.35,0,5,0c.88,0,1.25.16,1.24,1.17-.05,5.79,0,11.57,0,17.36,0,3.24-.27,3.5-3.53,3.58-.43,0-1-.2-1.05.59s.57.62,1,.62c3.4,0,6.79,0,10.19,0,.57,0,1.69.58,1.68-.61,0-1-1.06-.53-1.63-.55-2.36-.07-2.95-.63-3-3ZM204.05,86.46c-.48,0-1,0-1.44,0-3.52.29-6.08,2.88-6,6.08.07,2.64,1.73,4.31,3.65,5.74,1.69,1.26,3.51,2.35,5.27,3.53a11.42,11.42,0,0,1,3,2.67,4,4,0,0,1-.85,5.64,6.52,6.52,0,0,1-8.64-1.17,7,7,0,0,1-1.43-2.73.68.68,0,0,0-.91-.53c-.47.1-.34.49-.3.77.22,1.66.48,3.32.69,5,.09.75.55.89,1.07.55a1.76,1.76,0,0,1,1.59-.09,14.27,14.27,0,0,0,6.11.75c3-.47,5.41-1.78,6.48-4.78s0-5.21-2.1-7.22a37,37,0,0,0-6-4.18,14.09,14.09,0,0,1-3.42-2.78,3.45,3.45,0,0,1,1.81-5.75,6.46,6.46,0,0,1,7.14,3.12c.2.34.35.72.55,1.06a.66.66,0,0,0,.85.24c.3-.11.25-.36.21-.6-.19-1.42-.4-2.84-.56-4.27-.07-.6-.52-.71-.83-.49-.88.65-1.67.19-2.48-.07A8.83,8.83,0,0,0,204.05,86.46Zm-102.13.48c-1.35,0-2.71,0-4.07,0-.37,0-.93-.26-1,.5s.47.69,1,.76c1.44.21,2,.67,2,2.07q0,9.21,0,18.41c0,1.61-.47,2-2.07,2.2-.47.06-.88.07-.83.72s.49.53.87.53c2.75,0,5.51,0,8.26,0,.41,0,.94.15,1-.55s-.54-.63-1-.67c-1.79-.16-2.33-.63-2.35-2.47-.06-5.78-.08-11.56,0-17.34,0-2.38.23-2.51,2.63-3,.43-.07.77-.17.74-.72s-.52-.49-.88-.5ZM226.26,99.56c0-2.83,0-5.66,0-8.5,0-1.78.43-2.91,2.48-2.89.45,0,.89-.08.86-.72s-.6-.5-1-.5c-2.64,0-5.27,0-7.91,0-.39,0-1-.31-1.08.52s.48.67,1,.75c1.42.22,1.93.79,1.94,2.25q0,9,0,18c0,1.69-.47,2.2-2.12,2.46-.42.07-.79.08-.79.65s.4.6.82.6h8.39c.44,0,.79,0,.77-.63s-.3-.54-.7-.59c-2.23-.29-2.64-.74-2.65-3C226.25,105.15,226.26,102.36,226.26,99.56Z"/><path d="M43.26,45.12a14.9,14.9,0,0,1,6.65,1,8.59,8.59,0,0,1,5.45,7.28c.33,3.55-.44,6.85-3.73,8.85a12.11,12.11,0,0,1-10.16,1c-2.18-.66-2.67-2.64-2.72-4.61-.09-4.19,0-8.37,0-12.56,0-.69.28-.9.93-.87C40.67,45.15,41.71,45.12,43.26,45.12Z"/><path d="M38.72,36.36c0-2.12,0-4.24,0-6.35,0-.53,0-1,.73-1,2.63,0,5.26-.32,7.88.22a7.54,7.54,0,0,1,6,9.63,5.48,5.48,0,0,1-3.63,4,13.85,13.85,0,0,1-5.07.71c-1.68,0-3.36,0-5,0-.67,0-.9-.19-.89-.88C38.75,40.59,38.72,38.47,38.72,36.36Z"/><path d="M230.48,47.61a20.44,20.44,0,0,1-1.29,7.77c-3.59,9.55-12.69,11.34-20,7.91-6.37-3-9.33-8.43-10.08-15.21a20.09,20.09,0,0,1,1.24-9.52c3.1-8.1,10.82-11.65,19-8.65,6,2.22,9.24,6.81,10.64,12.87A18.9,18.9,0,0,1,230.48,47.61Z"/><path d="M89.23,28.94c9.14,0,15.72,5.78,17.24,14.32a23.08,23.08,0,0,1-.69,11.46c-3.24,9.84-12.44,12.18-20.2,8.57-6-2.78-9-7.83-10-14.16a19.7,19.7,0,0,1,2.55-13.48C80.87,31.18,84.88,29,89.23,28.94Z"/><path d="M173.91,94.22c0-1.76,0-3.51,0-5.27,0-.75.2-1.12,1-1.07,1,.06,2.09,0,3.11.16,4,.65,5.86,3.44,5.14,7.56-.53,3.05-2.52,4.75-5.83,5s-3.4.25-3.4-3.13Z"/><path class="cls-1" d="M314.91,140.89q-156.86,0-313.71,0c-.93,0-1.2-.12-1.19-1.14Q.06,69.89,0,0c.6,0,1.2,0,1.8,0q155.76,0,311.52,0c1.24,0,1.55.3,1.55,1.55q0,68.82,0,137.64C314.88,139.77,314.9,140.33,314.91,140.89ZM157.47,5.09H6.76c-1.63,0-1.63,0-1.63,1.63V134.05c0,1.75,0,1.75,1.75,1.75H308c1.87,0,1.87,0,1.87-1.87V7.08c0-2.21.23-2-2-2Z"/><path class="cls-1" d="M157.48,133.45H9.16c-1.91,0-1.68.23-1.68-1.63V9c0-1.66,0-1.66,1.68-1.66H305.79c1.68,0,1.68,0,1.68,1.65V131.81c0,1.87.23,1.64-1.68,1.64ZM53.14,44c2.89-1,5-2.53,5.89-5.22,1.43-4-1-8.48-5.38-10.07a25.27,25.27,0,0,0-6.57-1.24c-4-.32-8.06,0-12.09,0-2.48,0-5,.23-7.42.32-.84,0-1.17.41-1,1.2s.8.39,1.21.4c4.85.06,5.51.71,5.51,5.57v24.2a13.31,13.31,0,0,1-.17,2.26A2.89,2.89,0,0,1,30.74,64a19.33,19.33,0,0,1-3.94.25.83.83,0,0,0-.74,1.23c.25.46.71.28,1.08.28q11.09,0,22.18,0a12.86,12.86,0,0,0,5.56-1.24,11,11,0,0,0,6.56-9.2c.47-4.16-1.36-7.25-4.78-9.5A26.86,26.86,0,0,0,53.14,44ZM280.39,56.6c-1.66-1.53-3.42-3-5-4.66q-11.3-11.65-22.5-23.4A1.83,1.83,0,0,0,251.4,28c-2.6,0-5.2,0-7.8,0-.46,0-1.08-.23-1.13.64s.42.88,1,.92a8.65,8.65,0,0,1,3.22.85,1.31,1.31,0,0,1,.86,1.38c0,9.43,0,18.85,0,28.28,0,3.09-1,4-4.1,4.16-.59,0-1.09,0-1.07.84s.61.68,1.09.68c4,0,8.07,0,12.11,0,.49,0,1.18.28,1.22-.67s-.61-.83-1.2-.85c-4.09-.1-4.93-1-4.94-5.1q0-11.93,0-23.84a2,2,0,0,1,.15-1.22l15.91,16.62q7.22,7.53,14.4,15.07a1.88,1.88,0,0,0,2,.41c.68-.17.35-.89.35-1.35q0-13.05,0-26.11c0-2.2,0-4.4,0-6.59a2.12,2.12,0,0,1,1.93-2.34,11,11,0,0,1,2.74-.26c.63,0,.82-.26.82-.86s-.41-.67-.87-.67h-13c-.48,0-.77.13-.76.67s.08.87.7.87c.39,0,.79,0,1.19,0,3.28.25,4,1,4,4.32v21.8C280.37,56,280.48,56.45,280.39,56.6ZM215.23,27a20.33,20.33,0,0,0-3.83.27c-6.56,1-12,3.86-15.52,9.65-4.8,7.91-4.09,18.82,4.19,25a23.89,23.89,0,0,0,16.08,4.7,21.29,21.29,0,0,0,15.39-7.21c6.06-6.74,6.79-17.19,1.56-24.07C228.63,29.54,222.4,27.23,215.23,27ZM91.62,27a19.53,19.53,0,0,0-3.83.27c-6.94,1-12.58,4.18-16,10.47-4.13,7.6-3.52,17.56,4.09,23.77a23.57,23.57,0,0,0,16.63,5.15A21.26,21.26,0,0,0,108.3,59c6-7.07,6.29-17.64.51-24.45C104.33,29.31,98.38,27.19,91.62,27Zm75.8,19V50.2c0,3.51,0,7,0,10.54,0,2.32-1.09,3.33-3.4,3.44-.88,0-1.76,0-2.64,0-.63,0-.94.13-.94.85s.5.68,1,.68h17.39c.5,0,1.06.13,1.07-.71s-.54-.82-1.11-.82c-.76,0-1.52,0-2.28,0-2.45-.1-3.53-1.1-3.54-3.55,0-9.74,0-19.48,0-29.23,0-.71.22-1,1-.95,3.07,0,6.15,0,9.23,0a3.09,3.09,0,0,1,3.07,2,16.68,16.68,0,0,1,1.11,4c.12.72.54.64,1,.65.66,0,.54-.46.5-.84-.28-2.81-.56-5.63-.87-8.44-.1-.88-.93-1.25-1.55-.64a2.67,2.67,0,0,1-2.07.7q-14.08,0-28.17,0a2.6,2.6,0,0,1-2.18-.7.93.93,0,0,0-1.6.64q-.42,4.17-.78,8.34c0,.36-.34.92.46,1,.6,0,1-.1,1.06-.79a15.83,15.83,0,0,1,.92-3.58,3.33,3.33,0,0,1,3.48-2.36q4.38.08,8.75,0c.93,0,1.22.23,1.21,1.18C167.39,36.42,167.42,41.22,167.42,46Zm-35.18-19a12.72,12.72,0,0,0-3,.23c-4.18.74-7.36,3.56-8,7.34-.58,3.18.73,5.77,2.86,8a37.82,37.82,0,0,0,7.26,5.44c2.61,1.68,5.37,3.19,7.42,5.61a6.34,6.34,0,0,1-2.48,10.25,10,10,0,0,1-11.46-2.62,10.51,10.51,0,0,1-2.32-4.4c-.19-.71-.64-.71-1.18-.67-.75.06-.47.63-.42,1,.34,2.53.76,5.05,1,7.58.13,1.15.89,1.16,1.47.78a2.8,2.8,0,0,1,2.5-.14c.81.22,1.62.45,2.43.66a15.63,15.63,0,0,0,11.51-1,9.7,9.7,0,0,0,2.5-15.81,28.37,28.37,0,0,0-4.63-3.77c-2.52-1.69-5.19-3.14-7.62-5a12,12,0,0,1-3.18-3.22,5.24,5.24,0,0,1,2.9-8,8.79,8.79,0,0,1,6.53.38,10.67,10.67,0,0,1,5.49,5.59,1,1,0,0,0,1.31.66c.6-.18.3-.74.25-1.11-.25-2-.61-4-.82-6-.1-1-.83-1.06-1.3-.73-1,.74-2,.39-3,.05A16.43,16.43,0,0,0,132.24,27.05Zm-66,64.46c.77.66,1.55,1.23,2.21,1.91q8.72,9.06,17.39,18.17c.47.49,1,1.07,1.72.79s.39-1,.39-1.57c0-6.82,0-13.65,0-20.47,0-1.63.4-2,2-2.14.24,0,.48,0,.72,0,.42-.06.92,0,.89-.7s-.58-.52-1-.52c-2.55,0-5.11,0-7.67,0-.4,0-1.06-.3-1.1.51s.59.69,1.1.73c2.34.15,2.81.65,2.81,3q0,6.89,0,13.77c0,.29.13.63-.14.89-.33,0-.47-.3-.66-.5L68,87.68c-.33-.34-.59-.73-1.17-.72-1.79,0-3.59,0-5.39,0-.39,0-.73,0-.73.56s.32.59.7.64.72.08,1.07.15c1.11.21,1.72.7,1.61,2-.14,1.58,0,3.19,0,4.79q0,6.76,0,13.53c0,1.46-.61,2.09-2.07,2.25-.28,0-.56,0-.84,0s-.46.23-.47.55.07.64.51.64h8.63c.42,0,.53-.24.53-.62s-.17-.58-.58-.58c-.23,0-.47,0-.71,0-2.1-.1-2.68-.65-2.75-2.77-.06-1.79,0-3.59,0-5.39C66.26,99,66.26,95.19,66.26,91.51Zm105.8,20.63h5.15c.45,0,.79-.08.77-.65s-.35-.56-.73-.56h-.6c-2.11,0-2.72-.64-2.74-2.71,0-1.76.07-3.52,0-5.27,0-1,.31-1.27,1.27-1.2a14.09,14.09,0,0,0,2.75-.13,1.72,1.72,0,0,1,1.73.76q2.73,3.48,5.55,6.9c2.15,2.6,4.93,3.35,8.1,3.27.38,0,.85.1.92-.5s-.28-.65-.72-.72a7.2,7.2,0,0,1-4.57-3c-1.84-2.35-3.69-4.71-5.57-7-.44-.56-.58-.83.24-1.26a6.56,6.56,0,0,0,3.49-8c-.92-2.82-3.2-4.12-5.87-4.74-4.75-1.09-9.55-.27-14.33-.17-.39,0-.56.23-.56.61s.22.56.59.55h.6c1.93,0,2.53.46,2.6,2.33.24,5.94.18,11.89,0,17.83a8,8,0,0,1-.1.84,1.8,1.8,0,0,1-1.74,1.66,9.63,9.63,0,0,1-1.2.05c-.45,0-.8.06-.79.63s.41.58.83.58ZM29.7,97.06c0,2.26,0,4.1,0,5.93a9.11,9.11,0,0,0,5.84,8.69,15.72,15.72,0,0,0,7.26,1c6.57-.35,10.54-4.46,10.55-11,0-3.39,0-6.78,0-10.18,0-2.18.73-3.08,2.6-3.33.48-.06,1,0,1-.74s-.69-.5-1.09-.51q-3.76,0-7.55,0c-.39,0-1-.31-1.06.53s.51.67,1,.72c2.12.21,2.81.85,2.84,2.92,0,3.94.12,7.9,0,11.84a6.87,6.87,0,0,1-4.74,6.68,12.08,12.08,0,0,1-5.07.58c-5.12-.35-7.84-3.23-7.85-8.35,0-3.35,0-6.7,0-10.05,0-2.94,0-2.95,2.86-3.7.36-.09.55-.23.56-.62s-.18-.56-.58-.56H26.76c-.3,0-.56,0-.58.44s0,.65.44.73a7.53,7.53,0,0,0,.83.08c1.54.11,2,.5,2.13,2C29.84,92.62,29.61,95.06,29.7,97.06Zm120.59,15.08c3.24,0,6.48,0,9.71,0,.82,0,1.14-.27,1.2-1.07.11-1.47.32-2.93.45-4.4,0-.3.25-.76-.34-.84a.7.7,0,0,0-.88.58c-.09.39-.26.75-.38,1.13a3.55,3.55,0,0,1-3.75,2.72c-2,0-4.07,0-6.11,0-1.74,0-2.11-.38-2.13-2.12,0-2.4,0-4.79,0-7.19,0-.82.29-1,1-1,1.68,0,3.36,0,5,0,2.14,0,2.48.26,2.94,2.32.1.48.15.84.77.79s.52-.51.52-.88q0-3,0-6c0-.4.17-.94-.51-1s-.68.45-.78.93c-.34,1.68-.81,2-2.52,2.06s-3.67,0-5.51,0c-.69,0-1-.12-1-.91,0-2.51,0-5,0-7.54,0-.78.3-.94,1-.93,1.64,0,3.28,0,4.92,0,3.74,0,3.75,0,5,3.55.14.38.32.52.68.49s.48-.3.46-.67c-.09-1.35-.19-2.71-.22-4.06,0-.93-.3-1.25-1.32-1.24-5.67.06-11.35,0-17,0h-.84a.38.38,0,0,0-.42.45c0,.27-.05.59.33.66a4.57,4.57,0,0,0,.83.06c2.42.17,2.9.68,2.9,3.09,0,5.27,0,10.54,0,15.81,0,3.5-.31,3.82-3.78,3.91-.44,0-1-.18-1,.61s.61.59,1,.6C143.82,112.15,147.06,112.14,150.29,112.14Zm126-12.28a3.35,3.35,0,0,1-.28-.25q-2.84-4.36-5.65-8.74c-1.44-2.23-1.43-2.26,1.11-2.72.45-.09.76-.21.72-.74s-.45-.47-.8-.47h-9.46c-.36,0-.73,0-.74.52s.25.72.73.72c1.91,0,3.1,1.08,4.06,2.54,1.64,2.5,3.09,5.14,4.9,7.5A13.14,13.14,0,0,1,273.7,108c-.23,2.32-.57,2.87-2.9,3-.43,0-1-.19-1,.6s.6.6,1,.61c3,0,6.07,0,9.1,0,.45,0,1.16.29,1.19-.57s-.67-.6-1.13-.63c-.95-.06-2.06-.13-2.26-1.18a27.1,27.1,0,0,1-.08-7.84c0-.07.09-.14.13-.2l6.54-11a5,5,0,0,1,3.87-2.5c.47-.06.9-.11.84-.74s-.53-.49-.9-.5q-3.71,0-7.43,0c-.41,0-1.05-.24-1,.57s.64.58,1.07.63c1.59.19,1.92.71,1.13,2.11C280,93.48,278.15,96.62,276.25,99.86Zm-151.18,8-.57-1.36c-2-5-4-10.07-6.09-15.07-.93-2.21-.9-3,2.09-3.28l.24,0c.48-.05,1.13.1,1.11-.71s-.68-.52-1.08-.52c-3,0-6.07,0-9.11,0-.39,0-1-.34-1.13.46s.55.75,1,.77a2.31,2.31,0,0,1,2.16,1.44c.31.65.61,1.3.88,2q4,10,8,20c.31.79.63,1.29,1.67,1.3s1.33-.6,1.62-1.36q1.57-4.14,3.17-8.25c1.53-3.94,3-7.88,4.58-11.81.64-1.64,1.42-3.17,3.51-3.28.44,0,.61-.29.59-.73s-.44-.48-.77-.48q-4,0-7.91,0c-.38,0-1-.23-1,.51s.56.64,1,.71c.24,0,.48,0,.72,0,1.84.14,2.4.87,1.76,2.59C129.48,96.43,127.31,102,125.07,107.91ZM248.8,99.19c0-3.11,0-6.22,0-9.33,0-.8.25-1.06,1-1,1.2,0,2.4,0,3.6,0,3.73,0,3.73,0,4.74,3.6.1.38.13.82.71.76s.47-.55.44-.9c-.14-1.75-.33-3.49-.49-5.24-.08-.81-.69-.79-1.12-.51a2.55,2.55,0,0,1-1.57.39H237.79a2.48,2.48,0,0,1-1.48-.33c-.64-.43-1.13-.23-1.21.62-.17,1.74-.36,3.49-.52,5.23,0,.3-.12.68.37.74a.64.64,0,0,0,.8-.52c.14-.62.24-1.26.43-1.86.51-1.65,1-2,2.66-2s3.35,0,5,0c.88,0,1.25.16,1.24,1.17-.05,5.79,0,11.57,0,17.36,0,3.24-.27,3.5-3.53,3.58-.43,0-1-.2-1.05.59s.57.62,1,.62c3.4,0,6.79,0,10.19,0,.57,0,1.69.58,1.68-.61,0-1-1.06-.53-1.63-.55-2.36-.07-2.95-.63-3-3ZM204.05,86.46c-.48,0-1,0-1.44,0-3.52.29-6.08,2.88-6,6.08.07,2.64,1.73,4.31,3.65,5.74,1.69,1.26,3.51,2.35,5.27,3.53a11.42,11.42,0,0,1,3,2.67,4,4,0,0,1-.85,5.64,6.52,6.52,0,0,1-8.64-1.17,7,7,0,0,1-1.43-2.73.68.68,0,0,0-.91-.53c-.47.1-.34.49-.3.77.22,1.66.48,3.32.69,5,.09.75.55.89,1.07.55a1.76,1.76,0,0,1,1.59-.09,14.27,14.27,0,0,0,6.11.75c3-.47,5.41-1.78,6.48-4.78s0-5.21-2.1-7.22a37,37,0,0,0-6-4.18,14.09,14.09,0,0,1-3.42-2.78,3.45,3.45,0,0,1,1.81-5.75,6.46,6.46,0,0,1,7.14,3.12c.2.34.35.72.55,1.06a.66.66,0,0,0,.85.24c.3-.11.25-.36.21-.6-.19-1.42-.4-2.84-.56-4.27-.07-.6-.52-.71-.83-.49-.88.65-1.67.19-2.48-.07A8.83,8.83,0,0,0,204.05,86.46Zm-102.13.48c-1.35,0-2.71,0-4.07,0-.37,0-.93-.26-1,.5s.47.69,1,.76c1.44.21,2,.67,2,2.07q0,9.21,0,18.41c0,1.61-.47,2-2.07,2.2-.47.06-.88.07-.83.72s.49.53.87.53c2.75,0,5.51,0,8.26,0,.41,0,.94.15,1-.55s-.54-.63-1-.67c-1.79-.16-2.33-.63-2.35-2.47-.06-5.78-.08-11.56,0-17.34,0-2.38.23-2.51,2.63-3,.43-.07.77-.17.74-.72s-.52-.49-.88-.5ZM226.26,99.56c0-2.83,0-5.66,0-8.5,0-1.78.43-2.91,2.48-2.89.45,0,.89-.08.86-.72s-.6-.5-1-.5c-2.64,0-5.27,0-7.91,0-.39,0-1-.31-1.08.52s.48.67,1,.75c1.42.22,1.93.79,1.94,2.25q0,9,0,18c0,1.69-.47,2.2-2.12,2.46-.42.07-.79.08-.79.65s.4.6.82.6h8.39c.44,0,.79,0,.77-.63s-.3-.54-.7-.59c-2.23-.29-2.64-.74-2.65-3C226.25,105.15,226.26,102.36,226.26,99.56Z"/><path class="cls-1" d="M43.26,45.12a14.9,14.9,0,0,1,6.65,1,8.59,8.59,0,0,1,5.45,7.28c.33,3.55-.44,6.85-3.73,8.85a12.11,12.11,0,0,1-10.16,1c-2.18-.66-2.67-2.64-2.72-4.61-.09-4.19,0-8.37,0-12.56,0-.69.28-.9.93-.87C40.67,45.15,41.71,45.12,43.26,45.12Z"/><path class="cls-1" d="M38.72,36.36c0-2.12,0-4.24,0-6.35,0-.53,0-1,.73-1,2.63,0,5.26-.32,7.88.22a7.54,7.54,0,0,1,6,9.63,5.48,5.48,0,0,1-3.63,4,13.85,13.85,0,0,1-5.07.71c-1.68,0-3.36,0-5,0-.67,0-.9-.19-.89-.88C38.75,40.59,38.72,38.47,38.72,36.36Z"/><path class="cls-1" d="M230.48,47.61a20.44,20.44,0,0,1-1.29,7.77c-3.59,9.55-12.69,11.34-20,7.91-6.37-3-9.33-8.43-10.08-15.21a20.09,20.09,0,0,1,1.24-9.52c3.1-8.1,10.82-11.65,19-8.65,6,2.22,9.24,6.81,10.64,12.87A18.9,18.9,0,0,1,230.48,47.61Z"/><path class="cls-1" d="M89.23,28.94c9.14,0,15.72,5.78,17.24,14.32a23.08,23.08,0,0,1-.69,11.46c-3.24,9.84-12.44,12.18-20.2,8.57-6-2.78-9-7.83-10-14.16a19.7,19.7,0,0,1,2.55-13.48C80.87,31.18,84.88,29,89.23,28.94Z"/><path class="cls-1" d="M173.91,94.22c0-1.76,0-3.51,0-5.27,0-.75.2-1.12,1-1.07,1,.06,2.09,0,3.11.16,4,.65,5.86,3.44,5.14,7.56-.53,3.05-2.52,4.75-5.83,5s-3.4.25-3.4-3.13Z"/><path class="cls-2" d="M314.91,140.89q-156.86,0-313.71,0c-.93,0-1.2-.12-1.19-1.14Q.06,69.89,0,0c.6,0,1.2,0,1.8,0q155.76,0,311.52,0c1.24,0,1.55.3,1.55,1.55q0,68.82,0,137.64C314.88,139.77,314.9,140.33,314.91,140.89ZM157.47,5.09H6.76c-1.63,0-1.63,0-1.63,1.63V134.05c0,1.75,0,1.75,1.75,1.75H308c1.87,0,1.87,0,1.87-1.87V7.08c0-2.21.23-2-2-2Z"/><path class="cls-2" d="M157.48,133.45H9.16c-1.91,0-1.68.23-1.68-1.63V9c0-1.66,0-1.66,1.68-1.66H305.79c1.68,0,1.68,0,1.68,1.65V131.81c0,1.87.23,1.64-1.68,1.64ZM53.14,44c2.89-1,5-2.53,5.89-5.22,1.43-4-1-8.48-5.38-10.07a25.27,25.27,0,0,0-6.57-1.24c-4-.32-8.06,0-12.09,0-2.48,0-5,.23-7.42.32-.84,0-1.17.41-1,1.2s.8.39,1.21.4c4.85.06,5.51.71,5.51,5.57v24.2a13.31,13.31,0,0,1-.17,2.26A2.89,2.89,0,0,1,30.74,64a19.33,19.33,0,0,1-3.94.25.83.83,0,0,0-.74,1.23c.25.46.71.28,1.08.28q11.09,0,22.18,0a12.86,12.86,0,0,0,5.56-1.24,11,11,0,0,0,6.56-9.2c.47-4.16-1.36-7.25-4.78-9.5A26.86,26.86,0,0,0,53.14,44ZM280.39,56.6c-1.66-1.53-3.42-3-5-4.66q-11.3-11.65-22.5-23.4A1.83,1.83,0,0,0,251.4,28c-2.6,0-5.2,0-7.8,0-.46,0-1.08-.23-1.13.64s.42.88,1,.92a8.65,8.65,0,0,1,3.22.85,1.31,1.31,0,0,1,.86,1.38c0,9.43,0,18.85,0,28.28,0,3.09-1,4-4.1,4.16-.59,0-1.09,0-1.07.84s.61.68,1.09.68c4,0,8.07,0,12.11,0,.49,0,1.18.28,1.22-.67s-.61-.83-1.2-.85c-4.09-.1-4.93-1-4.94-5.1q0-11.93,0-23.84a2,2,0,0,1,.15-1.22l15.91,16.62q7.22,7.53,14.4,15.07a1.88,1.88,0,0,0,2,.41c.68-.17.35-.89.35-1.35q0-13.05,0-26.11c0-2.2,0-4.4,0-6.59a2.12,2.12,0,0,1,1.93-2.34,11,11,0,0,1,2.74-.26c.63,0,.82-.26.82-.86s-.41-.67-.87-.67h-13c-.48,0-.77.13-.76.67s.08.87.7.87c.39,0,.79,0,1.19,0,3.28.25,4,1,4,4.32v21.8C280.37,56,280.48,56.45,280.39,56.6ZM215.23,27a20.33,20.33,0,0,0-3.83.27c-6.56,1-12,3.86-15.52,9.65-4.8,7.91-4.09,18.82,4.19,25a23.89,23.89,0,0,0,16.08,4.7,21.29,21.29,0,0,0,15.39-7.21c6.06-6.74,6.79-17.19,1.56-24.07C228.63,29.54,222.4,27.23,215.23,27ZM91.62,27a19.53,19.53,0,0,0-3.83.27c-6.94,1-12.58,4.18-16,10.47-4.13,7.6-3.52,17.56,4.09,23.77a23.57,23.57,0,0,0,16.63,5.15A21.26,21.26,0,0,0,108.3,59c6-7.07,6.29-17.64.51-24.45C104.33,29.31,98.38,27.19,91.62,27Zm75.8,19V50.2c0,3.51,0,7,0,10.54,0,2.32-1.09,3.33-3.4,3.44-.88,0-1.76,0-2.64,0-.63,0-.94.13-.94.85s.5.68,1,.68h17.39c.5,0,1.06.13,1.07-.71s-.54-.82-1.11-.82c-.76,0-1.52,0-2.28,0-2.45-.1-3.53-1.1-3.54-3.55,0-9.74,0-19.48,0-29.23,0-.71.22-1,1-.95,3.07,0,6.15,0,9.23,0a3.09,3.09,0,0,1,3.07,2,16.68,16.68,0,0,1,1.11,4c.12.72.54.64,1,.65.66,0,.54-.46.5-.84-.28-2.81-.56-5.63-.87-8.44-.1-.88-.93-1.25-1.55-.64a2.67,2.67,0,0,1-2.07.7q-14.08,0-28.17,0a2.6,2.6,0,0,1-2.18-.7.93.93,0,0,0-1.6.64q-.42,4.17-.78,8.34c0,.36-.34.92.46,1,.6,0,1-.1,1.06-.79a15.83,15.83,0,0,1,.92-3.58,3.33,3.33,0,0,1,3.48-2.36q4.38.08,8.75,0c.93,0,1.22.23,1.21,1.18C167.39,36.42,167.42,41.22,167.42,46Zm-35.18-19a12.72,12.72,0,0,0-3,.23c-4.18.74-7.36,3.56-8,7.34-.58,3.18.73,5.77,2.86,8a37.82,37.82,0,0,0,7.26,5.44c2.61,1.68,5.37,3.19,7.42,5.61a6.34,6.34,0,0,1-2.48,10.25,10,10,0,0,1-11.46-2.62,10.51,10.51,0,0,1-2.32-4.4c-.19-.71-.64-.71-1.18-.67-.75.06-.47.63-.42,1,.34,2.53.76,5.05,1,7.58.13,1.15.89,1.16,1.47.78a2.8,2.8,0,0,1,2.5-.14c.81.22,1.62.45,2.43.66a15.63,15.63,0,0,0,11.51-1,9.7,9.7,0,0,0,2.5-15.81,28.37,28.37,0,0,0-4.63-3.77c-2.52-1.69-5.19-3.14-7.62-5a12,12,0,0,1-3.18-3.22,5.24,5.24,0,0,1,2.9-8,8.79,8.79,0,0,1,6.53.38,10.67,10.67,0,0,1,5.49,5.59,1,1,0,0,0,1.31.66c.6-.18.3-.74.25-1.11-.25-2-.61-4-.82-6-.1-1-.83-1.06-1.3-.73-1,.74-2,.39-3,.05A16.43,16.43,0,0,0,132.24,27.05Zm-66,64.46c.77.66,1.55,1.23,2.21,1.91q8.72,9.06,17.39,18.17c.47.49,1,1.07,1.72.79s.39-1,.39-1.57c0-6.82,0-13.65,0-20.47,0-1.63.4-2,2-2.14.24,0,.48,0,.72,0,.42-.06.92,0,.89-.7s-.58-.52-1-.52c-2.55,0-5.11,0-7.67,0-.4,0-1.06-.3-1.1.51s.59.69,1.1.73c2.34.15,2.81.65,2.81,3q0,6.89,0,13.77c0,.29.13.63-.14.89-.33,0-.47-.3-.66-.5L68,87.68c-.33-.34-.59-.73-1.17-.72-1.79,0-3.59,0-5.39,0-.39,0-.73,0-.73.56s.32.59.7.64.72.08,1.07.15c1.11.21,1.72.7,1.61,2-.14,1.58,0,3.19,0,4.79q0,6.76,0,13.53c0,1.46-.61,2.09-2.07,2.25-.28,0-.56,0-.84,0s-.46.23-.47.55.07.64.51.64h8.63c.42,0,.53-.24.53-.62s-.17-.58-.58-.58c-.23,0-.47,0-.71,0-2.1-.1-2.68-.65-2.75-2.77-.06-1.79,0-3.59,0-5.39C66.26,99,66.26,95.19,66.26,91.51Zm105.8,20.63h5.15c.45,0,.79-.08.77-.65s-.35-.56-.73-.56h-.6c-2.11,0-2.72-.64-2.74-2.71,0-1.76.07-3.52,0-5.27,0-1,.31-1.27,1.27-1.2a14.09,14.09,0,0,0,2.75-.13,1.72,1.72,0,0,1,1.73.76q2.73,3.48,5.55,6.9c2.15,2.6,4.93,3.35,8.1,3.27.38,0,.85.1.92-.5s-.28-.65-.72-.72a7.2,7.2,0,0,1-4.57-3c-1.84-2.35-3.69-4.71-5.57-7-.44-.56-.58-.83.24-1.26a6.56,6.56,0,0,0,3.49-8c-.92-2.82-3.2-4.12-5.87-4.74-4.75-1.09-9.55-.27-14.33-.17-.39,0-.56.23-.56.61s.22.56.59.55h.6c1.93,0,2.53.46,2.6,2.33.24,5.94.18,11.89,0,17.83a8,8,0,0,1-.1.84,1.8,1.8,0,0,1-1.74,1.66,9.63,9.63,0,0,1-1.2.05c-.45,0-.8.06-.79.63s.41.58.83.58ZM29.7,97.06c0,2.26,0,4.1,0,5.93a9.11,9.11,0,0,0,5.84,8.69,15.72,15.72,0,0,0,7.26,1c6.57-.35,10.54-4.46,10.55-11,0-3.39,0-6.78,0-10.18,0-2.18.73-3.08,2.6-3.33.48-.06,1,0,1-.74s-.69-.5-1.09-.51q-3.76,0-7.55,0c-.39,0-1-.31-1.06.53s.51.67,1,.72c2.12.21,2.81.85,2.84,2.92,0,3.94.12,7.9,0,11.84a6.87,6.87,0,0,1-4.74,6.68,12.08,12.08,0,0,1-5.07.58c-5.12-.35-7.84-3.23-7.85-8.35,0-3.35,0-6.7,0-10.05,0-2.94,0-2.95,2.86-3.7.36-.09.55-.23.56-.62s-.18-.56-.58-.56H26.76c-.3,0-.56,0-.58.44s0,.65.44.73a7.53,7.53,0,0,0,.83.08c1.54.11,2,.5,2.13,2C29.84,92.62,29.61,95.06,29.7,97.06Zm120.59,15.08c3.24,0,6.48,0,9.71,0,.82,0,1.14-.27,1.2-1.07.11-1.47.32-2.93.45-4.4,0-.3.25-.76-.34-.84a.7.7,0,0,0-.88.58c-.09.39-.26.75-.38,1.13a3.55,3.55,0,0,1-3.75,2.72c-2,0-4.07,0-6.11,0-1.74,0-2.11-.38-2.13-2.12,0-2.4,0-4.79,0-7.19,0-.82.29-1,1-1,1.68,0,3.36,0,5,0,2.14,0,2.48.26,2.94,2.32.1.48.15.84.77.79s.52-.51.52-.88q0-3,0-6c0-.4.17-.94-.51-1s-.68.45-.78.93c-.34,1.68-.81,2-2.52,2.06s-3.67,0-5.51,0c-.69,0-1-.12-1-.91,0-2.51,0-5,0-7.54,0-.78.3-.94,1-.93,1.64,0,3.28,0,4.92,0,3.74,0,3.75,0,5,3.55.14.38.32.52.68.49s.48-.3.46-.67c-.09-1.35-.19-2.71-.22-4.06,0-.93-.3-1.25-1.32-1.24-5.67.06-11.35,0-17,0h-.84a.38.38,0,0,0-.42.45c0,.27-.05.59.33.66a4.57,4.57,0,0,0,.83.06c2.42.17,2.9.68,2.9,3.09,0,5.27,0,10.54,0,15.81,0,3.5-.31,3.82-3.78,3.91-.44,0-1-.18-1,.61s.61.59,1,.6C143.82,112.15,147.06,112.14,150.29,112.14Zm126-12.28a3.35,3.35,0,0,1-.28-.25q-2.84-4.36-5.65-8.74c-1.44-2.23-1.43-2.26,1.11-2.72.45-.09.76-.21.72-.74s-.45-.47-.8-.47h-9.46c-.36,0-.73,0-.74.52s.25.72.73.72c1.91,0,3.1,1.08,4.06,2.54,1.64,2.5,3.09,5.14,4.9,7.5A13.14,13.14,0,0,1,273.7,108c-.23,2.32-.57,2.87-2.9,3-.43,0-1-.19-1,.6s.6.6,1,.61c3,0,6.07,0,9.1,0,.45,0,1.16.29,1.19-.57s-.67-.6-1.13-.63c-.95-.06-2.06-.13-2.26-1.18a27.1,27.1,0,0,1-.08-7.84c0-.07.09-.14.13-.2l6.54-11a5,5,0,0,1,3.87-2.5c.47-.06.9-.11.84-.74s-.53-.49-.9-.5q-3.71,0-7.43,0c-.41,0-1.05-.24-1,.57s.64.58,1.07.63c1.59.19,1.92.71,1.13,2.11C280,93.48,278.15,96.62,276.25,99.86Zm-151.18,8-.57-1.36c-2-5-4-10.07-6.09-15.07-.93-2.21-.9-3,2.09-3.28l.24,0c.48-.05,1.13.1,1.11-.71s-.68-.52-1.08-.52c-3,0-6.07,0-9.11,0-.39,0-1-.34-1.13.46s.55.75,1,.77a2.31,2.31,0,0,1,2.16,1.44c.31.65.61,1.3.88,2q4,10,8,20c.31.79.63,1.29,1.67,1.3s1.33-.6,1.62-1.36q1.57-4.14,3.17-8.25c1.53-3.94,3-7.88,4.58-11.81.64-1.64,1.42-3.17,3.51-3.28.44,0,.61-.29.59-.73s-.44-.48-.77-.48q-4,0-7.91,0c-.38,0-1-.23-1,.51s.56.64,1,.71c.24,0,.48,0,.72,0,1.84.14,2.4.87,1.76,2.59C129.48,96.43,127.31,102,125.07,107.91ZM248.8,99.19c0-3.11,0-6.22,0-9.33,0-.8.25-1.06,1-1,1.2,0,2.4,0,3.6,0,3.73,0,3.73,0,4.74,3.6.1.38.13.82.71.76s.47-.55.44-.9c-.14-1.75-.33-3.49-.49-5.24-.08-.81-.69-.79-1.12-.51a2.55,2.55,0,0,1-1.57.39H237.79a2.48,2.48,0,0,1-1.48-.33c-.64-.43-1.13-.23-1.21.62-.17,1.74-.36,3.49-.52,5.23,0,.3-.12.68.37.74a.64.64,0,0,0,.8-.52c.14-.62.24-1.26.43-1.86.51-1.65,1-2,2.66-2s3.35,0,5,0c.88,0,1.25.16,1.24,1.17-.05,5.79,0,11.57,0,17.36,0,3.24-.27,3.5-3.53,3.58-.43,0-1-.2-1.05.59s.57.62,1,.62c3.4,0,6.79,0,10.19,0,.57,0,1.69.58,1.68-.61,0-1-1.06-.53-1.63-.55-2.36-.07-2.95-.63-3-3ZM204.05,86.46c-.48,0-1,0-1.44,0-3.52.29-6.08,2.88-6,6.08.07,2.64,1.73,4.31,3.65,5.74,1.69,1.26,3.51,2.35,5.27,3.53a11.42,11.42,0,0,1,3,2.67,4,4,0,0,1-.85,5.64,6.52,6.52,0,0,1-8.64-1.17,7,7,0,0,1-1.43-2.73.68.68,0,0,0-.91-.53c-.47.1-.34.49-.3.77.22,1.66.48,3.32.69,5,.09.75.55.89,1.07.55a1.76,1.76,0,0,1,1.59-.09,14.27,14.27,0,0,0,6.11.75c3-.47,5.41-1.78,6.48-4.78s0-5.21-2.1-7.22a37,37,0,0,0-6-4.18,14.09,14.09,0,0,1-3.42-2.78,3.45,3.45,0,0,1,1.81-5.75,6.46,6.46,0,0,1,7.14,3.12c.2.34.35.72.55,1.06a.66.66,0,0,0,.85.24c.3-.11.25-.36.21-.6-.19-1.42-.4-2.84-.56-4.27-.07-.6-.52-.71-.83-.49-.88.65-1.67.19-2.48-.07A8.83,8.83,0,0,0,204.05,86.46Zm-102.13.48c-1.35,0-2.71,0-4.07,0-.37,0-.93-.26-1,.5s.47.69,1,.76c1.44.21,2,.67,2,2.07q0,9.21,0,18.41c0,1.61-.47,2-2.07,2.2-.47.06-.88.07-.83.72s.49.53.87.53c2.75,0,5.51,0,8.26,0,.41,0,.94.15,1-.55s-.54-.63-1-.67c-1.79-.16-2.33-.63-2.35-2.47-.06-5.78-.08-11.56,0-17.34,0-2.38.23-2.51,2.63-3,.43-.07.77-.17.74-.72s-.52-.49-.88-.5ZM226.26,99.56c0-2.83,0-5.66,0-8.5,0-1.78.43-2.91,2.48-2.89.45,0,.89-.08.86-.72s-.6-.5-1-.5c-2.64,0-5.27,0-7.91,0-.39,0-1-.31-1.08.52s.48.67,1,.75c1.42.22,1.93.79,1.94,2.25q0,9,0,18c0,1.69-.47,2.2-2.12,2.46-.42.07-.79.08-.79.65s.4.6.82.6h8.39c.44,0,.79,0,.77-.63s-.3-.54-.7-.59c-2.23-.29-2.64-.74-2.65-3C226.25,105.15,226.26,102.36,226.26,99.56Z"/><path class="cls-2" d="M43.26,45.12a14.9,14.9,0,0,1,6.65,1,8.59,8.59,0,0,1,5.45,7.28c.33,3.55-.44,6.85-3.73,8.85a12.11,12.11,0,0,1-10.16,1c-2.18-.66-2.67-2.64-2.72-4.61-.09-4.19,0-8.37,0-12.56,0-.69.28-.9.93-.87C40.67,45.15,41.71,45.12,43.26,45.12Z"/><path class="cls-2" d="M38.72,36.36c0-2.12,0-4.24,0-6.35,0-.53,0-1,.73-1,2.63,0,5.26-.32,7.88.22a7.54,7.54,0,0,1,6,9.63,5.48,5.48,0,0,1-3.63,4,13.85,13.85,0,0,1-5.07.71c-1.68,0-3.36,0-5,0-.67,0-.9-.19-.89-.88C38.75,40.59,38.72,38.47,38.72,36.36Z"/><path class="cls-2" d="M230.48,47.61a20.44,20.44,0,0,1-1.29,7.77c-3.59,9.55-12.69,11.34-20,7.91-6.37-3-9.33-8.43-10.08-15.21a20.09,20.09,0,0,1,1.24-9.52c3.1-8.1,10.82-11.65,19-8.65,6,2.22,9.24,6.81,10.64,12.87A18.9,18.9,0,0,1,230.48,47.61Z"/><path class="cls-2" d="M89.23,28.94c9.14,0,15.72,5.78,17.24,14.32a23.08,23.08,0,0,1-.69,11.46c-3.24,9.84-12.44,12.18-20.2,8.57-6-2.78-9-7.83-10-14.16a19.7,19.7,0,0,1,2.55-13.48C80.87,31.18,84.88,29,89.23,28.94Z"/><path class="cls-2" d="M173.91,94.22c0-1.76,0-3.51,0-5.27,0-.75.2-1.12,1-1.07,1,.06,2.09,0,3.11.16,4,.65,5.86,3.44,5.14,7.56-.53,3.05-2.52,4.75-5.83,5s-3.4.25-3.4-3.13Z"/></g></g></svg>