<svg xmlns="http://www.w3.org/2000/svg" viewBox="0 0 314.9 140.91"><defs><style>.cls-1{fill:#fff;}</style></defs><g id="Layer_2" data-name="Layer 2"><g id="Layer_1-2" data-name="Layer 1"><path class="cls-1" d="M314.88,0q0,69.9,0,139.8c0,.9-.2,1.1-1.1,1.1q-156.9,0-313.8,0c0-.52,0-1,0-1.56V62.54Q0,31.94,0,1.33C0,.27.28-.13,1.33,0a7.77,7.77,0,0,0,1.08,0H313.08C313.68.05,314.28,0,314.88,0ZM157.45,135.8H308c1.75,0,1.75,0,1.75-1.76V6.83c0-1.73,0-1.74-1.77-1.74H6.83c-1.74,0-1.74,0-1.74,1.76V134c0,.35,0,.71,0,1.07,0,.57.25.79.8.78s.88,0,1.32,0Z"/><path class="cls-1" d="M157.32,133.45H9.13c-1.92,0-1.68.23-1.68-1.63q0-61.39,0-122.78c0-1.66,0-1.66,1.69-1.66H305.75c1.69,0,1.69,0,1.69,1.66q0,61.38,0,122.78c0,1.86.24,1.63-1.68,1.63ZM53.29,44c.47-.19.9-.36,1.32-.55a7.6,7.6,0,0,0,1.77-13.12,13.12,13.12,0,0,0-7-2.55c-5.73-.76-11.48-.27-17.22-.11-1.64,0-3.27.17-4.91.25-.55,0-.74.26-.74.82s.27.78.81.75c.31,0,.63,0,.95,0,4.11,0,5,.89,5,5q0,12.45,0,24.91a17.37,17.37,0,0,1-.17,2A2.82,2.82,0,0,1,30.67,64a14.77,14.77,0,0,1-3.81.22c-.92,0-1,.51-.85,1.16s.73.37,1.12.37H49.19A13.82,13.82,0,0,0,53,65.18a11.38,11.38,0,0,0,8.46-9.93c.34-4.8-2-8.39-6.83-10.55A2.86,2.86,0,0,1,53.29,44ZM250.65,33.88l12,12.57,11.85,12.38c2.21,2.3,4.43,4.6,6.61,6.93a1.82,1.82,0,0,0,2,.36c.58-.15.31-.82.31-1.26,0-6.7,0-13.41,0-20.12,0-4.11,0-8.23,0-12.34,0-1.77.53-2.32,2.24-2.7a13.12,13.12,0,0,1,2.5-.21c.56,0,.77-.23.78-.79s-.27-.74-.81-.74H275.24c-.51,0-.83.1-.83.71s.28.83.87.84a15.22,15.22,0,0,1,1.9.16c2.48.39,3.09,1.1,3.15,3.64,0,.2,0,.4,0,.6q0,10.89,0,21.8a1.55,1.55,0,0,1-.22,1.22l-7.64-8L253,28.69a1.66,1.66,0,0,0-1.28-.74c-2.8,0-5.6,0-8.4,0-.49,0-.84.06-.84.7s.26.84.85.86a8.65,8.65,0,0,1,3.34.83,1.37,1.37,0,0,1,.93,1.46c0,9.43,0,18.85,0,28.27,0,3-1,4-4,4.13-.53,0-1.14-.16-1.15.76s.61.76,1.14.76c3.83,0,7.67,0,11.51,0,.59,0,1.7.61,1.74-.7s-1.1-.75-1.69-.78c-3.37-.18-4.33-1.1-4.41-4.45V33.88ZM215.2,27a20.5,20.5,0,0,0-3.84.27c-6.56,1-12,3.86-15.52,9.66-4.79,7.91-4.08,18.81,4.2,25a24,24,0,0,0,16.07,4.7,21.37,21.37,0,0,0,15.4-7.22c6.06-6.74,6.79-17.19,1.55-24.07C228.6,29.54,222.36,27.23,215.2,27ZM91.54,27a19.53,19.53,0,0,0-3.83.27c-6.89,1.06-12.5,4.17-15.92,10.41-4.13,7.51-3.61,17.53,4,23.78A23.57,23.57,0,0,0,92.4,66.69,21.27,21.27,0,0,0,108.29,59c6-7.09,6.26-17.66.45-24.45C104.25,29.29,98.3,27.17,91.54,27Zm81.31,19.17c0-4.87,0-9.74,0-14.61,0-.78.15-1.14,1-1.12,3,.05,6.08,0,9.11,0a3.16,3.16,0,0,1,3.15,2.11,17.31,17.31,0,0,1,1.07,3.91c.11.68.48.7,1,.7.75,0,.58-.52.54-.92-.27-2.78-.55-5.56-.86-8.33-.1-1-.91-1.29-1.61-.63a2.57,2.57,0,0,1-2,.65Q170.16,28,156,28a2.58,2.58,0,0,1-2.08-.66c-.65-.68-1.55-.27-1.64.68-.27,2.74-.53,5.48-.76,8.22,0,.35-.38.92.41,1s1-.14,1.12-.87a13.47,13.47,0,0,1,.9-3.46c.76-1.84,1.57-2.38,3.57-2.38,2.87,0,5.75,0,8.63,0,1,0,1.25.28,1.25,1.27,0,9.42,0,18.84,0,28.26,0,.32,0,.64,0,1-.15,2.11-1.12,3.1-3.24,3.23-1,.06-1.92.06-2.88,0-.6,0-.86.17-.86.81s.28.73.81.73h17.74c.48,0,.87,0,.87-.67s-.19-.89-.83-.86-1.36,0-2,0c-3.08,0-4.07-1-4.08-4.13C172.84,55.45,172.85,50.82,172.85,46.19ZM132.42,27a12.59,12.59,0,0,0-7.73,2.16,8.16,8.16,0,0,0-2.5,10.91,14.2,14.2,0,0,0,3.51,4,69.14,69.14,0,0,0,6.91,4.73,25.91,25.91,0,0,1,6.11,4.76A6.33,6.33,0,0,1,136.19,64a10,10,0,0,1-12.72-4.58,12.9,12.9,0,0,1-1.07-2.65c-.2-.71-.75-.47-1.18-.46s-.4.51-.36.82c.35,2.57.71,5.13,1.09,7.7.15,1,.73,1.31,1.53.79a2.33,2.33,0,0,1,2.15-.18c.54.17,1.08.29,1.62.44a17.62,17.62,0,0,0,10,.32c8.54-2.53,10.78-11.67,4.59-17.36a35.59,35.59,0,0,0-4.23-3.33c-2.48-1.67-5.12-3.09-7.52-4.89A12.5,12.5,0,0,1,127,37.45a5.25,5.25,0,0,1,2.9-8.17,8.52,8.52,0,0,1,5-.11,10.52,10.52,0,0,1,7,6.08c.3.64.69.86,1.29.71s.34-.73.29-1.1c-.25-2-.61-4-.81-6-.1-1-.78-1.11-1.29-.76-1.12.76-2.12.34-3.16,0A15.83,15.83,0,0,0,132.42,27ZM66.25,91.18c.37.35.57.53.76.72l18.86,19.74c.49.51,1,1,1.74.73s.33-1,.33-1.51c0-6.79,0-13.57,0-20.36,0-1.84.36-2.21,2.23-2.31.32,0,.64,0,1-.09s.48-.35.47-.7-.26-.46-.57-.46H82.41c-.32,0-.53.11-.55.47s.08.64.46.72a5.83,5.83,0,0,0,.72.06c2.2.13,2.73.67,2.73,2.86,0,3.52,0,7,0,10.54v4.28c-.54,0-.69-.39-.93-.64L67.91,87.63c-.27-.28-.48-.65-1-.65H61.21a.47.47,0,0,0-.53.51c0,.32.1.56.42.62s.8.08,1.19.16c1.56.33,1.73.56,1.73,2.13V108c0,2.29-.35,2.7-2.63,2.92-.44,0-.77.07-.76.65s.31.57.71.57h8.27c.41,0,.69-.08.7-.58s-.21-.65-.65-.63c-.2,0-.4,0-.6,0-2.16-.1-2.78-.66-2.8-2.85C66.22,102.52,66.25,97,66.25,91.18Zm105.88,21c1.4,0,2.8.06,4.19,0,.56,0,1.59.51,1.58-.61s-1-.53-1.52-.56c-1.84-.12-2.48-.73-2.5-2.6,0-1.52,0-3,0-4.55,0-2,0-2,2.06-2a15.2,15.2,0,0,0,1.91-.14,1.69,1.69,0,0,1,1.74.74q2.76,3.52,5.63,7c2.17,2.6,5,3.26,8.13,3.19.36,0,.75,0,.82-.48s-.26-.67-.71-.74a7.13,7.13,0,0,1-4.57-3c-1.79-2.3-3.58-4.61-5.43-6.86-.61-.74-.71-1,.28-1.57A6.58,6.58,0,0,0,183.32,88a11.87,11.87,0,0,0-3.55-1c-4.27-.59-8.53,0-12.8.1-.41,0-.69.13-.7.61s.43.55.83.57c2.6.14,2.91.45,3.08,3,0,.24,0,.48,0,.72,0,5,0,10.06,0,15.09a19.11,19.11,0,0,1-.19,2.14,1.78,1.78,0,0,1-1.73,1.68,9.4,9.4,0,0,1-1.19.05c-.44,0-.81,0-.81.61s.39.61.82.6ZM29.66,97.07c0,2.27,0,4.1,0,5.94a9.09,9.09,0,0,0,5.84,8.67,16,16,0,0,0,7.39,1c6.4-.35,10.4-4.5,10.41-10.87,0-3.43,0-6.87,0-10.3,0-2.21.7-3,2.74-3.33.48-.06.88-.12.84-.74s-.6-.5-1-.5c-2.55,0-5.11,0-7.66,0-.4,0-1-.29-1,.55s.52.65,1,.7c2.1.21,2.8.86,2.82,2.93.06,4,.1,7.9,0,11.85a7,7,0,0,1-5,6.74,12.62,12.62,0,0,1-4.85.5c-5.1-.34-7.82-3.23-7.83-8.36,0-3.31,0-6.62,0-9.93,0-1-.23-2.1.45-3s1.56-.68,2.41-.79a.55.55,0,0,0,.55-.63c0-.42-.2-.55-.58-.55H26.71c-.3,0-.55.07-.57.45s.06.65.45.73a7.93,7.93,0,0,0,.84.07c1.53.11,1.95.5,2.12,2C29.81,92.63,29.58,95.07,29.66,97.07Zm120.62,15.07c3.24,0,6.48,0,9.71,0,.63,0,1.08-.07,1.14-.84.14-1.59.34-3.17.5-4.76,0-.29.14-.67-.37-.71-.34,0-.65,0-.79.39s-.32.9-.47,1.36a3.53,3.53,0,0,1-3.75,2.69c-2.08,0-4.16,0-6.24,0-1.58,0-1.95-.39-2-2,0-2.47,0-4.95,0-7.42,0-.74.32-.85.94-.84,1.72,0,3.44,0,5.15,0,2.12,0,2.45.25,2.91,2.34.11.5.2.83.8.77s.49-.54.49-.91c0-2,0-3.91,0-5.86,0-.43.24-1-.53-1.12s-.66.49-.75,1c-.36,1.67-.82,2-2.54,2-1.88,0-3.76,0-5.64,0-.61,0-.83-.17-.82-.81,0-2.55,0-5.11,0-7.66,0-.68.21-.92.88-.91,1.76,0,3.52,0,5.28,0,3.67,0,3.68,0,4.77,3.46.13.42.29.63.72.58s.45-.33.43-.69c-.1-1.39-.23-2.79-.23-4.18,0-.91-.36-1.1-1.21-1.09-5.75,0-11.51,0-17.26,0-.38,0-1-.34-1.11.46s.59.67,1.06.7c2.56.18,3,.65,3,3.24v15.69c0,3.47-.31,3.78-3.81,3.88-.45,0-1-.16-1,.63s.64.57,1.06.58C143.81,112.15,147.05,112.14,150.28,112.14ZM276.22,99.86a1.73,1.73,0,0,1-.26-.23q-2.86-4.41-5.72-8.83c-1.39-2.16-1.36-2.23,1.12-2.65.43-.07.78-.15.76-.7s-.4-.51-.77-.51h-9.46c-.34,0-.74-.1-.77.48s.19.76.69.75c2,0,3.22,1.19,4.21,2.72,1.61,2.47,3,5.08,4.83,7.4a12.94,12.94,0,0,1,2.81,9.64c-.22,2.4-.5,2.89-3,3-.41,0-.93-.14-.95.57s.55.64,1,.64c3.07,0,6.15,0,9.22,0,.42,0,1.05.25,1.1-.53s-.62-.64-1.09-.67c-.89-.05-2-.07-2.21-1.05a19.9,19.9,0,0,1,0-8.24.88.88,0,0,1,.12-.21c2-3.33,4-6.64,5.91-10,1-1.78,2.35-3.12,4.54-3.26.43,0,.67-.22.66-.68s-.38-.54-.76-.54h-7.9c-.38,0-.72,0-.73.55s.29.6.68.64l.59,0c1.28.16,1.68.74,1.06,1.85C280.07,93.34,278.13,96.58,276.22,99.86Zm-151.11,7.83c-.12-.09-.22-.12-.24-.19q-3.5-8.64-7-17.28a1.19,1.19,0,0,1,.83-1.7,6.52,6.52,0,0,1,2.24-.35c.47,0,.88-.11.84-.74s-.53-.48-.88-.48c-3.2,0-6.39,0-9.59,0-.36,0-.84-.15-.86.51s.4.73.85.72a2.61,2.61,0,0,1,2.6,1.91c.22.52.45,1,.66,1.54,2.7,6.72,5.42,13.44,8.09,20.18a1.38,1.38,0,0,0,1.48,1,1.46,1.46,0,0,0,1.63-1.16c2.57-6.73,5.19-13.44,7.79-20.16.66-1.69,1.44-3.25,3.58-3.37.46,0,.58-.34.55-.76s-.37-.44-.69-.44h-8.26c-.39,0-.72,0-.71.56s.31.6.69.64,1,0,1.55.12c1.3.24,1.72.84,1.34,2.11s-.79,2.34-1.23,3.49Zm123.66-8.62c0-3,0-6.07,0-9.1,0-.91.27-1.19,1.15-1.15,1.16.07,2.32,0,3.48,0,3.72,0,3.72,0,4.73,3.61.11.38.14.81.72.75s.47-.56.44-.9c-.15-1.75-.33-3.5-.5-5.24-.08-.82-.69-.79-1.12-.5a2.61,2.61,0,0,1-1.57.38H237.75a2.41,2.41,0,0,1-1.48-.33c-.64-.44-1.12-.22-1.2.62-.18,1.75-.36,3.49-.52,5.24,0,.29-.12.67.37.73a.64.64,0,0,0,.79-.53c.15-.62.25-1.25.44-1.86.51-1.64,1-2,2.66-2s3.28,0,4.91,0c1,0,1.37.18,1.36,1.3-.06,5.74,0,11.49,0,17.23,0,3.23-.26,3.5-3.53,3.59-.43,0-1-.21-1.05.58s.59.62,1,.62c3.4,0,6.79,0,10.19,0,.57,0,1.7.58,1.67-.61,0-1-1.06-.53-1.63-.55-2.36-.07-2.95-.63-2.95-3C248.76,105,248.77,102,248.77,99.07ZM204.16,86.43c-.45,0-.77,0-1.09,0-2.72.21-5,1.24-6.11,3.88s-.08,4.89,1.88,6.8a31,31,0,0,0,5,3.64,19.56,19.56,0,0,1,4.18,3.16,4.16,4.16,0,0,1-1.82,7,6.55,6.55,0,0,1-7.62-2.5,6.65,6.65,0,0,1-1-2.16.69.69,0,0,0-.9-.56c-.47.09-.35.48-.31.77.22,1.69.47,3.39.69,5.09.08.53.48.78.83.54,1-.66,1.83-.16,2.72.08a11.87,11.87,0,0,0,7.29,0c5.06-1.82,6.34-7.43,2.58-11.23a23.71,23.71,0,0,0-4.3-3.23A25.17,25.17,0,0,1,201.11,94,3.79,3.79,0,0,1,200,90.83c.26-2.19,2.64-3.57,5.26-3a6.85,6.85,0,0,1,4.94,4c.19.4.4.72.88.61.65-.14.32-.62.28-1-.15-1.26-.37-2.52-.48-3.79-.06-.7-.5-.91-.94-.6-.73.53-1.36.24-2,0A9.37,9.37,0,0,0,204.16,86.43ZM101.8,112.14c1.44,0,2.88,0,4.31,0,.59,0,1-.15.83-.81s-.63-.39-1-.42c-1.74-.16-2.31-.64-2.33-2.37q-.08-8.85,0-17.7c0-2.11.36-2.36,2.5-2.67.45-.07.89-.12.85-.75s-.54-.48-.9-.48c-2.79,0-5.58,0-8.38,0-.37,0-.82-.13-.84.53s.38.66.85.73c1.61.25,2.09.67,2.1,2.21,0,6,0,12,0,18.06,0,1.85-.38,2.15-2.23,2.43-.49.07-.72.21-.69.73s.4.51.76.51C99,112.15,100.4,112.14,101.8,112.14ZM222.51,99.51c0,3,0,6,0,9,0,1.62-.5,2.16-2.05,2.4-.46.07-.9.06-.85.71s.59.54,1,.54q4,0,8,0c.41,0,.92.13.95-.57s-.43-.61-.87-.65c-1.82-.17-2.44-.68-2.45-2.43q-.08-8.92,0-17.84c0-1.8.59-2.25,2.4-2.47.43-.05.91,0,.92-.66s-.51-.58-.91-.58c-2.72,0-5.43,0-8.15,0-.35,0-.85-.2-.9.46s.25.72.77.8c1.76.29,2.12.74,2.13,2.55C222.52,93.68,222.51,96.59,222.51,99.51Z"/><path class="cls-1" d="M43.28,45.13a14.41,14.41,0,0,1,6.66,1,8.55,8.55,0,0,1,5.38,7.2C55.66,56.75,55,60,51.84,62S45,64.24,41.38,63.13c-2.17-.66-2.63-2.68-2.67-4.64-.08-4.15,0-8.29,0-12.44,0-.76.3-1,1-.93C40.7,45.16,41.74,45.13,43.28,45.13Z"/><path class="cls-1" d="M38.69,36.33c0-2.12,0-4.23,0-6.35,0-.55.1-.94.76-.93,2.63,0,5.27-.32,7.89.23a7.54,7.54,0,0,1,6,9.65,5.49,5.49,0,0,1-3.65,4,14.08,14.08,0,0,1-5.19.7c-1.56,0-3.12-.07-4.68,0-.94,0-1.14-.29-1.11-1.15C38.73,40.4,38.69,38.37,38.69,36.33Z"/><path class="cls-1" d="M230.45,47.66a20.07,20.07,0,0,1-1.29,7.69c-3.59,9.58-12.66,11.36-19.95,7.95-6.38-3-9.35-8.41-10.11-15.19a20,20,0,0,1,1.27-9.63c3.42-8.72,11.21-11.24,18.9-8.56,6,2.11,9.26,6.77,10.67,12.83A19.16,19.16,0,0,1,230.45,47.66Z"/><path class="cls-1" d="M75.33,46c.18-5.15,1.52-9.89,5.4-13.5,5-4.66,13.53-4.69,19.22-.25a17.11,17.11,0,0,1,5.91,8.8,22.33,22.33,0,0,1-.1,13.65c-3.19,9.82-12.31,12.27-20.17,8.65-6-2.77-9-7.85-10-14.24A14.68,14.68,0,0,1,75.33,46Z"/><path class="cls-1" d="M173.88,94.27c0-1.75,0-3.51,0-5.27,0-.81.2-1.19,1.06-1.12s2,0,3,.15c4,.61,5.89,3.4,5.21,7.52-.52,3.09-2.56,4.83-5.92,5s-3.32.2-3.32-3.08Z"/></g></g></svg>