<svg xmlns="http://www.w3.org/2000/svg" viewBox="0 0 220.78 167.04"><defs><style>.cls-1{fill:#fff;}</style></defs><g id="Layer_2" data-name="Layer 2"><g id="Layer_1-2" data-name="Layer 1"><path class="cls-1" d="M115.16,0a23.63,23.63,0,0,0,4.11.38c12.12,1.15,23.5,4.38,33.25,12,9.09,7.11,14.5,16.51,16.87,27.73a57.86,57.86,0,0,1,1.2,12.51c-.11,10.17-2,19.92-7,28.92-6.09,11.1-15.27,18.62-27,23.24a71.48,71.48,0,0,1-13.86,3.8c-.55.1-.84,0-.89-.64-.46-6.56-1-13.13-1.13-19.71v-.71c.41-.16.52.18.69.34.81.77,1.57,1.6,2.45,2.29a2.48,2.48,0,0,0,2.46.44c2.41-.77,4.8-1.62,7.14-2.58a6.91,6.91,0,0,0,1.22-.6c.61-.39.59-.71,0-1-.45-.24-.94-.42-1.41-.62-4-1.77-8.07-3.54-12.12-5.28a1.12,1.12,0,0,1-.76-1.15c-.07-2.26-.09-2.26,2-1.4,4,1.64,8.1,3.29,12.17,4.92,2.53,1,3.68.75,5.59-1.2A44.05,44.05,0,0,0,144,77.19c.71-1,.62-1.16-.52-1.39L120.9,71.25c-.54-.11-.9-.3-.83-.94a2.71,2.71,0,0,0,0-.9c-.23-1.3.07-1.27,1.28-1.06,6.36,1.11,12.72,2.2,19.08,3.33A3.07,3.07,0,0,0,144,70c1.14-2,2.08-4.15,3.11-6.23.3-.59.07-.91-.59-.95-1.27-.08-2.53-.19-3.8-.27q-11.09-.66-22.16-1.29c-.55,0-.8-.19-.84-.79-.18-2.5-.23-2,1.87-2q9.74.27,19.48.54c2,.06,2.77-.47,3.3-2.45a62.05,62.05,0,0,0,1.15-6.32c.11-.72-.12-1-.9-.84-7.13,1.17-14.29,2-21.46,2.82-1,.11-2,.22-3.06.35-.51.07-.7-.11-.71-.63,0-2.25-.34-1.79,1.46-2.07,5.79-.91,11.58-1.79,17.36-2.69,2.12-.33,2.75-1,3-3.1.16-1.53.36-3.06.38-4.6,0-.95,0-1-1-.74-6.73,1.92-13.47,3.78-20.26,5.49-1.27.32-1.21.31-1.32-.94-.09-1,.26-1.37,1.23-1.62,4.45-1.15,8.86-2.38,13.28-3.59a13.8,13.8,0,0,0,1.45-.51,2.68,2.68,0,0,0,1.8-2.4,34.11,34.11,0,0,0,.19-4.52c-.05-.95-.21-1-1.1-.62-5.26,2.43-10.69,4.47-16.1,6.53-.91.35-.91.27-1.06-.74s.24-1.52,1.21-1.9c3.38-1.32,6.68-2.81,10.07-4.09a3.35,3.35,0,0,0,2.49-3.69,24.57,24.57,0,0,0-.12-2.71c-.18-1-.24-1-1.11-.57q-3.94,2.14-7.88,4.27c-1.36.73-2.73,1.43-4.09,2.15-.49.27-.72.25-.81-.42a2,2,0,0,1,1.35-2.45c2.13-1,4.14-2.23,6.24-3.31a3.24,3.24,0,0,0,2.06-3.54c-.11-.84-.11-1.69-.21-2.53s-.47-1-1.19-.45c-2.44,1.89-5,3.65-7.55,5.33-.83.54-.87.49-1-.48a1.69,1.69,0,0,1,.81-1.83c1.38-.93,2.68-2,4-2.92a1.94,1.94,0,0,0,.91-2c-.13-.77-.23-1.55-.37-2.32-.06-.28-.09-.66-.43-.75s-.46.24-.65.42a47.28,47.28,0,0,1-4.39,3.9,2.45,2.45,0,0,1,0-1.34,14.69,14.69,0,0,0,0-4.24c-.17-.75-.46-1.69-1.26-1.7s-1.15,1-1.31,1.74a16.59,16.59,0,0,0,0,4.34c0,.36.07.72.1,1.07-.33.16-.46-.11-.63-.24A48.3,48.3,0,0,1,111,12c-.18-.19-.36-.48-.66-.4s-.35.45-.42.74-.08.41-.14.62c-.54,1.95-.23,3.5,1.76,4.54a24.32,24.32,0,0,1,3.23,2.34,2.1,2.1,0,0,1,.41,2.2c-.32.49-.59.06-.82-.09q-3.66-2.36-7.12-5c-1.43-1.09-1.52-1.06-1.74.72-.09.69-.06,1.39-.15,2.08A3,3,0,0,0,107.14,23c2.32,1.24,4.63,2.5,6.94,3.74a2.18,2.18,0,0,1,.83,2.52c-.25.48-.56.15-.83,0-2.3-1.2-4.61-2.4-6.9-3.62-1.7-.91-3.4-1.84-5.08-2.8-.68-.38-1-.25-1.06.53a24,24,0,0,0,0,4,2.55,2.55,0,0,0,1.84,2.24l11,4.55a2,2,0,0,1,.62,2.52c-.3.34-.63,0-.9-.08-3.75-1.45-7.49-2.9-11.21-4.4-1.65-.66-3.27-1.42-4.89-2.14-.88-.39-1-.3-1.08.66a32.7,32.7,0,0,0,.19,4.53,2.82,2.82,0,0,0,2.24,2.54c2.35.69,4.7,1.34,7.06,2,2.56.7,5.12,1.38,7.68,2.09.29.08.76,0,.76.49a3.57,3.57,0,0,1-.15,1.95c-.19.33-.61.11-.92,0q-10.09-2.55-20.08-5.45l-.7-.21c-.47-.14-.69,0-.68.52a32,32,0,0,0,.62,6A2.18,2.18,0,0,0,94.36,47l8.94,1.44c3.31.51,6.62,1,9.94,1.49.76.11.87.48.83,1.16-.09,1.65-.06,1.61-1.7,1.41-4.79-.61-9.59-1.15-14.39-1.77q-4.58-.59-9.14-1.33c-.87-.14-1,.19-.92.91a50,50,0,0,0,1.19,6.4c.53,1.83,1.17,2.34,3,2.3,4.68-.11,9.36-.25,14-.38,2.27-.06,4.53-.12,6.8-.21.66,0,.83.2.77.84-.18,1.92-.16,1.92-2.12,2l-24,1.45H87.4c-1.4.14-1.46.26-.84,1.53.82,1.66,1.6,3.32,2.44,5,1.25,2.43,1.88,2.73,4.54,2.27l18.73-3.25c1-.17,1.1-.09,1.08.92,0,1.88,0,1.86-1.82,2.22L89.7,75.82c-.91.18-1,.44-.45,1.21a38.14,38.14,0,0,0,4.57,5.26,3.93,3.93,0,0,0,4.53.74c4.47-1.82,9-3.61,13.43-5.42.23-.09.45-.19.68-.26s.58,0,.55.43c0,.63-.06,1.27,0,1.9s-.39.63-.74.78L99.29,86.11l-.5.22c-.24.11-.55.2-.58.51s.28.52.54.66a30.42,30.42,0,0,0,4.1,1.68c1.39.5,2.81.93,4.2,1.43a2.24,2.24,0,0,0,2.29-.37,20.3,20.3,0,0,0,2.6-2.39c.16-.16.28-.47.56-.35s.12.38.12.58c-.14,5.34-.45,10.68-.89,16-.13,1.59-.32,3.19-.37,4.78,0,.76-.32.88-1,.87l-16.06,0q-15,0-29.94,0c-.36,0-1,.28-1-.32s-.42-1.43.37-1.89c3.3-1.92,4.66-5,5.2-8.59a54.44,54.44,0,0,0,.53-7.86q0-36.37,0-72.74a37.19,37.19,0,0,0-1.08-10A9.35,9.35,0,0,0,64.3,2.69a1.76,1.76,0,0,1-1-2,3.52,3.52,0,0,0,0-.72Z"/><path class="cls-1" d="M220.78,166.54c-1.76,0-3.51,0-5.26,0-.25,0-.6.15-.73-.16s.22-.38.37-.54a2.93,2.93,0,0,0,.74-2.08c0-2.24,0-4.48,0-6.71,0-.5-.13-.69-.66-.69q-5.81,0-11.61,0c-.53,0-.67.23-.66.71,0,2.29-.09,4.59.12,6.88a2.74,2.74,0,0,0,.86,2c.14.12.31.24.21.44s-.32.13-.49.13q-2.44,0-4.89,0c-.17,0-.4.07-.45-.17a.38.38,0,0,1,.15-.29,3,3,0,0,0,1-2.69q0-8,0-16a3.14,3.14,0,0,0-1-2.7c-.33-.26-.24-.48.18-.48h5.17c.33,0,.49.23.22.45-1.26,1-1,2.46-1.07,3.78-.11,1.53,0,3.08,0,4.62,0,.59.14.87.81.86,3.8,0,7.61,0,11.42,0,.57,0,.71-.21.71-.74,0-2,0-4,0-6.07a2.82,2.82,0,0,0-.87-2.3c-.14-.11-.32-.23-.25-.43s.36-.17.56-.17h5.44v.36a2.15,2.15,0,0,0-1.28,2.2q-.19,8.58,0,17.18a2.25,2.25,0,0,0,1.29,2.21Z"/><path class="cls-1" d="M113.81,166.51c1.45-1.27,1-2.79.86-4.28-.39-3.23-.77-6.47-1.15-9.7,0-.3-.12-.59-.18-.89-.33.06-.34.33-.44.53q-3.3,6.66-6.59,13.31c-.22.44-.39.82-1,.82s-.81-.34-1-.8q-3.17-6.51-6.37-13c-.13-.28-.18-.64-.63-.85-.21,1.52-.41,3-.61,4.47-.28,2.12-.6,4.24-.83,6.37-.13,1.26-.47,2.62.84,3.58.28.21.2.44-.17.44-1.65,0-3.31,0-5,0,.14-.59.66-.7.89-1.06a7.52,7.52,0,0,0,.92-3.19c.84-5.82,1.66-11.65,2.5-17.47,0-.34-.09-.86.55-.84s1.1-.13,1.44.59c1.46,3.12,3,6.2,4.48,9.3,1,2.09,2,4.18,3,6.27.14.29.3.58.47.9.35-.17.4-.48.52-.73,2.52-5.19,5-10.37,7.52-15.57a1.21,1.21,0,0,1,1.33-.78.69.69,0,0,1,.76.69q1,7.53,2,15.06c.18,1.35.34,2.7.58,4a3.45,3.45,0,0,0,1.11,2.32c.3.23.28.48-.18.48C117.52,166.52,115.66,166.51,113.81,166.51Z"/><path class="cls-1" d="M6.32,144.22a36.38,36.38,0,0,1,7.29.41c5.44,1.22,8.51,5.54,8.14,11.08-.42,6.31-4.65,10.44-11.51,10.77-3.2.15-6.41,0-9.62,0-.19,0-.46.11-.58-.11s.14-.36.28-.49a3,3,0,0,0,.87-2.39q0-8.11,0-16.23a3,3,0,0,0-.91-2.48c-.13-.11-.35-.21-.26-.42s.36-.16.56-.16ZM8,146.56c-1,0-1.83,0-2.61,0-.57,0-.74.21-.74.75q0,8.07,0,16.13c0,.55.2.76.75.75,1.84-.05,3.68.07,5.52-.14,3.65-.42,6.16-2.52,6.92-5.92a12.19,12.19,0,0,0-.08-5.57,7.13,7.13,0,0,0-5.7-5.65A15.86,15.86,0,0,0,8,146.56Z"/><path class="cls-1" d="M122.59,155.51a11.48,11.48,0,0,1,11.8-11.8c6.91,0,11.83,4.79,11.8,11.5A11.56,11.56,0,0,1,134.38,167C127.49,167,122.59,162.22,122.59,155.51Zm19.88.23a10.16,10.16,0,0,0-2.25-6.68c-3.68-4.56-10.89-3.78-13.09,1.5a10.61,10.61,0,0,0,1,10.53,7.87,7.87,0,0,0,11.74,1.62C141.88,160.88,142.49,158.49,142.47,155.74Z"/><path class="cls-1" d="M61.05,156.67c2.14,1.69,3.5,3.9,5.12,5.88a17,17,0,0,0,3.61,3.84,20.09,20.09,0,0,1-4.65,0c-.52-.1-.83-.58-1.14-1l-4.71-6.32c-.67-.9-1.4-1.68-2.69-1.48-.68.11-.71-.55-.91-.94-.7-1.33-.69-1.34.83-1.34a10.29,10.29,0,0,0,2.07-.13,4.16,4.16,0,0,0,3.62-4.48,4,4,0,0,0-3.86-4.12c-1.29-.13-2.6-.06-3.9-.09-.41,0-.61.16-.6.58.07,5.68-.18,11.36.13,17a2.58,2.58,0,0,0,.84,1.85c.12.1.26.21.22.37s-.29.17-.45.17c-1.67,0-3.33,0-5,0-.14,0-.32.05-.39-.13s0-.27.17-.37a3.32,3.32,0,0,0,1-2.73q0-7.87,0-15.77a3.36,3.36,0,0,0-1-2.8c-.12-.1-.25-.23-.12-.38s.39-.11.6-.11c2.93,0,5.86,0,8.79.06a10,10,0,0,1,3.19.6,5.49,5.49,0,0,1,4,4.91A5.83,5.83,0,0,1,62.53,156C62.08,156.26,61.6,156.43,61.05,156.67Z"/><path class="cls-1" d="M151.12,153.24c0-1.87,0-3.75,0-5.62a3.38,3.38,0,0,0-1-2.88c-.12-.1-.25-.2-.16-.38s.25-.13.39-.13h5c.28,0,.71.13.34.42a3.52,3.52,0,0,0-1.06,3.06c0,3.83-.22,7.67.1,11.5a5.25,5.25,0,0,0,5.24,5,10.27,10.27,0,0,0,2.35-.07,5.37,5.37,0,0,0,4.61-5.47c.08-3.8,0-7.61,0-11.42a3,3,0,0,0-1.08-2.49c-.13-.09-.25-.19-.22-.36s.22-.18.36-.18h4.63c.14,0,.33,0,.37.16a.42.42,0,0,1-.15.3c-1.16.84-1.22,2.1-1.23,3.34,0,3.54,0,7.08,0,10.61-.06,3.79-2,6.64-5.31,7.76a11.63,11.63,0,0,1-5,.57,14,14,0,0,1-2.23-.38,7.59,7.59,0,0,1-5.88-7.45c-.06-2,0-3.93,0-5.9Z"/><path class="cls-1" d="M45.37,166.51c-2,0-4,0-6,0-.1,0-.26,0-.3-.12s0-.27.15-.36a1.61,1.61,0,0,0,.51-2.17c-.45-1.18-1-2.34-1.43-3.51a.65.65,0,0,0-.72-.42H29.39a.71.71,0,0,0-.77.47c-.47,1.15-1,2.27-1.4,3.43a1.6,1.6,0,0,0,.63,2.21c.14.07.26.17.2.34s-.24.14-.38.14c-1.6,0-3.21,0-4.81,0-.29,0-.58-.17-.24-.4,1.42-.94,1.86-2.5,2.5-3.91,2.65-5.78,5.25-11.59,7.87-17.39.19-.43.3-.88,1-.88s.86.38,1.08.86q4,8.88,8,17.73c.62,1.37,1.11,2.82,2.41,3.76ZM33.53,149.57c-.16.17-.23.22-.26.29l-3.18,7.21c-.23.52,0,.62.47.61,1.9,0,3.81,0,5.71,0,.73,0,.73-.25.49-.79-.66-1.46-1.3-2.93-1.94-4.39Z"/><path class="cls-1" d="M186.26,155.42c0,2.48,0,5,0,7.44,0,1.19.08,2.37,1.17,3.18a.4.4,0,0,1,.15.3c0,.19-.21.17-.36.17-1.81,0-3.62,0-5.44,0a.43.43,0,0,1-.3-.12c-.09-.15,0-.28.13-.38a3,3,0,0,0,1.11-2.65c0-5.38,0-10.76,0-16.14,0-.43-.11-.68-.61-.66a42.13,42.13,0,0,0-4.35.13,3.94,3.94,0,0,0-2.56,1.19c-.14.15-.27.38-.52.26s-.1-.36-.07-.55c.15-1,.31-2,.45-3.05.06-.41.19-.59.7-.55a139.66,139.66,0,0,0,17.48,0c.36,0,.56,0,.61.42.15,1.07.35,2.14.52,3.21,0,.18.08.4-.08.51s-.35,0-.47-.16a4.43,4.43,0,0,0-3.51-1.36c-1.12-.06-2.24,0-3.36,0-.62,0-.75.24-.74.8C186.27,150,186.26,152.73,186.26,155.42Z"/><path class="cls-1" d="M81.73,155.53c0,2.6,0,5.2,0,7.79A3.06,3.06,0,0,0,82.81,166a.32.32,0,0,1,.17.38c-.06.18-.24.14-.38.14-1.79,0-3.57,0-5.35,0-.14,0-.33.05-.38-.15s.06-.27.19-.37a3.14,3.14,0,0,0,1.12-2.82c0-5.26,0-10.52,0-15.78,0-.6-.13-.87-.8-.84-1.39.08-2.78-.05-4.16.14a3.94,3.94,0,0,0-2.57,1.19c-.13.15-.27.39-.52.26s-.11-.37-.08-.57c.16-1,.35-2,.46-2.95.07-.56.25-.65.81-.62a140.65,140.65,0,0,0,17.3,0c.48,0,.65.09.71.53.15,1,.32,2.09.49,3.13,0,.17.12.37-.09.48s-.34,0-.46-.18c-.91-1.13-2.22-1.27-3.52-1.35-1.08-.06-2.18,0-3.26,0-.73-.05-.84.29-.83.91,0,2.69,0,5.38,0,8.07Z"/></g></g></svg>