<svg xmlns="http://www.w3.org/2000/svg" viewBox="0 0 274.98 165.35"><defs><style>.cls-1{fill:#fff;}</style></defs><g id="Layer_2" data-name="Layer 2"><g id="Layer_1-2" data-name="Layer 1"><path class="cls-1" d="M0,149c1.16-3.42,3.91-4.35,7.12-4.51a26.61,26.61,0,0,1,6.65.69c.64.12.86.39.83,1,0,1.24,0,2.48,0,3.71,0,.63-.11,1-.84.92-.55-.08-1.33.33-1.36-.79a3,3,0,0,0-2-3.08,5,5,0,0,0-5,.57A2.57,2.57,0,0,0,6,151.92c1.49.75,3.08,1.31,4.63,2a11.49,11.49,0,0,1,2.53,1.32,5.29,5.29,0,0,1-.59,8.84,10.39,10.39,0,0,1-5,1.11A37.88,37.88,0,0,1,0,164.37v-5.51c.32,0,.64,0,1-.05,1-.14,1.49.11,1.57,1.26A3,3,0,0,0,5,162.81a7.8,7.8,0,0,0,2.72.18,2.87,2.87,0,0,0,3-2.4c.25-1.43-.33-2.44-1.92-3.18s-3-1.29-4.49-1.94a7.09,7.09,0,0,1-4.28-4Z"/><path class="cls-1" d="M114.67,41.83V54.89c0,.32,0,.64,0,1,.15,4.29,1.63,5.8,5.93,5.92.7,0,1,.17,1,.93-.06,1.48-.07,3,0,4.43,0,.87-.35,1.13-1.09,1.19a150,150,0,0,0-18.39,2.88q-4.86,1-9.61,2.44c-.87.26-1.1.1-1.09-.81,0-3.35,0-6.71,0-10.06,0-.8.23-1,1-1a8.69,8.69,0,0,0,1.9-.19,3.89,3.89,0,0,0,3.53-3.52,17.08,17.08,0,0,0,.25-2.86q0-19.41,0-38.82a17.15,17.15,0,0,0-.13-2c-.42-3.26-1.7-4.52-5-4.54-1.38,0-1.63-.44-1.57-1.68.1-2.32.08-4.64,0-7,0-1,.32-1.18,1.22-1.18q12.82,0,25.65,0a1.61,1.61,0,0,1,1.65,1q8.24,15.87,16.52,31.73c.11.21.21.43.34.63.59,1,1.21,1,1.76,0,1-1.86,2-3.74,3-5.61q7-13.39,14.06-26.81A1.43,1.43,0,0,1,157,0q12.88,0,25.78,0c.89,0,1.15.25,1.13,1.14-.07,2.56,0,5.12,0,7.67,0,.72-.18,1.06-.93.95a3,3,0,0,0-.6,0c-3.5.13-5,1.58-5.17,5.09,0,.56,0,1.12,0,1.68V55c0,.55,0,1.12,0,1.67.2,3.45,1.63,4.89,5.06,5.11,1.61.1,1.62.1,1.62,1.69,0,2.88,0,5.76,0,8.63,0,.85-.14,1.13-1.08.87a139.88,139.88,0,0,0-18.34-3.83,89.8,89.8,0,0,0-9.26-1c-1,0-1.62-.29-1.51-1.52a34.87,34.87,0,0,0,0-4c0-.58.12-.82.78-.86,4.92-.29,6.1-1.57,6.1-6.53,0-9,0-18,0-27,0-.77.42-1.83-.74-2.14s-1.74.5-2.26,1.37q-7.34,12.5-14.68,25c-1.38,2.34-2.74,4.69-4.11,7-.91,1.54-1.49,1.53-2.41,0L117.72,27.67a5,5,0,0,0-.66-1,1.58,1.58,0,0,0-1.73-.5c-.68.25-.66.83-.66,1.4Z"/><path class="cls-1" d="M195.34,133.92c-4.87,0-9.75,0-14.62,0-1,0-1.44-.19-1.28-1.23a3.85,3.85,0,0,0,0-1c-.05-.61.12-.88.83-1,3.74-.43,4.39-1.49,3.27-5.07-1.07-3.38-1.07-3.38-4.58-3.38-3.24,0-6.47,0-9.71,0-.71,0-1.08.18-1.26.91-.35,1.35-.87,2.66-1.21,4-.51,2,.22,3.06,2.24,3.38a5.29,5.29,0,0,0,.95.13c.81,0,1.1.29,1.07,1.13-.08,2.43.22,2-2,2-4.28,0-8.55,0-12.83,0-.93,0-1.24-.23-1.22-1.19,0-1.12,0-2,1.44-2.33,1.32-.33,2-1.64,2.57-2.86,1.17-2.71,2.27-5.44,3.36-8.18q4.23-10.62,8.42-21.24a1.16,1.16,0,0,1,1.31-.87c2.59,0,5.19.06,7.79,0a1.28,1.28,0,0,1,1.45,1q5.22,13.76,10.5,27.49a12.37,12.37,0,0,0,1.72,3.4,4.08,4.08,0,0,0,4.36,1.53c1.76-.36,2.33-1.64,2.52-3.21a13.88,13.88,0,0,0,.07-1.44V105.19a10,10,0,0,0-.1-1.55c-.35-2.23-1.09-2.91-3.34-3.2-.38,0-1,.22-1.11-.39a5.57,5.57,0,0,1,.08-2.6c.09-.27.5-.16.78-.16,4.35,0,8.71,0,13.06,0,.9,0,1,.58,1.3,1.13q5.31,11.31,10.6,22.64c.47,1,.94,2,1.42,3,.19.41.4.86,1,.74s.58-.59.58-1q0-6.17-.07-12.34c0-2.48-.06-5-.15-7.42s-.95-3.37-3.32-3.52c-1.06-.07-1.3-.47-1.18-1.38a4.4,4.4,0,0,0,0-1c-.07-.69.23-.88.9-.85,1.92.09,3.83.15,5.75.14,2.59,0,5.19,0,7.78-.14.9,0,1.15.25,1,1.06a2,2,0,0,0,0,.59c.19,1.09-.19,1.5-1.36,1.58-2,.14-2.77,1-3.09,3a8.9,8.9,0,0,0-.08,1.55c0,9.19,0,18.38,0,27.56,0,1-.22,1.38-1.31,1.34-2.6-.09-5.2-.06-7.79,0a1.53,1.53,0,0,1-1.64-1q-5.91-12.1-11.87-24.16a5.44,5.44,0,0,0-.27-.54c-.17-.28-.41-.53-.77-.45a.75.75,0,0,0-.61.79c0,.8,0,1.59,0,2.39q0,7.32.07,14.62a17.15,17.15,0,0,0,.12,2c.24,2.21,1.19,3.14,3.41,3.16.91,0,1.05.38,1,1.14-.06,2.42.21,2-1.95,2C204.69,133.94,200,133.92,195.34,133.92ZM175.49,117.8v0c1.43,0,2.87,0,4.3,0,.82,0,1-.27.72-1-1.4-4.22-2.78-8.46-4.16-12.69-.14-.44-.31-.88-.85-.85s-.61.42-.75.81c-1.49,4.24-3,8.48-4.51,12.71-.29.81,0,1,.7,1C172.46,117.81,174,117.8,175.49,117.8Z"/><path class="cls-1" d="M12,118.48c0,2.76,0,5.52,0,8.27,0,2.91.93,3.93,3.79,4.08.67,0,.78.29.77.86-.08,2.81.4,2.2-2.13,2.22-4.12,0-8.23,0-12.35,0-1,0-1.39-.26-1.24-1.26a4.87,4.87,0,0,0,0-1.08c0-.54.16-.74.74-.78,2.83-.21,3.69-1.05,3.76-3.85.13-5.07.2-10.14.3-15.21,0-2,.1-4.07.15-6.1a10.68,10.68,0,0,0-.16-2.39,2.91,2.91,0,0,0-2.94-2.75c-.49-.07-1.23.13-1.4-.39a4.88,4.88,0,0,1,0-2.49c.1-.47.59-.3.92-.3,2.6,0,5.19.08,7.79.09,1.64,0,3.28,0,4.91-.12a1.64,1.64,0,0,1,1.86,1.17c2.2,5.05,4.47,10.06,6.72,15.09.21.45.29,1.08,1,1.07s.76-.64,1-1.09c2.47-5.14,4.95-10.28,7.38-15.43a1.2,1.2,0,0,1,1.34-.84,114.76,114.76,0,0,0,12.58,0c.93,0,1.23.27,1.11,1.14a4.71,4.71,0,0,0,0,.84c.06.72,0,1.14-1,1.2-2.7.16-3.64,1.19-3.62,4,0,4.39.13,8.79.21,13.18.06,3.19.11,6.38.24,9.57.1,2.59,1,3.52,3.6,3.6.79,0,.9.34.91,1,0,2.11,0,2.09-2.06,2.09-4.2,0-8.39,0-12.59,0-1,0-1.42-.21-1.27-1.24a6.76,6.76,0,0,0,0-1.19c0-.53.22-.66.71-.7,3-.28,3.83-.94,3.89-4,.13-5.83,0-11.66,0-17.49,0-.41,0-.89-.49-1s-.84.38-1.06.79c-1.64,3-3.26,5.95-4.89,8.92l-5,9.25c-.23.42-.41.91-1,1s-.85-.52-1.09-1c-3.13-5.71-6.23-11.42-9.37-17.12-.36-.66-.58-1.82-1.5-1.58S12,110,12,110.69C11.92,113.29,12,115.89,12,118.48Z"/><path class="cls-1" d="M92.65,133.92c-2.19,0-4.39,0-6.59,0-.8,0-1.22-.18-1.09-1.05a2,2,0,0,0,0-.6c-.17-1.08.14-1.52,1.37-1.52,1.88,0,2.87-1.05,3.14-3a.5.5,0,0,0,0-.12q.34-12,0-24c-.07-2.29-1-3.11-3.32-3.27-1-.07-1.35-.4-1.21-1.35a5.57,5.57,0,0,0,0-1.08c0-.56.18-.77.76-.77q6.7,0,13.42,0c.79,0,.87.57,1.1,1q5.86,12.51,11.74,25c.28.59.35,1.66,1.3,1.41s.55-1.22.55-1.89c0-6-.09-11.9-.15-17.85,0-.36,0-.72,0-1.08-.18-2.35-1.06-3.34-3.41-3.47-1,0-1.22-.44-1.12-1.29a3.85,3.85,0,0,0,0-1c-.08-.72.16-1,.93-.93,4.55.22,9.1.21,13.65,0,.68,0,1,.17.9.86a2.41,2.41,0,0,0,0,.71c.19,1.14-.21,1.58-1.42,1.67-2.13.17-3,1.25-3.07,3.5-.07,3.8-.06,7.59-.07,11.39,0,5.79,0,11.58,0,17.37,0,.89-.22,1.18-1.14,1.16q-4-.09-8,0a1.45,1.45,0,0,1-1.53-1q-5.85-11.85-11.77-23.68c-.12-.25-.25-.5-.38-.75-.19-.41-.4-.86-1-.71s-.6.58-.6,1.05l.06,5c.06,4.07.11,8.14.19,12.21a12,12,0,0,0,.17,1.9c.32,1.86,1.28,2.77,3.16,2.77,1,0,1.37.32,1.22,1.28a2,2,0,0,0,0,.6c.15,1-.2,1.31-1.23,1.27C97.05,133.86,94.85,133.92,92.65,133.92Z"/><path class="cls-1" d="M85.17,115.74a22.58,22.58,0,0,1-1.07,7.68A15.94,15.94,0,0,1,70,134.64a26,26,0,0,1-9.27-.58A15.32,15.32,0,0,1,49.3,122.73a26.05,26.05,0,0,1,.1-14.54c1.94-6.51,6.45-10.19,13.05-11.35a23.41,23.41,0,0,1,11,.54c6.72,2.06,10.21,6.87,11.39,13.6A25.53,25.53,0,0,1,85.17,115.74Zm-28.19,1a19.27,19.27,0,0,0,1.7,8.08,8.44,8.44,0,0,0,8.5,5.24,8.39,8.39,0,0,0,7.87-5.46,19,19,0,0,0,1.51-7c.18-3.93.06-7.82-1.62-11.48a8.38,8.38,0,0,0-8.13-5.26,8.4,8.4,0,0,0-8.09,5.16C57.29,109.07,57,112.26,57,116.77Z"/><path class="cls-1" d="M266.2,133.92c-2.44,0-4.87,0-7.31,0-.85,0-1.32-.16-1.17-1.1a1.09,1.09,0,0,0,0-.36c-.25-1.26.27-1.67,1.54-1.81,2.8-.32,3.46-1.43,2.72-4.18-.32-1.15-.73-2.28-1.06-3.42a.91.91,0,0,0-1-.74c-4.2,0-8.39,0-12.59,0-.42,0-.77,0-.91.54-.46,1.53-1,3-1.39,4.57-.44,1.93.29,2.87,2.23,3.17l.12,0c1.92.29,2.18.71,1.86,2.71-.11.69-.55.57-1,.57-1.91,0-3.83-.07-5.75-.07-2.71,0-5.43,0-8.14.09-.85,0-1.09-.25-1.1-1.08,0-1.15-.1-2.11,1.44-2.47,1.21-.29,1.86-1.48,2.38-2.56,1.7-3.53,3-7.22,4.44-10.84q3.76-9.39,7.45-18.79a1.25,1.25,0,0,1,1.4-.93c2.56,0,5.12.06,7.67,0a1.35,1.35,0,0,1,1.53,1.06Q264.73,112,270,125.59a15.13,15.13,0,0,0,1.67,3.43,3.51,3.51,0,0,0,2.18,1.58c.92.14,1,.65,1,1.4,0,1.93,0,1.92-2,1.9-2.2,0-4.39,0-6.59,0Zm-12.69-16.1c1.55,0,3.11,0,4.67,0,.6,0,.77-.21.58-.79q-2.11-6.47-4.21-13c-.13-.39-.28-.79-.77-.8s-.65.39-.79.77c-1.54,4.31-3.07,8.63-4.63,12.93-.23.66-.07.85.6.84C250.47,117.8,252,117.82,253.51,117.82Z"/><path class="cls-1" d="M146.91,115.07c0,3.75,0,7.5,0,11.26a7.73,7.73,0,0,0,.19,2.14c.48,1.68,1.48,2.31,3.67,2.37.41,0,1.1-.33,1.18.38a5.13,5.13,0,0,1-.13,2.58c0,.12-.51.12-.78.12-5.43,0-10.86,0-16.29,0-.79,0-1.09-.26-1-1a4.4,4.4,0,0,0,0-1c-.12-.87.2-1.16,1.12-1.15,2.66,0,3.58-.84,3.9-3.47a9.59,9.59,0,0,0,.07-1.31c0-7.67,0-15.34,0-23,0-1.08-.31-1.4-1.35-1.31s-2.16,0-3.23.07c-2.77.15-4,1.44-4.11,4.24-.09,2.33-.09,2.29-2.45,2.33-1,0-1.32-.21-1.3-1.25.07-2.87.06-5.75,0-8.62,0-.92.21-1.23,1.19-1.21q8.38.15,16.76.16c4.55,0,9.1-.06,13.65-.16,1,0,1.19.28,1.18,1.2-.06,3-.05,5.91,0,8.86,0,.8-.24,1-1,1-2.78,0-2.78.06-3-2.65s-1.38-3.76-3.92-3.91c-1.12-.07-2.24,0-3.35-.08-.8,0-1,.24-1,1C146.92,106.84,146.91,111,146.91,115.07Z"/><path class="cls-1" d="M123.31,156.25c0,1.63,0,3.27,0,4.9s.36,2,1.9,2.24c.78.14.54.63.58,1.06,0,.58-.32.61-.77.61H118.2c-.47,0-.79-.08-.75-.64s-.16-1,.62-1c1.36-.08,1.82-1,1.83-2.21,0-4,0-8,0-12,0-1.2-.39-2.14-1.77-2.25-.81-.06-.66-.61-.68-1.11,0-.69.45-.62.89-.62,2,0,4.08,0,6.11,0a1.27,1.27,0,0,1,1.35.86c2,4.31,4,8.6,6,12.89a4.14,4.14,0,0,0,.2.43c.16.3.23.78.7.65s.29-.52.3-.83c0-1.07,0-2.15,0-3.23,0-2.27-.08-4.55-.11-6.82,0-1.23-.42-2.13-1.8-2.21-.87,0-.59-.65-.64-1.11-.06-.63.35-.57.77-.57,2.28,0,4.55,0,6.83,0,.45,0,.82,0,.75.59-.06.42.21.91-.55,1.1-1.71.41-1.87.69-1.87,2.48,0,4.83,0,9.66,0,14.49,0,1-.3,1.23-1.21,1.17a28.8,28.8,0,0,0-3.35,0,1.31,1.31,0,0,1-1.44-.92c-2-4.28-4-8.52-6-12.78a6.31,6.31,0,0,0-.31-.64c-.12-.2-.22-.48-.51-.43s-.37.37-.37.65v5.27Z"/><path class="cls-1" d="M204.56,155c1.83.61,2.12,2.11,2.51,3.52.26.92.47,1.85.73,2.77a2.05,2.05,0,0,0,1.1,1.5c.82.33.74,1,.64,1.58-.13.81-.83.38-1.27.43-.67.07-1.37-.07-2,0-1.4.23-2-.4-2.26-1.71-.28-1.48-.66-3-1-4.41a3.55,3.55,0,0,0-4.54-2.55c-.37.11-.41.32-.41.61,0,1.59,0,3.19,0,4.78a1.52,1.52,0,0,0,1.61,1.59c.77,0,.77.39.8,1,0,.76-.43.71-.93.71h-7.3c-.44,0-1,.18-1-.62,0-.62,0-1,.84-1.05a1.56,1.56,0,0,0,1.57-1.51,18.9,18.9,0,0,0,.09-3.1c0-2.92,0-5.83,0-8.74,0-2.14-.07-2.26-2.08-2.95-.59-.2-.37-.61-.41-1s.08-.7.58-.68c3.94.15,7.91-.41,11.82.42,2.51.54,3.7,1.81,4,4C207.91,152.11,207.06,153.7,204.56,155Zm-5-.93c2.31,0,3.44-.62,3.84-2.07.69-2.52-.53-4.26-3.13-4.44-.51,0-1,0-1.55,0s-.75.23-.74.78c0,1.39,0,2.78,0,4.17C198,154.34,197.79,154.07,199.56,154.1Z"/><path class="cls-1" d="M48.44,164.84h-3.6c-.47,0-1,.12-1-.66,0-.53-.05-.94.74-1.06,1.69-.26,2-.82,1.49-2.49-.72-2.52-.72-2.52-3.29-2.52-1.36,0-2.72,0-4.07,0a.89.89,0,0,0-1,.74c-.18.7-.44,1.37-.64,2.06-.41,1.46-.1,2,1.4,2.23.81.09.81.47.82,1.08,0,.81-.54.64-1,.64H31.85c-.35,0-.88.2-.93-.42,0-.44-.26-1,.31-1.29,1.23-.62,1.62-1.82,2.08-3q2.8-7,5.55-14c.32-.82.7-1.23,1.63-1.15a19.9,19.9,0,0,0,3,0,1.33,1.33,0,0,1,1.57,1c1.73,4.67,3.52,9.32,5.32,14,.48,1.25.87,2.58,2.35,3.13.58.22.31.84.28,1.28s-.53.38-.85.39Zm-6.91-9.09c.72,0,1.43,0,2.15,0s.68-.2.51-.72c-.67-2-1.31-4.09-2-6.13-.08-.26-.14-.59-.5-.57s-.4.34-.49.6c-.51,1.42-1,2.85-1.52,4.27C38.79,155.75,38.79,155.75,41.53,155.75Z"/><path class="cls-1" d="M98.32,154.3c0-1.64,0-3.28,0-4.92,0-1.12,0-2.28-1.59-2.54-.62-.1-.31-.71-.35-1.1s.26-.51.62-.51c2.44,0,4.87,0,7.31,0,.45,0,.69.17.63.62s.22.85-.48,1c-1.88.5-2,.68-2,2.61,0,3.27-.19,6.55.12,9.81.22,2.3,1.48,3.31,3.87,3.33s4-1.16,4.09-3.43c.14-3.5.07-7,.06-10.53a1.6,1.6,0,0,0-1.61-1.74c-.84-.05-.8-.5-.81-1.1,0-.83.59-.59,1-.59,2,0,4,0,6,0,.41,0,.94-.14.93.58,0,.49.15,1-.67,1.11-1.23.18-1.36,1.21-1.37,2.2,0,2.76,0,5.51,0,8.27a19.46,19.46,0,0,1-.22,2.74,5.52,5.52,0,0,1-4.81,4.93,13.58,13.58,0,0,1-6.4-.2,5.57,5.57,0,0,1-4.28-5.53c0-1.68,0-3.36,0-5Z"/><path class="cls-1" d="M77.16,145.28c2.32,0,4.63,0,7,0,.79,0,1,.24,1,1-.06,1.16,0,2.32,0,3.47,0,.62-.08,1-.83.93-.56-.05-1.06.08-1.06-.82,0-1.47-.53-2.08-2-2.21-1.59-.13-3.19-.07-4.79-.1-.47,0-.63.23-.63.66,0,1.64,0,3.27,0,4.91a.57.57,0,0,0,.32.58c1.16.59,3.33-.34,3.43-1.59.07-.84.41-.93,1.11-.94,1,0,.73.63.74,1.15,0,1.67,0,3.35,0,5,0,.52,0,1-.73.94s-1,0-1.13-.81c-.15-1.4-2.17-2.33-3.44-1.71-.38.19-.32.53-.32.83,0,1.72,0,3.43,0,5.15,0,.69.29.91.94.89,1.23-.05,2.47,0,3.7-.11,2.25-.18,2.7-.61,2.94-2.79.08-.68.13-1.11,1-1.07s.77.61.77,1.15c0,1.4,0,2.8,0,4.19,0,.62-.22.84-.84.83H69.84c-.55,0-.79-.17-.76-.75s0-.91.72-.92c1.18,0,1.71-.76,1.72-1.87,0-4.15,0-8.3,0-12.45a1.69,1.69,0,0,0-1.67-1.94c-.77,0-.76-.45-.77-1,0-.71.46-.63.89-.63Z"/><path class="cls-1" d="M180.38,164.85h-6.94c-.43,0-1,.21-1-.6,0-.59,0-1.05.82-1.08a1.58,1.58,0,0,0,1.55-1.79q.06-6.28,0-12.57a1.69,1.69,0,0,0-1.63-1.88c-.77,0-.75-.48-.75-1,0-.71.49-.61.92-.61,4.67,0,9.34,0,14,0,.75,0,1,.27,1,1,0,1.2,0,2.39,0,3.59,0,.59-.15.88-.81.85s-.95,0-1-.79c-.1-1.62-.59-2.15-2.18-2.27s-3,0-4.55-.08c-.55,0-.67.24-.67.73,0,1.59,0,3.19,0,4.79,0,.24,0,.48.23.64,1,.61,3.29-.34,3.5-1.51.14-.76.38-1.11,1.21-1s.57.82.58,1.27c0,1.68,0,3.36,0,5,0,.42,0,.84-.59.81s-1,.16-1.16-.64a2.51,2.51,0,0,0-3.33-1.91c-.44.1-.46.36-.46.69,0,1.84,0,3.68,0,5.51,0,.53.23.7.71.7a33.3,33.3,0,0,0,4.79-.16c1.38-.2,1.93-.89,2-2.78,0-.92.46-1,1.2-1,.54,0,.68.27.67.75,0,1.55,0,3.11,0,4.67,0,.71-.37.74-.91.74Z"/><path class="cls-1" d="M155.13,145.2c1.07,0,2.15,0,3.23,0,.57,0,.91.1.87.78,0,.53,0,.85-.74.93-1.66.18-1.85.54-1.31,2.1,1.21,3.54,2.44,7.08,3.66,10.62.12.33.12.8.56.83s.49-.46.6-.78c1.2-3.59,2.4-7.18,3.56-10.79.41-1.24.06-1.82-1.26-2-.71-.08-1-.28-.94-1s.58-.7,1.08-.7c2,0,4,0,6,0,.34,0,.91-.25.95.36s.34,1.15-.44,1.43c-1,.36-1.35,1.28-1.68,2.19-1.76,5-3.54,9.91-5.26,14.88a1.37,1.37,0,0,1-1.54,1.08c-3.5,0-3.51,0-4.75-3.32q-2.36-6.33-4.7-12.67a3.22,3.22,0,0,0-1.75-2.28c-.62-.24-.32-.84-.31-1.27s.49-.4.82-.41c1.12,0,2.24,0,3.36,0Z"/><path class="cls-1" d="M211.34,161.76v-1.32c0-1.34.5-1.7,1.83-1.39.45.11.44.37.45.7a3.1,3.1,0,0,0,2.18,3.11c1.71.55,3.49.73,5-.47a2.68,2.68,0,0,0-.49-4.44c-1.25-.69-2.6-1.19-3.92-1.77a16.88,16.88,0,0,1-2.87-1.47,5,5,0,0,1,.59-8.8c2.24-1.14,4.64-1.07,7-.85,1.42.13,3.22-.05,4.11.9s.19,2.67.29,4c.05.67.07,1.27-.94,1.19-.75,0-1.35.09-1.33-1.06a2.72,2.72,0,0,0-2.35-2.89,5.67,5.67,0,0,0-3.41.1,2.67,2.67,0,0,0-1.94,2.36,2.47,2.47,0,0,0,1.56,2.59c1.56.71,3.16,1.32,4.73,2a12.34,12.34,0,0,1,1.92,1,5.19,5.19,0,0,1-.54,9,12,12,0,0,1-6.08,1c-1.59-.06-3.16-.34-4.74-.55-.94-.13-1.2-.57-1.11-1.42C211.38,162.8,211.34,162.28,211.34,161.76Z"/><path class="cls-1" d="M265.54,164.84h-3.71c-.5,0-1,.05-.94-.7,0-.58,0-1,.8-1,1.24,0,1.8-.72,1.83-1.89,0-1.32,0-2.64,0-4a2.21,2.21,0,0,0-.38-1.12c-1.4-2.42-2.78-4.84-4.19-7.25a3.56,3.56,0,0,0-2.13-2c-.75-.19-.53-.78-.53-1.27,0-.65.51-.49.87-.49q3.24,0,6.47,0c.37,0,.88-.14.87.5,0,.47.23,1-.58,1.2-1,.18-1.17.84-.77,1.69.69,1.44,1.4,2.87,2.11,4.3.36.74.75.78,1.13,0,.71-1.39,1.45-2.76,2.1-4.17.37-.82.33-1.64-.78-1.84-.82-.15-.56-.72-.59-1.19,0-.64.46-.52.83-.53h6.11c.38,0,.89-.12.86.52,0,.42.26,1-.45,1.18a3.4,3.4,0,0,0-1.9,1.73l-4.7,7.66a2.22,2.22,0,0,0-.37,1.23c0,1.12,0,2.24,0,3.36.07,1.85.2,2,2,2.28.7.09.57.49.6.91s-.11.76-.66.75C268.18,164.83,266.86,164.84,265.54,164.84Z"/><path class="cls-1" d="M59.44,145.23c2.55,0,5.11,0,7.66,0,.78,0,1.05.22,1,1-.06,1.27,0,2.55,0,3.83,0,.63-.21.88-.83.82s-1.2.2-1.31-.77a2.93,2.93,0,0,0-4-2.53c-.45.14-.39.44-.39.74,0,4.35,0,8.7,0,13.05a1.62,1.62,0,0,0,1.76,1.82c.76,0,.93.24.93,1,0,.87-.56.7-1,.7H55.78c-.43,0-.93.09-.91-.6,0-.51-.13-1,.7-1.07a1.53,1.53,0,0,0,1.54-1.66c0-4.43,0-8.86,0-13.29,0-.43-.12-.68-.61-.66-.67,0-1.36,0-2,.06-1.35.18-1.88.76-2,2.4,0,.82-.43.84-1,.86s-.92-.21-.9-.89c0-1.28,0-2.56,0-3.83,0-.74.21-1,.95-.95C54.17,145.26,56.8,145.23,59.44,145.23Z"/><path class="cls-1" d="M247,145.23c2.6,0,5.2,0,7.79,0,.74,0,1,.21,1,.94-.06,1.24,0,2.48,0,3.72,0,.58-.14,1-.79.87s-1.28.32-1.32-.7c-.09-2.49-1.68-2.54-4-2.48-.53,0-.51.39-.51.75,0,4.28,0,8.55,0,12.82,0,1.41.53,1.93,2,2,.73.06.71.42.72.93s-.26.74-.8.74c-2.71,0-5.43,0-8.15,0-.59,0-.77-.25-.74-.79s0-.9.65-.86c1.57.1,2-1,2-2.22,0-4.16,0-8.31,0-12.46,0-.71-.17-1.05-.93-1-.52.06-1,0-1.56,0-1.42.13-2,.67-2.1,2.11-.06.81-.32,1.08-1.15,1.07s-.92-.48-.91-1.14c0-1.16,0-2.32,0-3.47,0-.74.22-1,1-.95C241.77,145.25,244.41,145.23,247,145.23Z"/><path class="cls-1" d="M24.58,145.23c2.59,0,5.19,0,7.78,0,.72,0,1,.17,1,.93-.06,1.27-.05,2.55,0,3.83,0,.67-.19,1-.88.88-.51-.07-1.18.3-1.25-.75A3,3,0,0,0,27,147.58c-.41.16-.35.49-.35.79,0,4.19,0,8.38,0,12.57,0,1.64.35,2,2,2.25.74.11.48.58.54,1s-.15.7-.67.7c-2.72,0-5.43,0-8.15,0-.58,0-.75-.22-.74-.78s.05-.85.75-.89c1.44-.09,1.91-.56,1.93-2,.05-4.27,0-8.54.05-12.81,0-.66-.27-.83-.86-.79s-1,0-1.43,0c-1.61.1-2.27.68-2.33,2.27,0,.89-.37,1-1.15,1s-.85-.49-.85-1.09c0-1.23,0-2.47,0-3.71,0-.69.24-.88.91-.87C19.31,145.25,21.94,145.23,24.58,145.23Z"/><path class="cls-1" d="M145.3,164.84h-3.71c-.46,0-.9,0-.88-.65s-.06-1,.75-1c1.2,0,1.66-.9,1.67-1.94q.06-6.22,0-12.44a1.68,1.68,0,0,0-1.63-1.87c-.74,0-.8-.42-.8-1,0-.76.48-.68,1-.68H149c.41,0,.91-.13.91.59s0,1.06-.8,1.11a1.65,1.65,0,0,0-1.61,1.87c0,4.19,0,8.38,0,12.57a1.62,1.62,0,0,0,1.67,1.8c.83,0,.71.51.74,1,0,.68-.41.65-.86.65Z"/><path class="cls-1" d="M232.35,145.23c1.28,0,2.55,0,3.83,0,.44,0,.82,0,.77.61s.18.9-.58,1.06c-1.52.33-1.84.77-1.85,2.3,0,3.91,0,7.82,0,11.73,0,1.53.37,2,1.87,2.25.7.13.53.55.57,1s-.17.71-.69.71q-3.9,0-7.78,0c-.52,0-.74-.21-.68-.71s-.18-.83.54-1c1.56-.27,1.87-.69,1.88-2.23,0-3.95,0-7.89,0-11.84,0-1.49-.33-1.94-1.8-2.2-.76-.13-.58-.58-.62-1-.07-.67.36-.67.83-.66C229.88,145.24,231.12,145.23,232.35,145.23Z"/></g></g></svg>